<svg width="76" height="77" viewBox="0 0 76 77" fill="none" xmlns="http://www.w3.org/2000/svg">
<path d="M29.8237 6.48291H18.3535C17.7466 6.48291 17.2549 6.9748 17.2549 7.58154C17.2549 8.18828 17.7466 8.68018 18.3535 8.68018H29.8237C30.4306 8.68018 30.9223 8.18828 30.9223 7.58154C30.9223 6.9748 30.4306 6.48291 29.8237 6.48291Z" fill="white" stroke="white" stroke-width="0.75"/>
<path d="M9.35059 8.68018H12.6935C13.3004 8.68018 13.7921 8.18828 13.7921 7.58154C13.7921 6.9748 13.3004 6.48291 12.6935 6.48291H9.35059C8.7437 6.48291 8.25195 6.9748 8.25195 7.58154C8.25195 8.18828 8.74385 8.68018 9.35059 8.68018Z" fill="white" stroke="white" stroke-width="0.75"/>
<path d="M9.35059 13.9468H20.8206C21.4275 13.9468 21.9192 13.4549 21.9192 12.8481C21.9192 12.2414 21.4275 11.7495 20.8206 11.7495H9.35059C8.7437 11.7495 8.25195 12.2414 8.25195 12.8481C8.25195 13.4549 8.74385 13.9468 9.35059 13.9468Z" fill="white" stroke="white" stroke-width="0.75"/>
<path d="M29.8235 11.7495H26.4805C25.8736 11.7495 25.3818 12.2414 25.3818 12.8481C25.3818 13.4549 25.8736 13.9468 26.4805 13.9468H29.8235C30.4304 13.9468 30.9222 13.4549 30.9222 12.8481C30.9222 12.2414 30.4304 11.7495 29.8235 11.7495Z" fill="white" stroke="white" stroke-width="0.75"/>
<path d="M68.5073 24.856C66.0089 24.856 63.9162 26.6241 63.4105 28.9754H57.4091C57.3487 28.3656 57.2393 27.7557 57.077 27.1507C56.6539 25.5679 55.9076 24.1283 54.8979 22.8997L62.4433 15.347C63.8296 16.7096 65.6596 17.4603 67.6061 17.4603C69.5778 17.4603 71.4307 16.6913 72.822 15.2963C74.2167 13.9026 74.9848 12.0484 74.9848 10.0754C74.9848 8.10244 74.2167 6.24839 72.8226 4.85532C71.43 3.46138 69.5775 2.6938 67.6061 2.6938C65.6347 2.6938 63.7823 3.46152 62.3897 4.85532C60.9953 6.24897 60.2274 8.10288 60.2274 10.0754C60.2274 11.3187 60.533 12.5144 61.1073 13.5774C61.1002 13.5842 61.0926 13.59 61.0857 13.5971L53.3425 21.3477C52.8673 20.9585 52.359 20.6031 51.8164 20.2899C49.2071 18.7835 46.1684 18.3842 43.2607 19.1651C41.6548 19.5949 40.2231 20.3531 39.0171 21.3477L35.5375 17.8649C35.9169 17.2835 36.1385 16.5899 36.1385 15.845V4.70488C36.1384 2.66201 34.4775 1 32.436 1H7.50241C5.46101 1 3.80002 2.66201 3.80002 4.70488V15.8452C3.80002 17.888 5.46101 19.5501 7.50241 19.5501H16.161C16.7678 19.5501 17.2596 19.0582 17.2596 18.4514C17.2596 17.8447 16.7678 17.3528 16.161 17.3528H7.50241C6.67243 17.3528 5.99729 16.6765 5.99729 15.8452V4.70488C5.99729 3.87358 6.67243 3.19727 7.50241 3.19727H32.436C33.2659 3.19727 33.9411 3.87358 33.9411 4.70488V15.8452C33.9411 16.6765 33.2659 17.3528 32.436 17.3528H21.2358C20.6289 17.3528 20.1371 17.8447 20.1371 18.4514C20.1371 19.0582 20.6289 19.5501 21.2358 19.5501H32.436C32.9322 19.5501 33.4055 19.4512 33.8384 19.2732L37.4674 22.9057C35.4099 25.4189 34.4557 28.7841 35.0925 32.1613L21.9275 39.7727C21.9264 39.7732 21.9257 39.774 21.9247 39.7744C20.3749 37.9076 18.2942 36.5646 15.903 35.9238C12.851 35.1057 9.66321 35.5264 6.92761 37.1081C1.27844 40.3747 -0.664236 47.6302 2.59695 53.281C4.17517 56.0222 6.72575 57.9824 9.77878 58.8013C10.7979 59.0746 11.8318 59.2098 12.8592 59.2098C14.91 59.2098 16.9345 58.6709 18.7583 57.6165C24.3597 54.3814 26.3147 47.2248 23.1701 41.5926L35.7276 34.3325C36.9039 37.2373 39.2122 39.5037 42.1596 40.624V50.742V51.324C42.1596 51.8778 42.129 52.2837 42.0894 52.5769C39.8539 49.3397 37.7955 46.9475 33.8396 47.6358C32.5426 47.8649 31.5609 48.613 31.1465 49.6885C30.7239 50.7851 30.9664 52.0445 31.8119 53.1495L41.0457 66.7067C42.8126 69.3057 43.1107 70.8889 43.1107 73.4548C43.1107 74.8583 44.2537 76 45.6587 76H62.9675C64.3726 76 65.5156 74.8583 65.5156 73.4548V68.9739C65.5156 67.3444 65.8556 66.682 66.3263 65.7654C66.8277 64.7888 67.4519 63.5734 67.7186 61.0936C67.7227 61.0545 67.7249 61.0154 67.7249 60.9761V57.2141C67.7249 56.6074 67.2332 56.1155 66.6263 56.1155C66.0194 56.1155 65.5277 56.6074 65.5277 57.2141V60.9162C65.3019 62.9499 64.8289 63.871 64.3716 64.7617C63.8538 65.7703 63.3184 66.8131 63.3184 68.9737V73.4547C63.3184 73.6434 63.1577 73.8026 62.9675 73.8026H45.6585C45.4684 73.8026 45.3078 73.6432 45.3078 73.4547C45.3078 70.5452 44.9296 68.5116 42.8623 65.4704L33.6099 51.8859C33.597 51.8671 33.5835 51.8485 33.5696 51.8305C33.1899 51.3416 33.054 50.8488 33.1967 50.4785C33.3276 50.1389 33.7011 49.8914 34.219 49.7998C36.7553 49.3582 38.1135 50.669 40.3842 53.9745C40.3996 53.997 40.4161 54.019 40.4331 54.0404C41.2619 55.0722 42.0913 55.4515 42.8979 55.1677C43.907 54.8126 44.3569 53.6272 44.3569 51.3238V50.7418V30.3319C44.3569 28.86 45.3387 28.3378 46.1796 28.3378C47.0205 28.3378 48.0024 28.86 48.0024 30.3319V49.2788C48.0024 49.8855 48.4942 50.3774 49.101 50.3774C49.7079 50.3774 50.1997 49.8855 50.1997 49.2788V40.4871C50.1997 39.0152 51.1817 38.493 52.0225 38.493C52.2251 38.493 52.4358 38.5242 52.6389 38.5908C52.6719 38.6049 52.7053 38.6173 52.7391 38.628C53.3371 38.8633 53.8454 39.4287 53.8454 40.4871V50.7461C53.8454 51.3528 54.3371 51.8447 54.944 51.8447C55.5509 51.8447 56.0427 51.3528 56.0427 50.7461V42.977C56.0427 41.5051 57.0245 40.9829 57.8655 40.9829C58.7063 40.9829 59.6882 41.5051 59.6882 42.977V52.2134C59.6882 52.8202 60.18 53.3121 60.7868 53.3121C61.3937 53.3121 61.8855 52.8202 61.8855 52.2134V45.4669C61.8855 43.9939 62.8657 43.4712 63.7052 43.4712C64.1821 43.4712 64.6394 43.6444 64.9597 43.9461C65.3362 44.3006 65.5271 44.8123 65.5271 45.4668V52.1384C65.5271 52.7452 66.0188 53.2371 66.6257 53.2371C67.2326 53.2371 67.7243 52.7452 67.7243 52.1384V45.4668C67.7243 42.7141 65.7024 41.2738 63.7051 41.2738C63.0263 41.2738 62.345 41.4408 61.7409 41.7688C61.2449 39.8055 59.5466 38.7855 57.8652 38.7855C57.1855 38.7855 56.5032 38.9525 55.8984 39.2808C55.6984 38.488 55.3026 37.849 54.7909 37.3689C56.2899 35.5977 57.1915 33.4343 57.4113 31.1727H63.4102C63.9162 33.5217 66.0087 35.288 68.5069 35.288C71.3796 35.288 73.7167 32.9491 73.7167 30.0741C73.7172 27.1968 71.38 24.856 68.5073 24.856ZM63.9434 6.40908C63.9436 6.40894 63.9439 6.40864 63.944 6.4085C64.9215 5.43013 66.2221 4.89121 67.6061 4.89121C68.9901 4.89121 70.2907 5.43013 71.2688 6.40908C72.2482 7.38774 72.7876 8.68984 72.7876 10.0756C72.7876 11.4613 72.2481 12.7636 71.2675 13.7434C70.2902 14.7234 68.9898 15.2632 67.6061 15.2632C66.2224 15.2632 64.9221 14.7235 63.9434 13.7422C62.964 12.7636 62.4247 11.4615 62.4247 10.0757C62.4247 8.68999 62.964 7.3876 63.9434 6.40908ZM17.6591 55.714C17.6588 55.7141 17.6586 55.7141 17.6585 55.7143C15.4296 57.0032 12.8331 57.3457 10.348 56.679C7.86247 56.0125 5.78606 54.4164 4.50051 52.1838C1.84402 47.5806 3.42619 41.6709 8.02741 39.0104C9.51145 38.1524 11.1585 37.714 12.8279 37.714C13.6637 37.714 14.5052 37.824 15.3343 38.0462C17.8212 38.7127 19.8991 40.3088 21.1854 42.5408C23.8436 47.147 22.2616 53.0563 17.6591 55.714ZM55.2666 30.0914C55.2648 32.4026 54.3798 34.648 52.7469 36.3594C52.5075 36.3172 52.265 36.2957 52.0227 36.2957C51.3965 36.2957 50.7677 36.4374 50.1998 36.7163V30.3319C50.1998 27.5802 48.1775 26.1405 46.1797 26.1405C44.182 26.1405 42.1597 27.5802 42.1597 30.3319V38.2311C39.8258 37.0855 38.0919 34.9987 37.4011 32.4257C36.1057 27.5796 38.9892 22.5832 43.83 21.2875C46.1709 20.6588 48.6174 20.98 50.7179 22.1931C52.8222 23.4079 54.3267 25.37 54.9547 27.7192C55.1617 28.4906 55.2642 29.2724 55.2673 30.0473C55.2672 30.0562 55.266 30.065 55.266 30.0741C55.2658 30.0799 55.2666 30.0855 55.2666 30.0914ZM68.5073 33.0908C66.8438 33.0908 65.4905 31.7376 65.4905 30.0741C65.4905 28.4084 66.8437 27.0533 68.5073 27.0533C70.1686 27.0533 71.5199 28.4084 71.5199 30.0741C71.5199 31.7374 70.1686 33.0908 68.5073 33.0908Z" fill="white" stroke="white" stroke-width="0.75"/>
<path d="M14.2834 41.9845C12.8486 41.5997 11.3487 41.797 10.0589 42.5415C7.40301 44.0775 6.49085 47.4899 8.02542 50.1481C8.76868 51.4359 9.96839 52.3567 11.4033 52.741C11.8822 52.8692 12.3679 52.9328 12.8509 52.9328C13.8155 52.9328 14.7681 52.6795 15.6266 52.184C15.6268 52.1838 15.6271 52.1837 15.6274 52.1835C18.2823 50.6482 19.1946 47.2376 17.6615 44.5819C16.9182 43.2921 15.7186 42.3698 14.2834 41.9845ZM14.5273 50.2814C13.7475 50.7314 12.8399 50.8514 11.972 50.6186C11.1039 50.3862 10.3783 49.8288 9.9284 49.0496C8.9991 47.4398 9.5512 45.3735 11.1583 44.444C11.6782 44.1439 12.2544 43.9907 12.838 43.9907C13.1303 43.9907 13.4244 44.029 13.7138 44.1068C14.5818 44.3397 15.3076 44.898 15.7579 45.6796C16.6862 47.2877 16.1342 49.3521 14.5273 50.2814Z" fill="white" stroke="white" stroke-width="0.75"/>
</svg>
