<svg id="Capa_1" data-name="Capa 1" xmlns="http://www.w3.org/2000/svg" xmlns:xlink="http://www.w3.org/1999/xlink" viewBox="0 0 582.08 442.8"><defs><style>.cls-1,.cls-7{fill:#ffefd6;}.cls-2{fill:#ffbe9e;}.cls-3{fill:#f9d9ca;}.cls-4{fill:#fea09b;}.cls-5{fill:#fccecd;}.cls-6{fill:#f9d3d2;}.cls-10,.cls-11,.cls-14,.cls-15,.cls-16,.cls-17,.cls-7,.cls-8{fill-rule:evenodd;}.cls-29,.cls-8{fill:#fff;}.cls-15,.cls-9{fill:#084892;}.cls-10{fill:#2e8eff;}.cls-11{fill:#e5eeff;}.cls-12,.cls-16{fill:#f8af2c;}.cls-13{fill:#285aa5;}.cls-14{fill:#e4efff;}.cls-17{fill:#ffd086;}.cls-18{fill:#f5bc8e;}.cls-19{fill:#17467e;}.cls-20{fill:#442d1d;}.cls-21{fill:#403379;}.cls-22{fill:#f5dfce;}.cls-23{fill:#1d58b4;}.cls-24{fill:#ff4340;}.cls-25{fill:#f29456;}.cls-26{fill:#feb125;}.cls-27{fill:url(#_ÂÁ_Ï_ÌÌ_È_ËÂÌÚ_4);}.cls-28{fill:#cab7cc;}.cls-30{fill:#01888b;}.cls-31{fill:#f7b58e;}.cls-32{fill:#63c0c4;}.cls-33{fill:none;stroke:#ffae0c;stroke-miterlimit:10;stroke-width:2px;stroke-dasharray:20 20 5;}</style><linearGradient id="_ÂÁ_Ï_ÌÌ_È_ËÂÌÚ_4" x1="486.61" y1="399.15" x2="523.9" y2="399.15" gradientUnits="userSpaceOnUse"><stop offset="0" stop-color="#dfefea"/><stop offset="1" stop-color="#bfe3ee"/></linearGradient></defs><title>contentAnywhereSVG</title><path class="cls-1" d="M444.71,396.66c23-23.34-43-10.3-22.95-24.65,41.19-29.4,18.6-39.29,16.23-40.38a20.2,20.2,0,0,0-5.43-1.64c-4.65-.72-7.66,1.81-9.28-2.54-2-5.38,5.92-14.39,7.4-20.08,1.43-5.47,1.6-11.41-1.19-16.54-4.15-7.62-13.88-11.08-22.67-9.87-10.87,1.49-18.82,9.83-22.47,19.1-.88,2.25-7.83,12.83-9.59,12.08-.6-.27-2.24-3.6-2.44-3.85-1.9-2.39-3.9-4.44-7.25-4.81-9.56-1.06-12.59,9.16-12.41,16,.23,8.58,1.81,17.22,2.58,25.77.29,3.18-.65,8.87-4.86,6.53-2-1.14-3.7-6.57-5.21-8.32-5.39-6.26-13.81-5.83-19.36.25-8.64,9.46-7.83,24.1-3.7,35,1.56,4.12,3.69,8.08,4.92,12.3.54,1.84,2.44,6.78,1.66,8.49-3.77,8.24-5.08,2.94-8.25,1.42-4.18-2-7.38-2.71-12.23-.3-10.8,5.38-9.91,20.18-6.8,29.37,4.35,12.82,14,26.32,28,31.13,17,5.86,34.68-1,50.24-7.34a1.87,1.87,0,0,0,.39-.25,98.7,98.7,0,0,0,9.89-4.52c8.76-4.64,20.39-11.89,18.75-22.8a12.49,12.49,0,0,0-5.23-8.61c-1.94-1.24-3.83-.91-5.73-1.81-7.91-3.76-2.11-3.64,3.38-4.5,15-2.35,31.74-4.91,43.61-14.59" transform="translate(-8.14 -79)"/><path class="cls-2" d="M379.44,436.44a11.78,11.78,0,0,1-2.93-3.42c2.76-.68,5.36-1.46,7.65-2.2a1.1,1.1,0,1,0-.61-2.12,77.51,77.51,0,0,1-14.18,3.22c-5.27.65-11.93,1.5-16.78-.89a1.67,1.67,0,0,0-.18,0,252.49,252.49,0,0,0,21-39.15,1,1,0,0,0,.61.32A107.92,107.92,0,0,0,408.7,392s0,0,0,.06a39.89,39.89,0,0,0,6.21,7c1.09,1,2.74-.59,1.65-1.56a37.25,37.25,0,0,1-5.39-6c1.27-.24,2.54-.48,3.8-.76,1.47-.34.86-2.45-.61-2.12A105,105,0,0,1,374.64,390a1.12,1.12,0,0,0-.41,0c5.89-13.59,11-27.54,16.14-41.46a1.27,1.27,0,0,0,.44.19c7.86,1.75,16,3,23.76,1.84a36.69,36.69,0,0,0,6.34,5.06c1.24.79,2.39-1.13,1.14-1.92a34.37,34.37,0,0,1-4.71-3.67,33.38,33.38,0,0,0,7-2.46c1.34-.66.16-2.56-1.17-1.9-10,4.92-21.19,3.27-31.76.92a1.63,1.63,0,0,0-.31,0c4-11,8.05-22,12.41-32.69.53-1.31-1.74-1.85-2.28-.54-5.59,13.75-10.61,27.92-15.81,42.05-8.75-8.3-13.93-21.73-18.21-32.31-.53-1.31-2.8-.75-2.27.57,1.28,3.15,2.62,6.51,4.08,9.9-1.7-1-3.43-1.88-5.2-2.73-1.34-.64-2.49,1.27-1.14,1.91q3.36,1.62,6.55,3.49a1.06,1.06,0,0,0,1,.06c3.62,8,8.06,15.84,14.34,21.42-5.65,15.25-11.57,30.43-18.68,45a1.09,1.09,0,0,1-.1-.11C350.53,392,342.21,375.8,336,359.44c-.5-1.32-2.77-.76-2.26.57,1.19,3.11,2.44,6.21,3.8,9.26a42,42,0,0,1-5.74-4.72c-1-1-2.69.54-1.65,1.56a44.15,44.15,0,0,0,8.28,6.37,1.1,1.1,0,0,0,.66.15c5.9,12.31,13.71,23.65,25.55,31.92a1.08,1.08,0,0,0,.32.13,203.22,203.22,0,0,1-25.47,39.8s0,0,0,0a83.76,83.76,0,0,1-21.35-29.36c-.55-1.29-2.82-.74-2.26.57.94,2.17,2,4.27,3.09,6.35a41,41,0,0,1-6.73-3.17,1.11,1.11,0,0,0-1.14,1.91,42.22,42.22,0,0,0,8.93,3.95,1.17,1.17,0,0,0,.44.05A86.84,86.84,0,0,0,337.79,446a1.52,1.52,0,0,0,.3.17,158.64,158.64,0,0,1-11.39,12c-1.06,1,.61,2.55,1.67,1.55a167.72,167.72,0,0,0,22.83-27,1.12,1.12,0,0,0,.24.19c6.26,3.07,14.93,2.34,22.72.62A13.36,13.36,0,0,0,377.8,438C378.94,438.91,380.6,437.35,379.44,436.44Z" transform="translate(-8.14 -79)"/><path class="cls-3" d="M180.72,330.27c11.22,32.66,26.45,64.68,49.62,91.55a185.66,185.66,0,0,0,36,32.42c6.5,4.44,13.49,8.89,20.84,12.05,4.08,1.74,9.87,3,13.25-.24a6.82,6.82,0,0,0,.74-.84.55.55,0,0,0,.4-.33,3.47,3.47,0,0,0,.24-.66c2.7-8.33,2-17.69.78-30.1-1-9.63-4.7-20.09-8-29.31-3.65-10.21-8.74-20-13.35-29.82q-6.83-14.44-13.63-28.92C255.8,321,244.46,288.39,216,275.56c-6.72-3-14.47-4.86-21.81-2.86a26.09,26.09,0,0,0-14.86,11.54C170.3,298.5,175.7,315.65,180.72,330.27Z" transform="translate(-8.14 -79)"/><path class="cls-4" d="M224.76,338.26c2.36,5.07,4.76,10.09,7.21,15.1a110.74,110.74,0,0,1-33.29-10.11.77.77,0,1,0-.7,1.38A112.28,112.28,0,0,0,232.51,355a.63.63,0,0,0,.24,0c3.63,7.37,7.35,14.69,11.23,22l-15.22-5.38c-5.36-1.89-11.38-3.38-15.77-6.93-.82-.64-1.86.53-1.07,1.18,4.18,3.36,9.57,4.83,14.66,6.62l18.3,6.47.15,0q4.49,8.35,9.24,16.56A57.18,57.18,0,0,1,222.09,390a.78.78,0,1,0-.72,1.38A58.69,58.69,0,0,0,252,397.27c1-.07,2.06-.18,3.08-.31,1.56,2.66,3.12,5.31,4.72,7.94,2.59,4.26,5.24,8.49,7.91,12.69l-11.42-.08c-4.06,0-9.08.65-12.9-.71-1-.36-1.7,1-.72,1.37,3.38,1.2,7.11.82,10.66.86l14.69.09a.74.74,0,0,0,.53-.21c3.77,5.89,7.66,11.73,11.56,17.55q-11-.24-22-.86c-1-.06-1.35,1.45-.29,1.5q11.36.64,22.77.9a.65.65,0,0,0,.43-.14q5,7.45,10.12,14.84-9.22.46-18.47.89a.77.77,0,1,0,.14,1.53l19.35-.93q4.09,5.94,8.22,11.86a6.82,6.82,0,0,0,.74-.84.55.55,0,0,0,.4-.33Q297.77,459.44,294,454a.82.82,0,0,0,.29-.42,112.56,112.56,0,0,0,3.16-19.21c.06-1-1.55-1.26-1.62-.29a110.22,110.22,0,0,1-2.94,18.3c-3.25-4.72-6.49-9.43-9.69-14.17a.75.75,0,0,1,.06-.13,150.53,150.53,0,0,0,2.37-29.13c0-1-1.65-.84-1.63.13a149.82,149.82,0,0,1-2.12,27.17L279.71,433c-3.41-5.11-6.76-10.28-10-15.46A.63.63,0,0,0,270,417a344.84,344.84,0,0,0,2.64-35.33c0-1-1.62-.84-1.64.13q-.39,17-2.49,33.92-6.13-9.75-12-19.67a.63.63,0,0,0,.06-.18q3.4-19.29,5.51-38.73c.11-1-1.51-1.27-1.61-.29q-2,18.6-5.22,37.05c-3.28-5.67-6.5-11.37-9.59-17.14a.78.78,0,0,0,.3-.47,230.05,230.05,0,0,0,3.63-48.71c0-1-1.68-.86-1.64.12a227.72,227.72,0,0,1-3.39,47q-2.19-4.14-4.33-8.32c-2.19-4.28-4.31-8.58-6.42-12.89a.55.55,0,0,0,.23-.43,336.31,336.31,0,0,0-.25-46.87c-.07-1-1.7-.86-1.63.12a336.38,336.38,0,0,1,.38,44.56q-5.4-11.15-10.54-22.4a.57.57,0,0,0,.1-.37q-.47-16.86-1.61-33.68a.83.83,0,0,0-1.64.12c.7,10.1,1.18,20.2,1.5,30.31q-6.15-13.5-12.16-27.07c-.41-.9-1.94-.39-1.55.54q6.52,14.61,13.17,29.19A108.28,108.28,0,0,1,191,311.79c-.83-.63-1.88.55-1.06,1.18a109.61,109.61,0,0,0,30.83,16.59h0C222.1,332.47,223.41,335.37,224.76,338.26Z" transform="translate(-8.14 -79)"/><path class="cls-5" d="M243.43,298.32c-2.6,34.22-1.22,69.23,9.57,102.25a173.57,173.57,0,0,0,20.51,42.64c4.27,6.38,9,13,14.54,18.44,3.09,3.05,7.94,6.27,12.39,4.4a8.3,8.3,0,0,0,1-.52.55.55,0,0,0,.49-.16,3.91,3.91,0,0,0,.49-.54c5.82-6.79,8.92-15.71,12.71-27.66,2.92-9.27,3.64-20.28,4.25-30,.68-10.75-.14-21.59-.51-32.33q-.58-15.78-1.12-31.59c-1-27.43,1.48-61.6-19.83-83.43-5-5.14-11.49-9.55-19.1-10.26-6.64-.6-13.17,1.8-18.39,5.54C246.42,265.21,244.59,283,243.43,298.32Z" transform="translate(-8.14 -79)"/><path class="cls-1" d="M281.12,321.09q.25,8.28.67,16.52a104.45,104.45,0,0,1-26.86-21c-.7-.74-1.89.29-1.2,1a105.83,105.83,0,0,0,27.91,21.66.7.7,0,0,0,.23.08c.43,8.1,1,16.19,1.67,24.29l-12-10.3c-4.23-3.62-9.22-7.1-11.88-11.93-.5-.88-1.93-.15-1.45.72,2.53,4.58,6.95,7.82,11,11.25l14.4,12.39.13.07q.84,9.32,2,18.58A54.58,54.58,0,0,1,258,368.19c-.69-.76-1.89.28-1.21,1a55.9,55.9,0,0,0,26.11,16.13c1,.29,2,.54,3,.78.38,3,.78,6,1.21,9q1.06,7.28,2.29,14.53l-10.56-4.06c-3.76-1.44-8.69-2.56-11.69-5.16-.78-.67-2,.36-1.22,1,2.66,2.29,6.27,3.24,9.56,4.51,4.52,1.72,9.06,3.47,13.59,5.21a.79.79,0,0,0,.57,0c1.16,6.78,2.44,13.55,3.74,20.31-6.74-2.7-13.4-5.52-20-8.45-1-.41-1.83.87-.88,1.29q10.29,4.56,20.77,8.77a.67.67,0,0,0,.46,0q1.69,8.67,3.48,17.31-8.74-2.79-17.49-5.62a.77.77,0,1,0-.48,1.47q9.15,3,18.32,5.88c1,4.63,1.94,9.26,2.91,13.87a8.3,8.3,0,0,0,1-.52.55.55,0,0,0,.49-.16q-1.36-6.39-2.69-12.8a.83.83,0,0,0,.44-.29,116.82,116.82,0,0,0,10.58-16.72c.45-.88-.93-1.71-1.39-.83a116.12,116.12,0,0,1-10,15.95c-1.13-5.51-2.27-11-3.35-16.52,0,0,.07-.06.1-.1a156.52,156.52,0,0,0,13.81-26.2c.37-.92-1.2-1.36-1.56-.46a155.36,155.36,0,0,1-12.8,24.48c-.24-1.24-.48-2.47-.73-3.71-1.12-5.94-2.17-11.91-3.16-17.85a.7.7,0,0,0,.53-.36,358.82,358.82,0,0,0,16.52-31.87c.42-.91-1.17-1.35-1.57-.45q-7.14,15.66-15.82,30.6-1.82-11.17-3.27-22.42a.36.36,0,0,0,.13-.14q10.84-16.71,20.54-34c.49-.87-.9-1.71-1.37-.83q-9.28,16.56-19.61,32.56c-.79-6.4-1.5-12.82-2.07-19.25a.87.87,0,0,0,.47-.33,240,240,0,0,0,22.76-43.94c.36-.94-1.21-1.38-1.56-.45A237.4,237.4,0,0,1,285,361.89q-.37-4.61-.71-9.23c-.32-4.73-.58-9.46-.82-14.2a.55.55,0,0,0,.38-.32,344.28,344.28,0,0,0,18.45-43.58c.32-.93-1.24-1.39-1.57-.45a346.07,346.07,0,0,1-17.39,41.48q-.57-12.22-.86-24.46a.62.62,0,0,0,.24-.31Q289,295,294.63,279c.33-.95-1.24-1.38-1.57-.45Q288,293,282.38,307.19c-.22-9.78-.37-19.58-.5-29.35,0-1-1.65-1-1.65,0q.22,15.84.59,31.68a101,101,0,0,1-20.5-24.72c-.52-.87-2-.15-1.45.72a101.89,101.89,0,0,0,22,26.15h0C281,314.79,281,317.93,281.12,321.09Z" transform="translate(-8.14 -79)"/><path class="cls-1" d="M287.87,381.82c-25.24-25.65,47.29-11.33,25.22-27.08-45.26-32.31-20.44-43.17-17.84-44.38a21.92,21.92,0,0,1,6-1.79c5.11-.8,8.42,2,10.2-2.8,2.2-5.92-6.5-15.8-8.14-22.06-1.57-6-1.75-12.54,1.32-18.18,4.56-8.37,15.25-12.17,24.9-10.84,11.95,1.63,20.68,10.8,24.69,21,1,2.47,8.61,14.1,10.53,13.27.67-.29,2.48-4,2.69-4.23,2.08-2.62,4.28-4.88,8-5.29C385.88,278.26,389.21,289.5,389,297c-.25,9.42-2,18.92-2.83,28.31-.32,3.5.71,9.75,5.34,7.18,2.24-1.25,4.06-7.22,5.72-9.14,5.93-6.87,15.17-6.4,21.27.28,9.5,10.39,8.61,26.47,4.07,38.44-1.72,4.53-4.05,8.87-5.41,13.52-.59,2-2.68,7.44-1.82,9.32,4.14,9.06,5.58,3.23,9.06,1.57,4.59-2.19,8.12-3,13.44-.34,11.86,5.91,10.89,22.17,7.47,32.27-4.77,14.09-15.43,28.92-30.76,34.21-18.66,6.44-38.11-1.1-55.21-8.06a2.78,2.78,0,0,1-.42-.28,107.09,107.09,0,0,1-10.86-5c-9.64-5.09-22.41-13.07-20.61-25.05a13.72,13.72,0,0,1,5.75-9.46c2.13-1.37,4.2-1,6.29-2,8.7-4.13,2.32-4-3.71-5-16.45-2.58-34.87-5.39-47.92-16" transform="translate(-8.14 -79)"/><path class="cls-2" d="M359.58,425.52a12.67,12.67,0,0,0,3.23-3.75c-3-.75-5.9-1.61-8.41-2.42a1.21,1.21,0,1,1,.67-2.33,84.33,84.33,0,0,0,15.58,3.53c5.79.72,13.11,1.65,18.44-1a1.46,1.46,0,0,1,.2-.05,277.8,277.8,0,0,1-23.12-43,1.11,1.11,0,0,1-.67.35,118.53,118.53,0,0,1-38.06-.12l0,.06a43.67,43.67,0,0,1-6.83,7.75c-1.2,1.07-3-.64-1.81-1.72a41.33,41.33,0,0,0,5.92-6.57c-1.39-.27-2.79-.53-4.17-.84-1.62-.37-.94-2.69.67-2.33a115.16,115.16,0,0,0,43.66,1.44,1.34,1.34,0,0,1,.45,0c-6.47-14.93-12.14-30.26-17.73-45.56a1.21,1.21,0,0,1-.49.21c-8.63,1.93-17.53,3.33-26.1,2a40.91,40.91,0,0,1-7,5.56c-1.37.87-2.62-1.24-1.25-2.11a37.76,37.76,0,0,0,5.17-4,35.42,35.42,0,0,1-7.67-2.7c-1.47-.72-.17-2.81,1.29-2.09,11,5.41,23.28,3.6,34.9,1a1.23,1.23,0,0,1,.33,0c-4.42-12.09-8.83-24.14-13.62-35.92-.59-1.45,1.91-2,2.49-.6,6.15,15.11,11.66,30.68,17.38,46.2,9.61-9.11,15.3-23.87,20-35.5.58-1.44,3.07-.82,2.49.63-1.41,3.47-2.88,7.16-4.48,10.87,1.87-1,3.77-2.06,5.71-3,1.47-.71,2.74,1.39,1.26,2.1q-3.69,1.77-7.2,3.83a1.18,1.18,0,0,1-1.1.07c-4,8.75-8.86,17.4-15.75,23.53,6.2,16.76,12.7,33.44,20.51,49.43l.12-.12c16.74-11.69,25.88-29.48,32.72-47.46.56-1.45,3.05-.84,2.49.62-1.3,3.43-2.68,6.83-4.18,10.18a46.34,46.34,0,0,0,6.32-5.18c1.14-1.13,3,.59,1.81,1.71a49.06,49.06,0,0,1-9.1,7,1.19,1.19,0,0,1-.73.16c-6.48,13.53-15.06,26-28.07,35.07a.88.88,0,0,1-.35.15,223.36,223.36,0,0,0,28,43.73s0,0,0-.05A91.85,91.85,0,0,0,427,402.05c.62-1.42,3.11-.8,2.49.63-1,2.39-2.18,4.7-3.39,7a43.26,43.26,0,0,0,7.38-3.48,1.22,1.22,0,0,1,1.26,2.1,46.06,46.06,0,0,1-9.81,4.34,1.24,1.24,0,0,1-.49.06A95.14,95.14,0,0,1,405.35,436a1.12,1.12,0,0,1-.33.19,174.44,174.44,0,0,0,12.52,13.22c1.16,1.1-.67,2.8-1.84,1.69a185.28,185.28,0,0,1-25.09-29.63,1.37,1.37,0,0,1-.26.2c-6.88,3.38-16.4,2.57-25,.68a14.59,14.59,0,0,1-4,4.87C360.14,428.23,358.32,426.53,359.58,425.52Z" transform="translate(-8.14 -79)"/><path class="cls-3" d="M579.47,258.3c-3.67-5.81-9.29-10.76-16.33-12.69-8.06-2.19-16.58-.17-24,3.15-31.28,14.09-43.75,49.86-56.74,77.47q-7.47,15.9-15,31.78c-5.07,10.81-10.67,21.55-14.67,32.76C449.18,400.9,445.1,412.4,444,423c-1.37,13.63-2.11,23.91.85,33.07a4.29,4.29,0,0,0,.26.73.6.6,0,0,0,.44.35,7.55,7.55,0,0,0,.82.93c3.71,3.61,10.07,2.18,14.56.26,8.07-3.47,15.75-8.36,22.9-13.24a204,204,0,0,0,39.56-35.62c25.46-29.53,42.19-64.7,54.52-100.59C583.45,292.81,589.38,274,579.47,258.3Z" transform="translate(-8.14 -79)"/><path class="cls-4" d="M529.54,317.65q-3.88,8.36-7.92,16.59a121.89,121.89,0,0,0,36.57-11.11.85.85,0,1,1,.77,1.51A123.09,123.09,0,0,1,521,336a.81.81,0,0,1-.27,0c-4,8.09-8.07,16.13-12.34,24.12l16.73-5.91c5.89-2.08,12.5-3.71,17.33-7.61.89-.71,2,.58,1.17,1.29-4.59,3.7-10.52,5.3-16.11,7.27l-20.1,7.11a1,1,0,0,1-.17,0q-4.92,9.18-10.15,18.2a62.79,62.79,0,0,0,35.36-6,.86.86,0,1,1,.79,1.52,64.67,64.67,0,0,1-33.69,6.45c-1.12-.09-2.25-.21-3.38-.34q-2.55,4.38-5.18,8.72-4.27,7-8.69,13.95l12.55-.1c4.46,0,10,.72,14.17-.78,1.09-.39,1.87,1.13.79,1.52-3.71,1.31-7.81.9-11.72.93L482,406.5a.88.88,0,0,1-.57-.23c-4.15,6.47-8.42,12.88-12.71,19.27q12.09-.26,24.13-.94c1.14-.06,1.49,1.59.32,1.65q-12.47.71-25,1a.78.78,0,0,1-.48-.15q-5.52,8.19-11.12,16.3,10.14.51,20.29,1a.84.84,0,1,1-.15,1.68q-10.64-.49-21.26-1-4.5,6.53-9,13a7.55,7.55,0,0,1-.82-.93.6.6,0,0,1-.44-.35c2.79-4,5.59-8,8.34-12a.93.93,0,0,1-.32-.46,122.68,122.68,0,0,1-3.46-21.1c-.07-1.07,1.69-1.39,1.78-.32A120.25,120.25,0,0,0,454.7,443c3.56-5.18,7.13-10.36,10.64-15.57,0-.05,0-.08-.06-.14a165.89,165.89,0,0,1-2.61-32c0-1.08,1.82-.93,1.79.14a164.05,164.05,0,0,0,2.34,29.85c.78-1.17,1.57-2.33,2.36-3.5,3.75-5.62,7.43-11.3,11-17a.7.7,0,0,1-.38-.57,376.37,376.37,0,0,1-2.89-38.82c0-1.09,1.78-.93,1.79.14q.43,18.71,2.74,37.27,6.75-10.71,13.15-21.61a.54.54,0,0,1-.08-.19q-3.73-21.21-6-42.57c-.12-1.07,1.66-1.39,1.77-.32q2.21,20.46,5.74,40.72c3.6-6.23,7.14-12.5,10.53-18.84a.85.85,0,0,1-.33-.52,253.49,253.49,0,0,1-4-53.52c0-1.09,1.84-.94,1.79.14a251,251,0,0,0,3.73,51.69c1.61-3,3.19-6.09,4.76-9.14,2.41-4.7,4.74-9.42,7-14.16a.56.56,0,0,1-.24-.47,367.44,367.44,0,0,1,.27-51.51c.07-1.07,1.87-.93,1.79.14a367,367,0,0,0-.42,49q5.92-12.24,11.58-24.61a.62.62,0,0,1-.11-.41q.51-18.51,1.77-37c.08-1.09,1.88-.93,1.8.14-.77,11.1-1.29,22.19-1.64,33.3q6.75-14.83,13.35-29.74c.45-1,2.14-.42,1.71.59q-7.17,16-14.47,32.07a119.21,119.21,0,0,0,31.72-17.35c.91-.69,2.06.6,1.17,1.29a120.69,120.69,0,0,1-33.88,18.23h0C532.47,311.29,531,314.47,529.54,317.65Z" transform="translate(-8.14 -79)"/><path class="cls-5" d="M490.31,226.29c-5.72-4.11-12.91-6.74-20.2-6.08-8.36.78-15.46,5.63-21,11.28-23.42,24-20.73,61.52-21.79,91.67q-.6,17.35-1.22,34.7c-.41,11.8-1.32,23.72-.57,35.52.67,10.67,1.46,22.76,4.68,32.95,4.16,13.13,7.56,22.93,14,30.39a4.75,4.75,0,0,0,.53.59.62.62,0,0,0,.55.17,8.67,8.67,0,0,0,1.13.58c4.88,2.06,10.21-1.49,13.61-4.83,6.12-6,11.29-13.26,16-20.27a190,190,0,0,0,22.53-46.85c11.86-36.28,13.37-74.75,10.52-112.35C507.75,256.93,505.75,237.38,490.31,226.29Z" transform="translate(-8.14 -79)"/><path class="cls-1" d="M467.62,298.78c-.19,6.07-.43,12.11-.74,18.16a115,115,0,0,0,29.51-23.06c.77-.82,2.08.31,1.32,1.13a116.11,116.11,0,0,1-30.66,23.8.69.69,0,0,1-.25.09c-.48,8.9-1.07,17.79-1.84,26.69l13.17-11.31c4.63-4,10.12-7.81,13-13.11.55-1,2.13-.18,1.6.79-2.79,5-7.64,8.59-12,12.36L464.9,347.93l-.14.08c-.62,6.82-1.33,13.62-2.18,20.42A59.91,59.91,0,0,0,493,350.53c.76-.83,2.09.32,1.34,1.13a61.41,61.41,0,0,1-28.69,17.73c-1.08.31-2.18.6-3.28.86q-.62,5-1.33,9.9-1.17,8-2.51,16l11.61-4.46c4.13-1.58,9.55-2.81,12.84-5.66.85-.74,2.19.39,1.34,1.13-2.92,2.51-6.89,3.56-10.5,4.95-5,1.89-10,3.81-14.94,5.72a.85.85,0,0,1-.63,0c-1.27,7.45-2.68,14.89-4.11,22.32,7.41-3,14.73-6.07,22-9.28,1-.46,2,.95,1,1.41q-11.3,5-22.82,9.64a.75.75,0,0,1-.51,0c-1.23,6.35-2.52,12.68-3.82,19q9.61-3.06,19.22-6.16a.85.85,0,1,1,.53,1.61l-20.14,6.46c-1.05,5.08-2.13,10.17-3.19,15.24a8.67,8.67,0,0,1-1.13-.58.62.62,0,0,1-.55-.17c1-4.68,2-9.37,3-14.06a.93.93,0,0,1-.48-.32,128.79,128.79,0,0,1-11.62-18.37c-.49-1,1-1.88,1.52-.92a126.45,126.45,0,0,0,11,17.53c1.25-6.05,2.49-12.1,3.68-18.15,0,0-.08-.07-.11-.11a172.14,172.14,0,0,1-15.17-28.79c-.41-1,1.31-1.49,1.72-.5a170.24,170.24,0,0,0,14.05,26.89c.27-1.36.54-2.71.8-4.07q1.86-9.79,3.48-19.62a.73.73,0,0,1-.58-.39q-10-17.08-18.15-35c-.46-1,1.28-1.48,1.72-.5q7.86,17.22,17.39,33.63,2-12.29,3.59-24.63a.71.71,0,0,1-.15-.15q-11.91-18.37-22.56-37.39c-.54-1,1-1.87,1.5-.91q10.2,18.19,21.55,35.78c.86-7,1.65-14.09,2.27-21.16a.92.92,0,0,1-.51-.36,263.57,263.57,0,0,1-25-48.28c-.39-1,1.33-1.51,1.72-.5a261.63,261.63,0,0,0,24.05,46.68c.28-3.38.54-6.77.78-10.15.36-5.2.64-10.39.9-15.6a.63.63,0,0,1-.42-.35,380.22,380.22,0,0,1-20.26-47.89c-.36-1,1.36-1.52,1.72-.5a377.94,377.94,0,0,0,19.11,45.58c.42-8.95.72-17.9.95-26.87a.66.66,0,0,1-.27-.34q-6.92-17.37-13.1-35c-.36-1,1.37-1.52,1.72-.5q5.56,15.84,11.75,31.47c.24-10.75.4-21.51.54-32.25,0-1.08,1.81-1.14,1.82,0Q468.35,268.6,468,286a111,111,0,0,0,22.52-27.16c.57-1,2.15-.17,1.6.79a112.32,112.32,0,0,1-24.17,28.72h0C467.8,291.86,467.74,295.31,467.62,298.78Z" transform="translate(-8.14 -79)"/><path class="cls-2" d="M16.23,313.25a5.94,5.94,0,0,1,3.26-7.53c2.57-1.19,5.25-.6,7.89.13a21.42,21.42,0,0,1,3.28.86l.53.12c.41-4.32,2.92-16.66,7.84-11.41,4.41,4.7-.61,12.5-5.28,14.17a1.28,1.28,0,0,1-1.1-.17c-1.91,3.31-5,6.82-8.64,7.81A6.81,6.81,0,0,1,16.23,313.25Z" transform="translate(-8.14 -79)"/><path class="cls-2" d="M26.4,327.78c-.46-3.25,2.73-5.34,5.21-6.23a13,13,0,0,1,8-.21c-.49-4.55,4.13-14.17,8.85-10.89,2.44,1.71,1.47,5.25.38,7.49A15.12,15.12,0,0,1,41.58,325a10,10,0,0,1-1,2.14,9.8,9.8,0,0,1-8.52,4.75C29.68,331.83,26.8,330.62,26.4,327.78Z" transform="translate(-8.14 -79)"/><path class="cls-2" d="M39.14,344.47c4.29,1.88,11-.13,13.08-4.79v0a1.16,1.16,0,0,0,1.18-.37c2.93-3.26,8.92-8,7.67-13.36-.66-2.8-3-4.16-5.58-3.23-4.14,1.5-5.17,7.38-5.27,11.32a18.58,18.58,0,0,1-.18,2.06c-4.17-2.15-10.22-3.19-13.89.29C33,339.39,36,343.1,39.14,344.47Z" transform="translate(-8.14 -79)"/><path class="cls-2" d="M46.22,364.38c5.37,1.92,9.42-3.89,11.54-8.13.82-1.63,1.54-3.29,2.23-5a.94.94,0,0,0,.4-.2c5.12,0,10.66-1.78,13.08-7,1.57-3.42,1.09-8.62-3.2-9.35-5-.85-9.1,6.11-10.55,10.14-.43,1.19-.86,2.45-1.3,3.71C53,348,47.15,351,44.05,355.75,41.92,359,42.37,363,46.22,364.38Z" transform="translate(-8.14 -79)"/><path class="cls-2" d="M59.18,375.37c4.35,1.64,9.53-1.55,11.89-5.37a14.88,14.88,0,0,0,1.81-5.2c7-.11,16.29-14.27,6.81-16.34-4.59-1-6.69,5.54-7.75,9.09-.44,1.5-.73,3.05-1,4.58a.87.87,0,0,0-.17-.07c-4.9-1.07-11.13,0-14,5C54.9,370.29,55.58,374,59.18,375.37Z" transform="translate(-8.14 -79)"/><path class="cls-2" d="M72.84,392.31c4.61,1.46,9.84-3.48,11.76-7.39a14,14,0,0,0,1.26-4.51c4.29-.84,9-2.82,10.3-7.73,1-3.75-1-9.27-5.37-9.15-3.68.11-5.34,5-6.17,8.14a33.42,33.42,0,0,0-.8,5.65c-4.92.27-10.52,2.33-13.17,7C69,387.3,69.32,391.19,72.84,392.31Z" transform="translate(-8.14 -79)"/><path class="cls-2" d="M86,408.47c5.92-.66,12.3-7.91,13.56-13.92a1,1,0,0,0,.66.07c5.57-1.25,10.34-6.59,11.49-12.58.68-3.5-.82-10.48-5.56-9.53-2.32.46-4.44,4.8-5.47,6.64a27.22,27.22,0,0,0-3.42,11.41c0,.42-.07.81-.1,1.17-6.46-.26-12,4-15.16,10C79.94,405.5,81.12,409,86,408.47Z" transform="translate(-8.14 -79)"/><path class="cls-2" d="M23.44,294.89c-1.53-2.84.57-4.14,2.12-1.26A387.27,387.27,0,0,0,104.7,396c2.35,2.16,1.15,4.43-1.22,2.25A391.53,391.53,0,0,1,23.44,294.89Z" transform="translate(-8.14 -79)"/><path class="cls-2" d="M9.23,284.77C6.46,279.22,9,271.2,16,273.91s10.77,12,11.17,19.21c.06,1-1.43,3.61-2.12,4.21-2.28,2-5.88-.25-7.86-1.76C13.72,292.91,11.22,288.74,9.23,284.77Z" transform="translate(-8.14 -79)"/><path class="cls-6" d="M104.31,386.14c5.39.46,39.84-39.38,33.1-46.88-5.24-5.84-11.19-.06-13.2,2.22-3.16,3.6-10.22,12.76-12.35,9.86-3.86-5.25,16.79-26,21.53-31.41S146,302.71,144,294.81s-3.52-10.87-11.32-1S111.86,325.34,110.47,316,122.89,292.44,128,281.2s11.19-34.49,2.49-33c-7.78,1.3-18.21,36.44-22.64,32-3.55-3.52,2.69-11.87,8.11-27.26s10.38-30,2.07-34.23c-6.67-3.42-8.18,7.21-11.2,15.47s-7.63,19.58-10.16,15.33,15.91-43.11,6.29-51.19C96.59,193,95.14,202.6,91.11,212S85,224.38,83.54,222.92s2-15.08,4.12-22.5,2.72-18.83-3.72-21.15-8.65,9.94-8.47,14.67-1.56,9.32-2.89,9.36-2.94-15.53-10.36-13.38-4.5,16.87,1.11,22.44,13,13.3,11.1,15.47-8.42-4.27-13.54-9.35-8.24-5.86-9.52-4.41c-4.25,4.84-1.17,15.53,2.57,19.24s27.26,21.63,24.44,24.84-11-4.5-15.12-8.6-13.78-13.68-18.52-8.3,5.71,21.19,14,28.49,22.67,18,20.49,20.53-15-4.07-20.07-9-11.61-16.57-17.44-9.94.65,15.59,10.51,25.37c4.12,4.09,14.41,14.1,23.17,15.91,10,2.06,14.64,4.83,14.3,7.32-.67,5-9.23,1.9-14.86-1.76S52.37,302,48.57,312.19,60.75,328.74,66.94,332s28.92,12.61,27,17.91-12.64-3-16.23-5.24-12.39-4.25-12.24-.12S94.69,385.33,104.31,386.14Z" transform="translate(-8.14 -79)"/><path class="cls-7" d="M26.69,468.41c6.77-31.53,39.08-32.9,40.3-38.26,1.3-5.72-16.34-15.46-9.54-31.58s21.56-13.83,24-19.1c.71-1.52-19-47.27,32.34-55,22.24-3.36,38.26,14.72,39.41,14.59,4.68-.52,30.8-18.72,60.26-2.86s24.13,33.07,29.05,35.15,22.4-10.2,59.63,7.73,45,65.63,60.44,67.71c15,2,58.69-1.34,62.44,21.63Z" transform="translate(-8.14 -79)"/><path class="cls-8" d="M48.43,408A4.51,4.51,0,0,1,44,403.51V269.05H239V403.51a4.51,4.51,0,0,1-4.43,4.48Z" transform="translate(-8.14 -79)"/><path class="cls-9" d="M234,274.05V403H49V274.05H234m10-10H39V403.51A9.49,9.49,0,0,0,48.43,413H234.57a9.5,9.5,0,0,0,9.43-9.48V264.05Z" transform="translate(-8.14 -79)"/><path class="cls-10" d="M48.52,243.92h186a9.54,9.54,0,0,1,9.52,9.52v10.61H39V253.44a9.54,9.54,0,0,1,9.52-9.52Z" transform="translate(-8.14 -79)"/><path class="cls-11" d="M51.11,250.89a3.1,3.1,0,0,0,0,6.19,3.1,3.1,0,1,0,0-6.19Z" transform="translate(-8.14 -79)"/><path class="cls-11" d="M63.41,250.89a3.1,3.1,0,1,0,3.1,3.1A3.11,3.11,0,0,0,63.41,250.89Z" transform="translate(-8.14 -79)"/><path class="cls-11" d="M75.66,250.89a3.1,3.1,0,0,0,0,6.19,3.1,3.1,0,1,0,0-6.19Z" transform="translate(-8.14 -79)"/><path class="cls-8" d="M222.32,265.75a4.44,4.44,0,0,1-4.43-4.43V126.81H412.94V261.32a4.51,4.51,0,0,1-4.47,4.43Z" transform="translate(-8.14 -79)"/><path class="cls-12" d="M407.94,131.81V260.75h-185V131.81H407.94m10-10h-205V261.32a9.45,9.45,0,0,0,9.43,9.43H408.47a9.49,9.49,0,0,0,9.47-9.43V121.81Z" transform="translate(-8.14 -79)"/><path class="cls-10" d="M222.41,101.68h186a9.6,9.6,0,0,1,9.57,9.57v10.56h-205V111.25a9.55,9.55,0,0,1,9.52-9.57Z" transform="translate(-8.14 -79)"/><path class="cls-11" d="M225.05,108.65a3.1,3.1,0,1,0,3,3.1A3.09,3.09,0,0,0,225.05,108.65Z" transform="translate(-8.14 -79)"/><path class="cls-11" d="M237.3,108.65a3.1,3.1,0,1,0,3.1,3.1A3.13,3.13,0,0,0,237.3,108.65Z" transform="translate(-8.14 -79)"/><path class="cls-11" d="M249.6,108.65a3.1,3.1,0,1,0,3.05,3.1A3.1,3.1,0,0,0,249.6,108.65Z" transform="translate(-8.14 -79)"/><path class="cls-8" d="M278,475.67a4.44,4.44,0,0,1-4.43-4.43V336.73H468.6V471.24a4.51,4.51,0,0,1-4.48,4.43Z" transform="translate(-8.14 -79)"/><path class="cls-13" d="M463.6,341.73V470.67h-185V341.73H463.6m10-10h-205V471.24a9.45,9.45,0,0,0,9.43,9.43H464.12a9.5,9.5,0,0,0,9.48-9.43V331.73Z" transform="translate(-8.14 -79)"/><path class="cls-10" d="M278.07,311.65H464a9.59,9.59,0,0,1,9.57,9.52v10.56h-205V321.17a9.54,9.54,0,0,1,9.52-9.52Z" transform="translate(-8.14 -79)"/><path class="cls-11" d="M280.71,318.62a3.07,3.07,0,1,0,3.05,3.05A3.06,3.06,0,0,0,280.71,318.62Z" transform="translate(-8.14 -79)"/><path class="cls-11" d="M293,318.62a3.07,3.07,0,1,0,3.1,3.05A3.09,3.09,0,0,0,293,318.62Z" transform="translate(-8.14 -79)"/><path class="cls-11" d="M305.26,318.62a3.07,3.07,0,1,0,3.05,3.05A3.06,3.06,0,0,0,305.26,318.62Z" transform="translate(-8.14 -79)"/><path class="cls-10" d="M89.19,206.66a5.33,5.33,0,0,1-5.33-5.32V172.91a5.33,5.33,0,0,1,5.33-5.32H175a5.36,5.36,0,0,1,5.33,5.32v28.43a5.36,5.36,0,0,1-5.33,5.32Z" transform="translate(-8.14 -79)"/><path class="cls-14" d="M136.08,182.89h7.43a1.92,1.92,0,0,1,1.91,1.91h0a1.93,1.93,0,0,1-1.91,2h-.73a1.92,1.92,0,0,1,1.91,1.91h0a1.92,1.92,0,0,1-1.91,1.92h-.73A1.92,1.92,0,0,1,144,192.5h0a1.93,1.93,0,0,1-1.91,2h-.73a1.92,1.92,0,0,1,1.92,1.91h0a1.92,1.92,0,0,1-1.92,1.91H126.2a2,2,0,0,1-2-1.95V184.85a2,2,0,0,1,2-2h2.87a2.38,2.38,0,0,0,2.19-2.37v-3a2.42,2.42,0,0,1,2.41-2.41h0a2.42,2.42,0,0,1,2.41,2.41Z" transform="translate(-8.14 -79)"/><path class="cls-15" d="M122.33,182.07h4.42a.82.82,0,0,1,.82.82v15.39a.82.82,0,0,1-.82.82h-4.42a.85.85,0,0,1-.87-.82V182.89a.85.85,0,0,1,.87-.82Z" transform="translate(-8.14 -79)"/><path class="cls-10" d="M526.27,148.05h13.78a5.34,5.34,0,0,0,5.33-5.33V114.3a5.33,5.33,0,0,0-5.33-5.33H454.28A5.36,5.36,0,0,0,449,114.3v28.42a5.37,5.37,0,0,0,5.32,5.33H504.6S526.26,148.26,526.27,148.05Z" transform="translate(-8.14 -79)"/><path class="cls-14" d="M484.89,125.91A3.08,3.08,0,1,0,488,129,3.1,3.1,0,0,0,484.89,125.91Z" transform="translate(-8.14 -79)"/><path class="cls-14" d="M497.19,125.91a3.08,3.08,0,1,0,3.05,3.05A3.07,3.07,0,0,0,497.19,125.91Z" transform="translate(-8.14 -79)"/><path class="cls-14" d="M509.44,125.91a3.08,3.08,0,1,0,3.1,3.05A3.09,3.09,0,0,0,509.44,125.91Z" transform="translate(-8.14 -79)"/><path class="cls-16" d="M119.89,114h57a3.4,3.4,0,0,1,3.37,3.37v29.7a3.39,3.39,0,0,1-3.37,3.37h-57a3.36,3.36,0,0,1-3.37-3.37v-29.7a3.37,3.37,0,0,1,3.37-3.37Z" transform="translate(-8.14 -79)"/><path class="cls-17" d="M150.45,134.7a3.58,3.58,0,0,1-2,.69,3.26,3.26,0,0,1-2-.64h0l0-.05-27-20.68h57.94Z" transform="translate(-8.14 -79)"/><path class="cls-10" d="M454.8,247.94v-4.79a5.28,5.28,0,0,1,5.28-5.28h85.81a5.27,5.27,0,0,1,5.28,5.28v28.47a5.28,5.28,0,0,1-5.28,5.28H460.08a5.29,5.29,0,0,1-5.28-5.28V247.94Z" transform="translate(-8.14 -79)"/><path class="cls-14" d="M496.25,253.17a4.11,4.11,0,0,1,2.73,1l6.6-3.78a5,5,0,0,1-.09-.77,4.22,4.22,0,1,1,8.43,0,4.21,4.21,0,0,1-6.93,3.19l-6.6,3.82a3.71,3.71,0,0,1,.09.78,3.55,3.55,0,0,1-.09.72L507,262a4.12,4.12,0,0,1,2.74-1,4.21,4.21,0,0,1,0,8.42,4.25,4.25,0,0,1-4.24-4.23,6,6,0,0,1,.09-.78l-6.6-3.78a4.12,4.12,0,0,1-2.73,1,4.22,4.22,0,1,1,0-8.43Z" transform="translate(-8.14 -79)"/><path class="cls-16" d="M503,181.48a2.42,2.42,0,0,1,2.27,1.59h0l4,11.16,11.84.37h0a2.44,2.44,0,0,1,1.42,4.37h0l-9.34,7.24,3.28,11.39h0a2.44,2.44,0,0,1-.91,2.64,2.41,2.41,0,0,1-2.78,0h0L503,213.64l-9.8,6.65h0a2.41,2.41,0,0,1-3.68-2.69h0l3.27-11.39L483.45,199h0a2.35,2.35,0,0,1-.82-2.69,2.43,2.43,0,0,1,2.23-1.68h0l11.8-.37,4-11.16h0a2.43,2.43,0,0,1,2.28-1.59Z" transform="translate(-8.14 -79)"/><rect class="cls-9" x="254.54" y="79.74" width="103.86" height="59.83" rx="24.57"/><path class="cls-12" d="M325.41,191l-13.26,8.4a2.76,2.76,0,0,1-4.24-2.34V180.26a2.77,2.77,0,0,1,4.24-2.34l13.26,8.4A2.76,2.76,0,0,1,325.41,191Z" transform="translate(-8.14 -79)"/><path class="cls-14" d="M98.66,290.72l86.29-.18a5.71,5.71,0,0,1,5.73,5.72l.25,86.31a5.71,5.71,0,0,1-5.72,5.72l-86.31.26a5.68,5.68,0,0,1-5.72-5.72l-.26-86.31a5.76,5.76,0,0,1,5.74-5.8Z" transform="translate(-8.14 -79)"/><path class="cls-16" d="M190.92,379.69v2.88a5.71,5.71,0,0,1-5.72,5.72l-86.31.26a5.68,5.68,0,0,1-5.72-5.72l0-2.81,21.7-26.95a5.43,5.43,0,0,1,7.6-.79,4.67,4.67,0,0,1,.86.86l5.17,6.35,18.67-23.16a5.51,5.51,0,0,1,7.67-.77,7.71,7.71,0,0,1,.87.85Z" transform="translate(-8.14 -79)"/><path class="cls-16" d="M123.06,304.11a11.34,11.34,0,0,1,.07,22.67,11.34,11.34,0,1,1-.07-22.67Z" transform="translate(-8.14 -79)"/><path class="cls-13" d="M403.44,396l-6.71-3.67a2.32,2.32,0,0,0-3.44,2V420h-4.65a9.26,9.26,0,1,0,9.3,9.25v-31L401.2,400a11.52,11.52,0,0,1,6,10.11v5a2.32,2.32,0,1,0,4.64,0v-5A16.18,16.18,0,0,0,403.44,396Z" transform="translate(-8.14 -79)"/><path class="cls-12" d="M384.08,406.18c0-16.23-.05-3.62-.05-35.26a2.33,2.33,0,0,0-2.78-2.28L352,374.49a2.33,2.33,0,0,0-1.87,2.28v24.17h-6.5A11.09,11.09,0,1,0,354.76,412V390.36l24.62-4.9v9.63h-6.45a11.1,11.1,0,1,0,11.15,11.09Z" transform="translate(-8.14 -79)"/><path class="cls-18" d="M115.36,371.29a2.5,2.5,0,0,0-2.66-2.6c-1.49.13-2.89,1.42-4,2.28a13.64,13.64,0,0,0-3.45,3.37c-.49.77-8.09,15.58-12.54,18.54-.07-.13-.14-.25-.2-.38-1.14-2.15-1.54-2.87-2.68-5C89,386,85.4,373.93,85.1,372.92a15.32,15.32,0,0,0-7.82-9.4,20.94,20.94,0,0,0-10.2-2c-4.7.41-6.58,1.36-6.71,1.54a13.7,13.7,0,0,0-3,2.1c-1.53,1.41-11.11,15.44-13.46,21.42-1.95,5-4.13,10.87-3.59,16.3.34,3.38,2.9,5.6,6.36,4.76,2.43-.6,4.82-2.28,6.88-3.64a54.3,54.3,0,0,0,13.33-12.64,69.48,69.48,0,0,1,7.91-.61c1.14,0,2.28,0,3.42,0,.46,0,1.33-2.27,1.81-2.23,2.6,5.16,3.86,9.65,7.9,13.82s7.9,1.49,9.09.09c2.69-3.18,4.65-7.18,6.48-10.9,2-4,5.18-13.31,5-13.66l.06-.06a7.77,7.77,0,0,1,1.17-.63,12.24,12.24,0,0,0,3.95-2.19A5,5,0,0,0,115.36,371.29ZM57.47,392.1a2.59,2.59,0,0,1-.6,1.69A10.25,10.25,0,0,1,54,395.14l-1.66.69c-.49.2-1.41.8-1.95.73-2.4-.28,4-8.05,4.76-8.81.26-.27.67.12.46.4l.13-.1.14-.15a.3.3,0,0,1,.16-.08,7.51,7.51,0,0,1,1.42-.79.32.32,0,0,1,.39.3A36.18,36.18,0,0,1,57.47,392.1Z" transform="translate(-8.14 -79)"/><path class="cls-18" d="M72.71,515.38a6,6,0,0,1,3.41.06,44.74,44.74,0,0,0,4.16,2c1.16.56,2.83,1.07,3,2.53.11,1.24-.41,2.11-3.51,1.64-1-.14-5.28-.73-5.82-.82a1.48,1.48,0,0,1-1.12-1C72.67,519.57,72.8,517.33,72.71,515.38Z" transform="translate(-8.14 -79)"/><path class="cls-18" d="M52.82,443.48c-.27-1.76-3.52,2.68,0,0Z" transform="translate(-8.14 -79)"/><path class="cls-18" d="M54,442.56c-.45.38-.83.68-1.15.92a.28.28,0,0,1,0,.09l.05.55a1.87,1.87,0,0,1,1.39.1C54.22,443,54.12,442.43,54,442.56Z" transform="translate(-8.14 -79)"/><path class="cls-18" d="M66,444c.13-1.76-3.92-2.11-4.77-1.05a1.67,1.67,0,0,0-3.12,0,1.75,1.75,0,0,0-2.17.69,2,2,0,0,0-1.4.82,1.44,1.44,0,0,0-.31-.19c.42,10.42-2.85,66.2-2.34,70.82.1,2-.17,3,0,3.83a3,3,0,0,0,.3,1.26c.41.44.66.4,1.21.49s4.85.68,5.82.83c3.1.46,3.62-.41,3.51-1.65-.13-1.46-1.81-2-3-2.52-1.63-.78-2.52-1.17-3.14-1.47C56.69,515.75,65.26,454.33,66,444Z" transform="translate(-8.14 -79)"/><path class="cls-18" d="M69.56,440.05c.11-.41,3.74,2.26,3.93,4.44l.05.55a1.84,1.84,0,0,1,1.7.29,2,2,0,0,1,1.39-.82,1.74,1.74,0,0,1,2.17-.69,1.67,1.67,0,0,1,3.12,0c.86-1-.89-1-1,.76-.78,10.35-3.49,70-4,71.26-.91,2-4,1.61-4.1.48a8.79,8.79,0,0,1-.29-1C71.9,510.24,69.07,442,69.56,440.05Z" transform="translate(-8.14 -79)"/><path class="cls-19" d="M51.94,515.17c.07,1.87-.18,2.85,0,3.7a3,3,0,0,0,.3,1.26c.41.44.66.4,1.21.49s4.85.68,5.82.83c3.1.46,3.62-.41,3.51-1.65-.13-1.46-1.81-2-3-2.52-1.63-.78-2.52-1.17-3.14-1.47A18.35,18.35,0,0,0,51.94,515.17Z" transform="translate(-8.14 -79)"/><path class="cls-19" d="M72.47,515.39c.08,1.87-.18,2.85,0,3.7a2.88,2.88,0,0,0,.31,1.26c.4.44.66.4,1.2.49s4.86.68,5.82.83c3.1.46,3.62-.41,3.51-1.65-.13-1.45-1.8-2-3-2.52-1.62-.77-2.51-1.17-3.14-1.47A18.35,18.35,0,0,0,72.47,515.39Z" transform="translate(-8.14 -79)"/><path class="cls-18" d="M75.46,351.13a3,3,0,0,0-3.43.44l-.16.07c-3.72-1.21-6.88,7.09-8,11.08-.37,1.32,1.37.13,2.58.62a2.8,2.8,0,0,0,1.37.2,3.29,3.29,0,0,0,.44.16,2.89,2.89,0,0,0,1.47.63,2.71,2.71,0,0,0,3.92-1.66c.42-1.45,2.38-5.94,2.38-5.94a2.9,2.9,0,0,0,.35-1,2.44,2.44,0,0,0,.31-1.58A2.72,2.72,0,0,0,75.46,351.13Z" transform="translate(-8.14 -79)"/><path class="cls-20" d="M84.07,333.33c-3.4-2.48-9.46-3.54-13.08-.91a2.87,2.87,0,0,0-1,3.81,2.81,2.81,0,0,0,3.81,1c1.93-1.4,5.34-.68,7.13.67.8.61.71,1.38.52,2.3-.34,1.65-.82,3.28-1.24,4.92-.89,3.47,4.48,4.95,5.36,1.48a36.08,36.08,0,0,0,1.56-7.09A7,7,0,0,0,84.07,333.33Z" transform="translate(-8.14 -79)"/><path class="cls-18" d="M87.28,342.86c0-5.74-6.56-12.57-11.77-7.43A7.64,7.64,0,0,0,74,337.62a3.8,3.8,0,0,0-1.53,1.5,20.16,20.16,0,0,0-2.34,9.23,10.15,10.15,0,0,0,2.61,7.42,6.89,6.89,0,0,0,7.54,1.66C85.28,355.15,87.27,348,87.28,342.86Z" transform="translate(-8.14 -79)"/><path class="cls-21" d="M84.39,334.4a11.54,11.54,0,0,0-7.79-1.6,5.26,5.26,0,0,0-1.37.46A2.5,2.5,0,0,0,72.34,332c-3.4.84-4.46,3.79-5.67,6.63-1.76.54-3.91.21-5.67.46a9.93,9.93,0,0,0-7.19,4.5,8.83,8.83,0,0,0,.35,9.73,14.17,14.17,0,0,0,6,4.23,14.09,14.09,0,0,0,1.08,1.57,6.4,6.4,0,0,0,10-.64,23.65,23.65,0,0,0,2.8-6.18c.25-.71.48-1.42.68-2.14a18.19,18.19,0,0,1,4.21-7.7c1.36-1.45,4.92-2.58,6.84-3.2C87.89,338.6,86.41,335.58,84.39,334.4Z" transform="translate(-8.14 -79)"/><path class="cls-22" d="M85.1,372.92a15.4,15.4,0,0,0-6.11-8.4c-1.47,1.39-3.79,2.65-7.62,1.81a14.13,14.13,0,0,1-4.79-1.8,14.72,14.72,0,0,1-2.87-2.6A8.48,8.48,0,0,0,60.38,363a13.52,13.52,0,0,0-3,2.1c-1.24,1.15-7.77,10.58-11.45,17.3a1.63,1.63,0,0,0,.82,2.29,60.36,60.36,0,0,1,7,3.61,2,2,0,0,0,2.08-.1l.33-.18c.05,2.78.23,8.31.63,9.22.82,1.89,2.81-4.69,4.41-5.83,2-1.38,1.63-3.82,2.21-5.87.66-2.36,2.18-4.37,2.79-6.76a1.94,1.94,0,0,0,0-.75,2,2,0,0,0-1.14-2.28c0-.11.12-.22.17-.33a34.53,34.53,0,0,0,5.5,1.68,2.65,2.65,0,0,0,3,1.29c.81-.19,1.63-.39,2.46-.56l1.11,0,0,0a3,3,0,0,0,.51,4.38c-.08.11-.17.21-.25.33a2.62,2.62,0,0,0-.08,2.64l-.87.88a2.82,2.82,0,0,0-.58,2.89,2.91,2.91,0,0,0,.35,1.67h0l1.78,0c.45,0,1.32-2.27,1.8-2.23.42.84.85,1.74,1.28,2.68,2.33-1.13,4.66-2.27,7-3.44a1.62,1.62,0,0,0,.81-2C87.81,382,85.35,373.74,85.1,372.92Z" transform="translate(-8.14 -79)"/><path class="cls-23" d="M85.92,485.31c0-5.75-.82-63-1.88-74.7-.39-4.4-2.16-11.21-2.29-15.57-.16-5.37.21-9.82.3-13.93a35.22,35.22,0,0,0,.29-7.88,36.48,36.48,0,0,0-.74-5c-.07-.3-.23-1-.45-1.91,0-.08-.05-.09-.05-.09a14,14,0,0,0-1.77-1.53,17.69,17.69,0,0,0-1.57-1s0,.14,0,.2c.69,2.83,1.39,6.41,1.45,6.8a31.83,31.83,0,0,1,.39,4v.16a1.8,1.8,0,0,0-.39-.08,117.09,117.09,0,0,0-11.81.17,17.73,17.73,0,0,0-.76-5.73c-.84-2.65-2.55-5.5-5.11-6.68l-.19-.09a6.86,6.86,0,0,0-2.29,1.24c-.73.53-1.32,1-1.32,1s.6,0,1.21.06c3.16.11,4.82,4,5.37,6.54a17.39,17.39,0,0,1,.24,5.14c-.4,2.52-4.62,21.59-6.36,24.36a30.52,30.52,0,0,0-4.1,10.29c-2.24,12.68-3.29,21.7-3.69,24.9C49,447.81,39.83,483.38,39.23,485.81c-.45,1.78-1.5,5.41,3.23,7.5,1.28.57,10.27.66,11.84.65l8.84-.09c3,0,19.73.46,21.48-1.54S85.92,487.62,85.92,485.31Z" transform="translate(-8.14 -79)"/><path class="cls-21" d="M59.91,363.24l.08.11c2.36,4.16,1.92,9.15,1.34,13.73-.73,5.63-3.12,19.26-4.23,24.83-.31,1.57,2.1,2.25,2.42.66,1.18-5.93,3.62-19.93,4.37-25.94.59-4.8.79-9.89-1.57-14.25l-.07-.11a6.47,6.47,0,0,0-1.27.37C60.71,362.78,59.91,363.24,59.91,363.24Z" transform="translate(-8.14 -79)"/><path class="cls-21" d="M61.28,398.17c-2.48,2.05-5.54,4.32-5.61,4.33h0c-.68.5-1.37,1-2.07,1.45-2.06,1.36-4.45,3-6.88,3.64a5.76,5.76,0,0,1-2.12.13,59.37,59.37,0,0,0-3.72,12.88,60.73,60.73,0,0,0-.86,8.52c-.06,2.24-.23,4.85,1.19,6.74,1.62,2.16,4.66,2.27,7.13,2.17A32.72,32.72,0,0,0,56,437a8.48,8.48,0,0,0,5.49-4.51,31.7,31.7,0,0,0,2.06-7.5A74.48,74.48,0,0,0,65,407.45C64.85,404.17,63.92,400.06,61.28,398.17Z" transform="translate(-8.14 -79)"/><path class="cls-18" d="M71.9,385.82c-3.25-2.33-7.51,3.17-8.07,3.65-3.34,2.85-7.44,4.5-10.78,7.35A1.69,1.69,0,0,0,53,399.2a1.79,1.79,0,0,0,.58,2.82,1.78,1.78,0,0,0,2.13.48,86.44,86.44,0,0,0,8.38-6.81,31.14,31.14,0,0,1,6.28-4.38c1-.55,2.17-1,2.6-2.19A2.83,2.83,0,0,0,71.9,385.82Z" transform="translate(-8.14 -79)"/><path class="cls-21" d="M115.11,366.33c-.08-1-1.24-1.54-2.13-1.78a1.66,1.66,0,0,0-2,.68c-2,4.32-4.48,8.67-5.5,13.36a.71.71,0,0,0,.48.86c1,.39,2.16.62,3-.23a17.61,17.61,0,0,0,2.43-4.1q1.25-2.33,2.3-4.74C114.22,369.21,115.22,367.64,115.11,366.33Z" transform="translate(-8.14 -79)"/><path class="cls-18" d="M114.92,370.77v-1a.73.73,0,0,0-.7-.7,6.83,6.83,0,0,0-4.68,1.33,3.26,3.26,0,0,0-1.41,1.84,5.69,5.69,0,0,0,.09,1,1.13,1.13,0,0,1,0,.26c-.56.8-1.11,2.14-.57,3.08s1.59.78,2.37.52c2.22-.76,3.84-3.11,4.7-5.17a.53.53,0,0,0-.11-.58A.64.64,0,0,0,114.92,370.77Z" transform="translate(-8.14 -79)"/><path class="cls-24" d="M517.14,439h5.07a12,12,0,0,1,10.95,7.13L538,457l-10,4.8,3.21,2.17L533,480.44l-36.81-.62-1.39-41.11,22.19.49Z" transform="translate(-8.14 -79)"/><path class="cls-25" d="M513.11,430.62a47.5,47.5,0,0,0,1.16,7.05c.54,1.49,2.87,1.28,2.87,1.28s-1.79,7.86-8.37,7.86-7.59-6.74-7.59-6.74l4.67-.72-2.16-7.18Z" transform="translate(-8.14 -79)"/><path class="cls-25" d="M515.78,419.63l-1.51-8.87-15.34,6.84.93,5.19s1.19,12.64,9.35,11.14C518.05,432.3,516.17,419.51,515.78,419.63Z" transform="translate(-8.14 -79)"/><path class="cls-25" d="M538,457l2.07,7.35a14.86,14.86,0,0,1-4.18,14.91l-9.39,7.88-3-8.82,5.2-5.21a6,6,0,0,0,1.29-6.51l-2-4.8Z" transform="translate(-8.14 -79)"/><path class="cls-25" d="M487.83,458.86l-1.15,3.58a18.73,18.73,0,0,0,4.22,18.62l5.71,6L499.55,473l-8.13-14.12Z" transform="translate(-8.14 -79)"/><polygon class="cls-24" points="478.54 383.44 483.67 386.4 484.53 377.91 479.95 377.91 478.54 383.44"/><path class="cls-26" d="M499.87,423.34c9.86,2.08,15-8.45,15-8.45a31.12,31.12,0,0,0,1.07,5.23c3.32-4.3,1.15-9.73,1.15-9.73s-2.68-5.92-14.64-3c-13.95,3.39-16.27,22.55-16.27,22.55s-1,4.17,2.57,10.86a5.47,5.47,0,0,1-.35,5.92,12.45,12.45,0,0,0-2.22,8.7,6.67,6.67,0,0,0,2.43,4.14,6.91,6.91,0,0,1,2,7.21c-1.71,5.12-.25,8-.25,8s.93,3.29,6,3.49c7.45.29,7.3-5.63,6.63-9a4,4,0,0,1,.94-3.54,7.41,7.41,0,0,0,2-4.75,11.44,11.44,0,0,0-1.44-5.28,6,6,0,0,1,.49-6.24c1.91-2.58,4.36-7.72,3-11.06C505.61,432.81,501.64,430.93,499.87,423.34Z" transform="translate(-8.14 -79)"/><rect class="cls-27" x="486.61" y="387.99" width="37.29" height="22.31"/><rect class="cls-28" x="486.61" y="409.38" width="37.29" height="1.86"/><path class="cls-29" d="M511.9,476.1a1.49,1.49,0,1,0,1.49-1.49A1.49,1.49,0,0,0,511.9,476.1Z" transform="translate(-8.14 -79)"/><path class="cls-23" d="M558.72,483.35c4.81,14.44-58.91,20.9-58.91,20.9l-1.52-8.16S553.92,468.91,558.72,483.35Z" transform="translate(-8.14 -79)"/><polygon class="cls-25" points="487.82 425.22 478.68 425.76 476.95 423.86 477.83 420.42 486.47 419.17 487.82 425.22"/><path class="cls-30" d="M486.82,499.3l-9.3-1.13a19.19,19.19,0,0,0-6.81-.42v8.44a22.45,22.45,0,0,0,4.8,0l11.31-1.4-.13-.19A4.69,4.69,0,0,1,486.82,499.3Z" transform="translate(-8.14 -79)"/><path class="cls-29" d="M466,501.47c.62-2.39,2.62-3.38,4.77-3.73v8.46C468,505.88,465.11,504.78,466,501.47Z" transform="translate(-8.14 -79)"/><line class="cls-31" x1="473.66" y1="420.91" x2="473.66" y2="424.54"/><rect class="cls-29" x="473.19" y="420.91" width="0.93" height="3.63"/><line class="cls-31" x1="471.36" y1="420.91" x2="471.36" y2="424.54"/><rect class="cls-29" x="470.9" y="420.91" width="0.93" height="3.63"/><polygon class="cls-32" points="490.15 415.85 491.86 426.38 487.83 427.16 485.81 417.09 490.15 415.85"/><path class="cls-25" d="M515.76,420c-.41,1.07-.16,2.16.55,2.44s1.63-.37,2-1.44.17-2.16-.55-2.44S516.17,418.94,515.76,420Z" transform="translate(-8.14 -79)"/><path class="cls-19" d="M466.08,483.35c-4.8,14.44,58.91,20.9,58.91,20.9l1.52-8.16S470.88,468.91,466.08,483.35Z" transform="translate(-8.14 -79)"/><polygon class="cls-25" points="520.71 425.22 529.85 425.76 531.58 423.86 530.7 420.42 522.06 419.17 520.71 425.22"/><path class="cls-30" d="M554.13,497.76a19,19,0,0,0-6.85.41L538,499.3a4.69,4.69,0,0,1,.13,5.27l-.13.19,11.31,1.4a22.83,22.83,0,0,0,4.84,0Z" transform="translate(-8.14 -79)"/><path class="cls-29" d="M558.82,501.47c-.62-2.39-2.61-3.38-4.77-3.73v8.46C556.85,505.88,559.69,504.78,558.82,501.47Z" transform="translate(-8.14 -79)"/><line class="cls-31" x1="534.87" y1="420.91" x2="534.87" y2="424.54"/><rect class="cls-29" x="534.41" y="420.91" width="0.93" height="3.63"/><line class="cls-31" x1="537.17" y1="420.91" x2="537.17" y2="424.54"/><rect class="cls-29" x="536.7" y="420.91" width="0.93" height="3.63"/><polygon class="cls-32" points="518.38 415.85 516.67 426.38 520.7 427.16 522.72 417.09 518.38 415.85"/><path class="cls-33" d="M590,463.31a229.61,229.61,0,0,0-57.31-5.14c-43.77,1.34-86.57,12.65-129.3,22.41-48.27,11-97.3,20.15-146.77,20.23s-99.72-9.26-143.15-33.35c-23.57-13.07-46.82-34-47.68-61.32-.56-18,9-34.88,21.09-48.06,6.41-7,14-13.47,23.1-15.81s20.06.49,25,8.67c5.56,9.34,1.27,22.17-6.89,29.26-14.55,12.63-38,9.73-52.66-2.82s-21.49-32.32-23.49-51.66c-1.56-15-.3-31.05,8-43.51,8.55-12.79,23.41-20,38.35-22.81s30.28-1.92,45.48-1.83c61.61.36,125.52-14.37,173.12-54.17,14.4-12,28.11-30.1,22.78-48.26-1.82-6.19-5.73-11.57-10.34-16-10.8-10.44-26.39-16.25-41-13.21s-27.27,15.89-28.39,31,11.11,30.53,26,30.83c12.1.25,22.85-8.55,29.15-19.05,11.81-19.69,10.63-46.61-2.85-65.15S273.78,76,251.81,81.71" transform="translate(-8.14 -79)"/></svg>