<svg width="22" height="20" viewBox="0 0 22 20" fill="none" xmlns="http://www.w3.org/2000/svg">
<path d="M1.82252 1.80208C4.21498 -0.600602 8.10911 -0.600602 10.5023 1.80154L11 2.30036L11.4971 1.80176C13.8906 -0.600693 17.7842 -0.600421 20.1777 1.80176C21.3528 2.98143 22 4.54613 22 6.20721C22 7.86882 21.3528 9.43326 20.1775 10.6134L11.5314 19.2763C11.3826 19.4256 11.1912 19.5 11 19.5C10.8088 19.5 10.6176 19.4253 10.4686 19.276L1.82252 10.6134C0.647409 9.43353 0 7.86887 0 6.20748C0 4.54614 0.647409 2.9817 1.82252 1.80208ZM2.88625 9.43217L11 17.5619L19.1135 9.43244C19.9794 8.5635 20.4561 7.41807 20.4561 6.20748C20.4561 4.99689 19.9794 3.85146 19.1135 2.98252C18.2103 2.07552 17.0241 1.62232 15.8377 1.62232C14.651 1.62232 13.4643 2.07607 12.5611 2.98306L11.5319 4.01471C11.2339 4.31368 10.7664 4.31368 10.4684 4.01471L9.4389 2.98252C7.63232 1.1688 4.69309 1.1688 2.88651 2.98252C2.02091 3.85151 1.54387 4.99689 1.54387 6.20748C1.54387 7.41807 2.0209 8.56323 2.88625 9.43217Z" fill="#F8AF2C"/>
</svg>
