<svg width="204" height="172" viewBox="0 0 204 172" fill="none" xmlns="http://www.w3.org/2000/svg">
<path d="M178.841 94.684L63.5377 167.584L16.2461 77.9518L131.549 5.05151L178.841 94.684ZM65.647 159.427L171.332 92.6076L129.316 12.9735L23.6307 79.7929L65.647 159.427Z" fill="#96A5BC"/>
<path d="M136.961 0.655409L9.46094 80.528L12.1 85.4871L139.6 5.61453L136.961 0.655409Z" fill="#96A5BC"/>
<path d="M182.911 86.8757L55.4102 166.748L58.0492 171.707L185.55 91.8348L182.911 86.8757Z" fill="#96A5BC"/>
<path d="M122.988 127.883L118.109 130.96L127.174 148.101L132.052 145.024L122.988 127.883Z" fill="#96A5BC"/>
<path d="M140.089 166.262C138.016 167.574 135.647 168.209 133.284 168.087C130.921 167.966 128.668 167.093 126.812 165.579C124.955 164.065 123.577 161.979 122.853 159.583C122.129 157.188 122.091 154.591 122.744 152.121C123.396 149.651 124.71 147.419 126.519 145.707C128.329 143.995 130.552 142.88 132.908 142.504C135.264 142.127 137.647 142.505 139.756 143.59C141.865 144.676 143.605 146.42 144.755 148.601C146.298 151.527 146.674 155.031 145.799 158.343C144.924 161.655 142.87 164.504 140.089 166.262ZM131.129 149.274C130.02 149.976 129.118 151.007 128.538 152.238C127.958 153.47 127.725 154.845 127.87 156.192C128.014 157.538 128.528 158.794 129.348 159.801C130.168 160.809 131.256 161.522 132.476 161.851C133.695 162.18 134.99 162.11 136.198 161.65C137.405 161.19 138.471 160.36 139.26 159.266C140.049 158.171 140.526 156.861 140.63 155.502C140.735 154.142 140.462 152.794 139.847 151.627C139.021 150.063 137.639 148.936 136.004 148.495C134.37 148.053 132.616 148.334 131.129 149.274Z" fill="#96A5BC"/>
<path d="M122.215 32.8673L90.2812 52.9415L92.9266 57.9285L124.86 37.8543L122.215 32.8673Z" fill="#96A5BC"/>
<path d="M131.403 50.1109L99.4688 70.1852L102.114 75.1722L134.048 55.0979L131.403 50.1109Z" fill="#96A5BC"/>
<path d="M140.594 67.3551L108.66 87.4292L111.306 92.4162L143.239 72.3421L140.594 67.3551Z" fill="#96A5BC"/>
<path d="M149.821 84.5655L70.1016 134.517L72.0252 138.133L151.744 88.181L149.821 84.5655Z" fill="#96A5BC"/>
<path d="M98.1836 30.6388L67.0592 29.0741L52.7445 59.3191L47.8468 56.7961L63.8456 22.9929L98.6317 24.7416L98.1836 30.6388Z" fill="#96A5BC"/>
<path d="M79.3354 112.093C75.654 114.421 71.4494 115.549 67.2533 115.333C63.0573 115.117 59.0583 113.567 55.762 110.88C52.4656 108.192 50.0201 104.488 48.7346 100.235C47.449 95.9816 47.3813 91.371 48.5398 86.9858C49.6984 82.6006 52.0312 78.6379 55.2433 75.5986C58.4555 72.5594 62.4026 70.5802 66.5857 69.9114C70.7687 69.2426 74.9997 69.9141 78.7437 71.841C82.4877 73.768 85.5765 76.8639 87.6195 80.7371C88.976 83.3089 89.8378 86.1599 90.1556 89.1275C90.4734 92.0951 90.2411 95.1211 89.4718 98.0328C88.7026 100.944 87.4115 103.685 85.6723 106.097C83.9331 108.51 81.7798 110.547 79.3354 112.093ZM61.3831 78.0575C58.6663 79.7757 56.4577 82.3029 55.0364 85.3195C53.6151 88.3361 53.0451 91.7066 53.3983 95.0049C53.7515 98.3031 55.0122 101.381 57.0209 103.849C59.0295 106.317 61.696 108.065 64.6831 108.871C67.6702 109.677 70.8437 109.506 73.8023 108.378C76.761 107.251 79.3719 105.218 81.3048 102.536C83.2378 99.8553 84.4061 96.6462 84.6619 93.315C84.9176 89.9839 84.2495 86.6803 82.7418 83.822C80.7201 79.9892 77.3341 77.2286 73.3285 76.1475C69.323 75.0665 65.0261 75.7535 61.3831 78.0575Z" fill="#96A5BC"/>
<path d="M86.2936 84.8347L67.736 96.5714L57.4375 77.0469L62.2591 73.9975L69.8819 88.4492L83.6179 79.7619L86.2936 84.8347Z" fill="#96A5BC"/>
</svg>
