<svg width="36" height="36" viewBox="0 0 36 36" fill="none" xmlns="http://www.w3.org/2000/svg">
<path d="M18 31.5C25.4558 31.5 31.5 25.4558 31.5 18C31.5 10.5442 25.4558 4.5 18 4.5C10.5442 4.5 4.5 10.5442 4.5 18C4.5 25.4558 10.5442 31.5 18 31.5Z" stroke="#285AA5" stroke-width="2" stroke-miterlimit="10"/>
<path d="M18 22.4999C21.1066 22.4999 23.625 19.9815 23.625 16.8749C23.625 13.7683 21.1066 11.2499 18 11.2499C14.8934 11.2499 12.375 13.7683 12.375 16.8749C12.375 19.9815 14.8934 22.4999 18 22.4999Z" fill="#E5EEFF" stroke="#285AA5" stroke-width="2" stroke-miterlimit="10"/>
<path d="M8.97266 28.0371C9.82008 26.3709 11.112 24.9718 12.7055 23.9945C14.2989 23.0173 16.1316 22.5 18.0009 22.5C19.8701 22.5 21.7029 23.0173 23.2963 23.9945C24.8898 24.9718 26.1817 26.3708 27.0292 28.0369" stroke="#285AA5" stroke-width="2" stroke-linecap="round" stroke-linejoin="round"/>
</svg>
