<svg width="20" height="14" viewBox="0 0 20 14" fill="none" xmlns="http://www.w3.org/2000/svg">
<path d="M1.77938 13.64C1.40604 13.64 1.11271 13.5067 0.899375 13.24C0.686042 12.9733 0.579375 12.68 0.579375 12.36C0.579375 11.88 0.686042 11.4 0.899375 10.92L4.33938 1.88C4.60604 1.29333 4.87271 0.866663 5.13938 0.599997C5.45938 0.33333 5.88604 0.199997 6.41937 0.199997H7.77938C8.20604 0.199997 8.52604 0.359996 8.73938 0.679996C8.95271 0.999998 9.00604 1.4 8.89938 1.88L7.37938 11.48C7.21938 12.92 6.55271 13.64 5.37938 13.64H1.77938ZM12.4994 13.64C12.126 13.64 11.8327 13.5067 11.6194 13.24C11.406 12.9733 11.2994 12.68 11.2994 12.36C11.2994 11.88 11.406 11.4 11.6194 10.92L15.0594 1.88C15.326 1.29333 15.5927 0.866663 15.8594 0.599997C16.1794 0.33333 16.606 0.199997 17.1394 0.199997H18.4994C18.926 0.199997 19.246 0.359996 19.4594 0.679996C19.6727 0.999998 19.726 1.4 19.6194 1.88L18.0994 11.48C17.9394 12.92 17.2727 13.64 16.0994 13.64H12.4994Z" fill="#FFB124"/>
</svg>
