<svg id="Capa_1" data-name="Capa 1" xmlns="http://www.w3.org/2000/svg" viewBox="0 0 590.29 478.74"><defs><style>.cls-1,.cls-6{fill:#fcf3e8;}.cls-2{fill:#f9e1c5;}.cls-3{fill:#f9dbcd;}.cls-4{fill:#f9bca5;}.cls-5{fill:#f9d3d2;}.cls-6{fill-rule:evenodd;}.cls-7{fill:#feb125;}.cls-8{fill:#1d58b4;}.cls-11,.cls-12,.cls-13,.cls-29,.cls-30,.cls-32,.cls-33,.cls-9{fill:none;}.cls-9{stroke:#7f5613;}.cls-13,.cls-29,.cls-30,.cls-32,.cls-33,.cls-9{stroke-miterlimit:10;}.cls-12,.cls-13,.cls-9{stroke-width:5px;}.cls-10{fill:#17467e;}.cls-11{stroke:#1d58b4;stroke-linejoin:round;stroke-width:25px;}.cls-11,.cls-12,.cls-13{stroke-linecap:round;}.cls-12{stroke:#fff;}.cls-13,.cls-33{stroke:#feb125;}.cls-14{fill:#992e00;}.cls-15{fill:#201854;}.cls-16{fill:#d1d1d1;}.cls-17{fill:#2dc3d3;}.cls-18{fill:#3d3179;}.cls-19{fill:#ff4340;}.cls-20{fill:#feb17d;}.cls-21{fill:#e59b6a;}.cls-22{fill:#ff7c38;}.cls-23{fill:#ed692f;}.cls-24{fill:#ea682f;}.cls-25{fill:#0a4077;}.cls-26{fill:#084892;}.cls-27{fill:#ff403b;}.cls-28{fill:#7f5613;}.cls-29{stroke:#ffae0c;stroke-width:2px;stroke-dasharray:20 20 5;}.cls-30{stroke:#2e8eff;}.cls-30,.cls-32,.cls-33{stroke-width:10px;}.cls-31{fill:#2e8eff;}.cls-32{stroke:#084892;}.cls-34{fill:#e5eeff;}</style></defs><title>BringyourideasSVG</title><path class="cls-1" d="M180.44,449.12a58.7,58.7,0,0,0-8.73-10.46c-3.27-3.08-7-5.62-10.23-8.73-4.35-4.17-7.26-9.38-5-15.48,1.93-5.13,5.92-9.4,8.79-14,4.9-7.9,8.33-17.55,4-26.47-3.59-7.36-10.77-10.18-18.52-7.87-8.6,2.56-25.81,13.39-30.18-.89-1.58-5.15-1.09-11-1.4-16.34a145.85,145.85,0,0,0-1.76-16.54c-1.6-9.19-4.22-19.48-10.9-26.38-5.18-5.35-13.2-7.2-19.11-1.91-5.27,4.71-7.11,12.62-7.23,19.4a74.49,74.49,0,0,0,6.9,31.63c4.16,9.36,9.87,20.88,3.4,30.62-5.26,7.9-16.93,4.29-21.59,12.95-4.21,7.83-3.08,19.18-1.64,27.58A72.72,72.72,0,0,0,77.59,453c10.88,17,28.4,28.21,46,37.4,4.61,2.42,9.29,4.73,14,7a.65.65,0,0,0,.82-.16c11.28,10.45,30.15,11.34,42.15,1.48C195.75,486.2,189.86,463.54,180.44,449.12Z" transform="translate(-2.21 -59)"/><path class="cls-2" d="M165.76,503.79c-11.13-40-45.29-71.45-47.35-114.24-.18-3.81-6.06-3.17-5.88.63,2.09,43.47,36.43,75.18,47.71,115.73C161.26,509.57,166.78,507.44,165.76,503.79Z" transform="translate(-2.21 -59)"/><path class="cls-3" d="M164.07,520.78c8.2-63.18-39.27-99.25-114.3-98.52C53.75,480.77,97.67,541.84,164.07,520.78Z" transform="translate(-2.21 -59)"/><path class="cls-4" d="M164,522.14a1.28,1.28,0,0,1-.8-.28c-9.7-7.44-24.83-21.23-40.85-35.84C103,468.36,81.06,448.34,63.5,434.75a1.36,1.36,0,0,1,1.66-2.16c17.66,13.66,39.65,33.72,59.06,51.42,16,14.56,31.07,28.32,40.68,35.69a1.37,1.37,0,0,1,.25,1.91A1.34,1.34,0,0,1,164,522.14Z" transform="translate(-2.21 -59)"/><path class="cls-5" d="M76.63,302.73c-.17-5.57,4.7-9.38,10-9.55,5-.15,9,2.52,12.91,5.37A39.11,39.11,0,0,1,104.4,302l.8.53c3.33-6.41,15-23.91,19.93-12.54,4.36,10.16-8.68,19-17.4,18.5a2.41,2.41,0,0,1-1.72-1c-5.17,3.88-12.4,7.31-19,6.45A12.25,12.25,0,0,1,76.63,302.73Z" transform="translate(-2.21 -59)"/><path class="cls-5" d="M84.43,331.89c1.25-5.34,7.79-6.49,12.41-6.26a24.56,24.56,0,0,1,13.23,4.88c2-7.38,15.51-19.26,21.26-11.1,3,4.23-.79,9.09-4,11.85a26.19,26.19,0,0,1-16.21,6.23,16.74,16.74,0,0,1-3,2.65,17.6,17.6,0,0,1-16.94,1.8C87.35,340.3,83.35,336.54,84.43,331.89Z" transform="translate(-2.21 -59)"/><path class="cls-5" d="M95.16,366.07c5.91,5.72,18.14,7,24.48,1.13l0,0a2.13,2.13,0,0,0,2.17.21c6.83-3.13,19.61-6.58,20.83-15.7a7.29,7.29,0,0,0-7.19-8.65c-7.73-.37-13.06,8.06-15.64,14.1a25.13,25.13,0,0,1-1.57,3.07c-5.53-6.05-14.85-11.6-23-8.62C88.14,354.17,90.88,361.92,95.16,366.07Z" transform="translate(-2.21 -59)"/><path class="cls-5" d="M94.58,401.56c7.66,6.48,17.9.12,24-5.07,2.34-2,4.55-4.1,6.71-6.23a1.68,1.68,0,0,0,.78-.06c8.46,3.27,18.66,4.22,25.87-2.35,4.69-4.29,7.09-12.65.48-16.59-7.67-4.57-18.74,3.54-23.61,8.83-1.44,1.56-2.9,3.23-4.41,4.91-8.55-4.4-20.07-3.57-28.09,1.75C90.8,390.41,89.09,396.91,94.58,401.56Z" transform="translate(-2.21 -59)"/><path class="cls-5" d="M109.16,427.05c6.16,5.37,16.64,3.82,22.88-.56a23.82,23.82,0,0,0,6.18-6.88c11.53,4.38,35.59-11.48,21.26-20.87-6.95-4.55-14.42,4.21-18.35,9a74.86,74.86,0,0,0-4.5,6.43,1.67,1.67,0,0,0-.23-.23c-7.42-4.85-18.37-7.2-26.06-1.43C105.23,416.37,104.07,422.61,109.16,427.05Z" transform="translate(-2.21 -59)"/><path class="cls-5" d="M121.24,462.21c6.69,5.28,18.34,1.05,23.91-3.76a22.72,22.72,0,0,0,4.85-6.17c7.57,1.5,16.53,1.5,21.71-5.25,4-5.16,4-15-3.23-17.68-6.11-2.24-11.88,4.31-15.15,8.58a52.65,52.65,0,0,0-4.8,8.23c-8.26-2.8-18.75-3.26-26,2.29C118,451.94,116.13,458.18,121.24,462.21Z" transform="translate(-2.21 -59)"/><path class="cls-5" d="M132.89,495.82c10.15,2.85,25.12-4.23,30.89-12.71a1.86,1.86,0,0,0,1,.54c9.94,1.7,21.08-3.46,26.67-12,3.26-5,5.09-16.78-3.31-18.41-4.1-.79-10.26,4.55-13.09,6.72a43.49,43.49,0,0,0-12.63,15.45c-.33.63-.62,1.21-.89,1.76-10.47-4.64-22.16-1.64-31.1,5.57C124.82,487.3,124.61,493.51,132.89,495.82Z" transform="translate(-2.21 -59)"/><path class="cls-5" d="M99.79,279c-.77-5.4,3.49-6,4.26-.56a652,652,0,0,0,67.37,210.37c2.54,4.89-.84,7.61-3.4,2.7A659.06,659.06,0,0,1,99.79,279Z" transform="translate(-2.21 -59)"/><path class="cls-5" d="M82.61,254c-1.15-10.4,8-21.14,17.84-12.39s10.38,25.56,6.58,37.06c-.53,1.63-4.57,4.65-6.08,5.13-5,1.56-9.53-4.22-11.86-7.85C85,269.57,83.44,261.48,82.61,254Z" transform="translate(-2.21 -59)"/><path class="cls-3" d="M531.36,372.63c1.32-3-.54-6.22-3.43-7.47-2.71-1.18-5.54-.59-8.32.13a24.81,24.81,0,0,0-3.45.85l-.56.12c-.43-4.28-3.08-16.53-8.27-11.32-4.65,4.67.64,12.4,5.56,14.06a1.43,1.43,0,0,0,1.17-.17c2,3.29,5.25,6.77,9.1,7.75A7.3,7.3,0,0,0,531.36,372.63Z" transform="translate(-2.21 -59)"/><path class="cls-3" d="M520.65,387.05c.48-3.23-2.88-5.3-5.49-6.18a14.54,14.54,0,0,0-8.39-.21c.52-4.52-4.36-14.06-9.33-10.8-2.57,1.69-1.55,5.2-.4,7.42a15.54,15.54,0,0,0,7.6,7,9.77,9.77,0,0,0,1.06,2.12,10.44,10.44,0,0,0,9,4.71C517.19,391.06,520.23,389.86,520.65,387.05Z" transform="translate(-2.21 -59)"/><path class="cls-3" d="M510.35,395.57c-3.87-3.45-10.24-2.42-14.63-.29a14.25,14.25,0,0,1-.2-2c-.1-3.91-1.19-9.74-5.55-11.23a4.33,4.33,0,0,0-5.88,3.2c-1.33,5.32,5,10,8.08,13.26a1.29,1.29,0,0,0,1.24.36,0,0,0,0,1,0,0c2.23,4.62,9.27,6.61,13.79,4.74C510.49,402.25,513.71,398.56,510.35,395.57Z" transform="translate(-2.21 -59)"/><path class="cls-3" d="M502,414.8a17.21,17.21,0,0,0-15.15-7.14c-.47-1.26-.92-2.5-1.37-3.69-1.53-4-5.88-10.9-11.13-10.06-4.52.73-5,5.88-3.37,9.28,2.55,5.22,8.4,6.93,13.8,7a.83.83,0,0,0,.42.2c.72,1.66,1.48,3.3,2.34,4.93,2.24,4.2,6.51,10,12.17,8.06C503.81,422,504.29,418,502,414.8Z" transform="translate(-2.21 -59)"/><path class="cls-3" d="M488.62,426c-3-4.88-9.57-6-14.73-4.93-.07,0-.12.06-.18.08a44,44,0,0,0-1.08-4.54c-1.12-3.53-3.33-10-8.17-9-10,2.05-.16,16.11,7.18,16.21a14.19,14.19,0,0,0,1.91,5.17c2.49,3.79,7.95,6.95,12.53,5.33C489.88,432.93,490.6,429.22,488.62,426Z" transform="translate(-2.21 -59)"/><path class="cls-3" d="M474,443.17c-2.79-4.66-8.69-6.71-13.88-7a31.21,31.21,0,0,0-.85-5.61c-.87-3.08-2.62-8-6.49-8.07-4.56-.12-6.73,5.35-5.67,9.07,1.38,4.88,6.34,6.84,10.86,7.67a13.24,13.24,0,0,0,1.33,4.48c2,3.88,7.54,8.78,12.4,7.33C475.4,450,475.76,446.1,474,443.17Z" transform="translate(-2.21 -59)"/><path class="cls-3" d="M462.08,460.41c-3.36-6-9.17-10.18-16-9.91,0-.36-.06-.74-.11-1.17a25.93,25.93,0,0,0-3.6-11.32c-1.08-1.82-3.32-6.12-5.76-6.59-5-.94-6.58,6-5.87,9.46a16.47,16.47,0,0,0,12.12,12.48,1.05,1.05,0,0,0,.69-.07c1.33,6,8.06,13.16,14.3,13.82C463,467.64,464.2,464.16,462.08,460.41Z" transform="translate(-2.21 -59)"/><path class="cls-3" d="M523.76,354.41c1.61-2.82-.6-4.11-2.23-1.25a388,388,0,0,1-83.43,101.6c-2.48,2.15-1.21,4.39,1.28,2.24A392.05,392.05,0,0,0,523.76,354.41Z" transform="translate(-2.21 -59)"/><path class="cls-3" d="M538.74,344.37c2.93-5.5.21-13.45-7.15-10.77s-11.35,11.86-11.77,19.06c-.06,1,1.51,3.58,2.24,4.17,2.4,2,6.2-.24,8.28-1.74C534,352.45,536.65,348.31,538.74,344.37Z" transform="translate(-2.21 -59)"/><path class="cls-5" d="M438.52,445c-5.69.46-42-39.07-34.91-46.51,5.53-5.8,11.81-.06,13.92,2.2,3.33,3.57,10.78,12.66,13,9.78,4.07-5.21-17.7-25.81-22.69-31.16s-13.24-17.08-11.24-24.92,3.72-10.79,11.94-.95,22,31.24,23.45,22S418.92,352,413.55,340.83s-11.8-34.21-2.63-32.77c8.2,1.29,19.2,36.16,23.87,31.79,3.74-3.49-2.84-11.78-8.55-27s-10.95-29.74-2.18-34c7-3.39,8.62,7.16,11.8,15.35s8.05,19.43,10.72,15.21-16.77-42.77-6.64-50.79c6.71-5.3,8.24,4.24,12.48,13.56s6.43,12.29,8,10.84-2.12-15-4.33-22.33-2.88-18.68,3.91-21,9.12,9.86,8.94,14.56,1.64,9.24,3,9.29,3.1-15.41,10.92-13.28,4.75,16.73-1.17,22.26S468,285.73,470,287.89s8.86-4.24,14.26-9.28,8.69-5.82,10-4.38c4.48,4.8,1.23,15.4-2.71,19.09S462.87,314.78,465.85,318s11.57-4.46,15.93-8.53,14.53-13.58,19.53-8.23-6,21-14.8,28.26-23.9,17.9-21.6,20.37,15.86-4,21.15-9,12.24-16.44,18.39-9.86-.69,15.47-11.08,25.17c-4.34,4.06-15.19,14-24.43,15.79-10.52,2-15.43,4.79-15.07,7.26.71,4.92,9.73,1.88,15.67-1.74s23.73-16,27.74-5.89S484.44,388,477.91,391.21s-30.49,12.51-28.5,17.76,13.32-3,17.11-5.2,13.07-4.21,12.91-.12S448.65,444.14,438.52,445Z" transform="translate(-2.21 -59)"/><path class="cls-6" d="M520.34,526.58c-7.14-31.29-41.2-32.64-42.48-38-1.37-5.68,17.22-15.35,10.05-31.34s-22.73-13.72-25.31-18.95c-.75-1.51,20-46.9-34.1-54.58-23.45-3.33-40.33,14.6-41.54,14.48-4.93-.52-32.48-18.57-63.53-2.84S298,428.2,292.81,430.27s-23.62-10.13-62.87,7.67-47.44,65.11-63.72,67.17c-15.77,2-61.87-1.33-65.82,21.47Z" transform="translate(-2.21 -59)"/><path class="cls-7" d="M378.21,307.7A104.66,104.66,0,0,0,272.58,203c-57.83.53-104.48,48.31-103.68,106.14a104.24,104.24,0,0,0,24.32,65.6c8.59,10.27,16.65,36.31,16.45,49.7,0,.27,0,.54,0,.81-.09,37,26.79,67.28,63.77,67.34,37.15.07,64-30,64-67.16,0-.39,0-.77,0-1.15-.22-13.27,7.81-39.24,16.34-49.41A104.22,104.22,0,0,0,378.21,307.7Z" transform="translate(-2.21 -59)"/><path class="cls-8" d="M230,530h87c3.08,0,5.57-2.86,5.57-6.38s-2.49-6.39-5.57-6.39H230c-3.08,0-5.57,2.86-5.57,6.39S227,530,230,530Z" transform="translate(-2.21 -59)"/><line class="cls-9" x1="293.55" y1="400.52" x2="315.22" y2="271.78"/><line class="cls-9" x1="249.12" y1="400.52" x2="227.46" y2="271.78"/><path class="cls-9" d="M315,345.07c-2.59,0-3.58-11.56-8.84-11.56s-5.25,11.56-10.5,11.56-5.26-11.56-10.52-11.56-5.26,11.56-10.53,11.56-5.26-11.56-10.52-11.56-5.27,11.56-10.54,11.56-5.28-11.56-10.55-11.56-5.27,11.56-10.55,11.56" transform="translate(-2.21 -59)"/><path class="cls-10" d="M328.76,451.36v65.11c0,4.46-3.14,8.08-7,8.08H225.5c-3.89,0-7-3.62-7-8.08V451.36Z" transform="translate(-2.21 -59)"/><line class="cls-11" x1="328.77" y1="398.64" x2="213.92" y2="398.64"/><line class="cls-11" x1="328.77" y1="419.92" x2="213.92" y2="419.92"/><line class="cls-11" x1="328.77" y1="441.2" x2="213.92" y2="441.2"/><path class="cls-12" d="M364.74,294.31c-7.85-38.9-38.21-69.63-76.67-77.61a98,98,0,0,0-19.81-2" transform="translate(-2.21 -59)"/><line class="cls-13" x1="271.57" y1="115.26" x2="271.57" y2="93.02"/><line class="cls-13" x1="305.94" y1="119.89" x2="311.64" y2="98.42"/><line class="cls-13" x1="337.96" y1="133.37" x2="348.95" y2="114.12"/><line class="cls-13" x1="365.45" y1="154.78" x2="380.98" y2="139.05"/><line class="cls-13" x1="386.51" y1="182.65" x2="405.53" y2="171.54"/><line class="cls-13" x1="399.72" y1="215.08" x2="420.94" y2="209.33"/><line class="cls-13" x1="404.19" y1="249.88" x2="426.17" y2="249.88"/><line class="cls-13" x1="399.6" y1="284.65" x2="420.83" y2="290.4"/><line class="cls-13" x1="386.28" y1="317.03" x2="405.3" y2="328.15"/><line class="cls-13" x1="365.12" y1="344.84" x2="380.66" y2="360.56"/><line class="cls-13" x1="177.25" y1="344.51" x2="161.71" y2="360.23"/><line class="cls-13" x1="156.18" y1="316.64" x2="137.14" y2="327.75"/><line class="cls-13" x1="142.96" y1="284.21" x2="121.74" y2="289.96"/><line class="cls-13" x1="138.5" y1="249.41" x2="116.52" y2="249.41"/><line class="cls-13" x1="143.09" y1="214.64" x2="121.86" y2="208.87"/><line class="cls-13" x1="156.41" y1="182.25" x2="137.38" y2="171.13"/><line class="cls-13" x1="177.56" y1="154.45" x2="162.04" y2="138.73"/><line class="cls-13" x1="205.12" y1="133.14" x2="194.13" y2="113.89"/><line class="cls-13" x1="237.17" y1="119.77" x2="231.51" y2="98.29"/><path class="cls-14" d="M490.93,423.26c-.47-2.34-1-8.93-1-9.87.2-1.31-2.48-1.93-3.72-3a17.19,17.19,0,0,0-5.78-2.82,21.08,21.08,0,0,0-6.19-1.13c-4.28-.06-9.35,2.86-8.7,7.79a2.24,2.24,0,0,0,1.06,1.72,1.83,1.83,0,0,0,.44.35h0c.27,2,.23,4.33.49,6.36.05.38.48.42.67.69,0,.29,0,.57.05.86a2.09,2.09,0,0,0,.62,1.34,3.25,3.25,0,0,0,1,1.15c1.93,1.4,4.95.66,7.16.51l8.84-.58a2.09,2.09,0,0,0,.89-.26C487.81,426.25,491.2,424.63,490.93,423.26Z" transform="translate(-2.21 -59)"/><path class="cls-15" d="M467.69,529a3.11,3.11,0,0,0-3,1,3.56,3.56,0,0,0-1.49,1.94,5,5,0,0,0,.14,3.43c1.26,2.83,5.17,2.58,6.58,0C471.17,533.17,470.44,529.65,467.69,529Z" transform="translate(-2.21 -59)"/><path class="cls-15" d="M502.85,529.38a3.11,3.11,0,0,0-3,1,3.49,3.49,0,0,0-1.48,1.93,4.94,4.94,0,0,0,.13,3.43c1.26,2.83,5.17,2.58,6.58,0C506.34,533.51,505.6,530,502.85,529.38Z" transform="translate(-2.21 -59)"/><path class="cls-14" d="M473.51,434v0l1-3.38a2.69,2.69,0,0,0-.38-2.26,2.3,2.3,0,0,0-1.35-1.91c-.38-2.31-3.82-3.52-5.13-1-8.34,15.87-16.24,33.47-18.71,51.37v0h0c0,.25-.06,11.22-.41,16.51-.64,9.88-2.83,22.1-4.91,31.77-.29,1.35.86.3,2.18.83a2,2,0,0,0,2.84-1.13c5.62-14,11.08-31.09,10.48-48,6.75-10.41,19.56-34.84,19.22-40C478.06,433.29,475.27,430.91,473.51,434Z" transform="translate(-2.21 -59)"/><path class="cls-14" d="M482.49,428.8l0,0c0-1.18,0-2.35,0-3.53a2.72,2.72,0,0,0-1-2.05,2.29,2.29,0,0,0-1.85-1.42c-1-2.1-4.68-2.25-5.21.51-1.65,8.77-.46,33.27-.76,54.79-.05,3.74,6.41,40.1,6.84,45.05a2.8,2.8,0,0,0,2.5,2.66,2.22,2.22,0,0,0,2.41-2.12c1.19-8-.23-46.23-.23-46.23s3.76-43.86,2.8-46.37C486.62,426.75,483.25,425.29,482.49,428.8Z" transform="translate(-2.21 -59)"/><path class="cls-14" d="M473.44,385.13a2.3,2.3,0,0,0,1.76-.59,2.13,2.13,0,0,0,0-3c-2.48-3.07-7,2.57-8.31,4.38-3.15,4.37-8.35,13.25-10.64,17.24-1.64,2.86-13.48,22.22-14.48,24.85-.46.53-3.42,5.41-3.67,7.13-.06.47.22,4,1.47,4.5s3.46-2,3.64-2.76,1.76-5.63,1.86-5.76c.57-.77,20.92-28.16,25-35.53,1.09-1.95,3.6-1.8,4.42-3.89.68-1.73,1.07-4.72-1.29-5.39a2.67,2.67,0,0,0-.89-.08l.1-.1C472.68,385.94,473.08,385.45,473.44,385.13Z" transform="translate(-2.21 -59)"/><path class="cls-16" d="M485.57,493a41.68,41.68,0,0,0-4.86.28,23.73,23.73,0,0,0-4.7.94c1.86,11.53,4.15,25,4.4,27.89a1.1,1.1,0,0,0,0,.18,2.2,2.2,0,0,0,3,1.3,1.76,1.76,0,0,0,1.26.53,2.74,2.74,0,0,0,.65-1.47C486,518.23,485.83,504.41,485.57,493Z" transform="translate(-2.21 -59)"/><path class="cls-17" d="M491.7,428.86c0-.41-.5-10.41-2.9-11.2-7.38-2.4-21.52,2.55-21.52,2.55s-.54,6.22-.9,6.76c-4.49,6.91-9.68,18.8-9.68,18.8a8,8,0,0,0,1.65,1.82,82.41,82.41,0,0,0,7.89,4.56,54.16,54.16,0,0,0,6.83,2.32s.35-3.52.6-4.46c-.05,1.36-.39,4.39-.39,4.39s7.59.22,8.94.34a49,49,0,0,0,6,0,21.61,21.61,0,0,0,1.79-4.81A86.51,86.51,0,0,0,491.7,428.86Z" transform="translate(-2.21 -59)"/><path class="cls-16" d="M447.92,500.08c-1,8.3-2.65,17.36-4.27,24.88-.29,1.35.86.3,2.18.83a2,2,0,0,0,2.84-1.13,173.37,173.37,0,0,0,7.38-22.13A23.22,23.22,0,0,0,447.92,500.08Z" transform="translate(-2.21 -59)"/><path class="cls-15" d="M487.77,361l-.14.13a2.18,2.18,0,0,0-2.63-.44,11.23,11.23,0,0,1-4.95.94c-1.52-.06-3.25-.94-4.73-.33a2.12,2.12,0,0,0-.49,3.81c.23.17.46.33.7.48a2.51,2.51,0,0,0-.36,1.87c.26,1.69,2.6,2.41,4,2.72a10.16,10.16,0,0,0,12.05-7.15C491.89,361,489.22,359.62,487.77,361Z" transform="translate(-2.21 -59)"/><path class="cls-15" d="M450,524.07c.52.92.86,4,.06,4.87-.17.77-10.83,7.65-11.9,5.4-.87-1.84,2.44-6.75,4.46-9.23a14.27,14.27,0,0,0,.9-1.14l6-1.2.45,1.3Z" transform="translate(-2.21 -59)"/><path class="cls-15" d="M485.8,523.41c.13,3.33-1,4-2.09,4.4-.49.62-13.09,2.11-13.06-.38,0-2,5.16-5,8.06-6.33.73-.33,1.22-.55,1.32-.62l5.81,1.29,0,1.64Z" transform="translate(-2.21 -59)"/><path class="cls-14" d="M460.58,360.07c-.24-5.72,5.17-11.61,11.45-7.87,4.36,2.6,5.66,9.58,5.87,12.66a10.1,10.1,0,0,1-2.31,7.5c-1.83,2-6.59,2.95-9.21,2C464.09,373.52,460.8,365.17,460.58,360.07Z" transform="translate(-2.21 -59)"/><path class="cls-14" d="M477.16,361.5c-.69-1.5,1,6.46-.34,7.2a3.27,3.27,0,0,0-.72.53c-1.91-.24-4.7-1-4.1,1.45.34,1.37,1.27,4.9,1.67,6.26,1.47,5.05,2.26,4.57,3.32,4.52a9.39,9.39,0,0,0,4-1.11c1.46-.85,3.52,2.66,3,1.15C483.11,378.5,478.28,363.93,477.16,361.5Z" transform="translate(-2.21 -59)"/><path class="cls-18" d="M521.65,354.83a12.72,12.72,0,0,0-6.28-3.88c-.66-.18-2.66-.2-3-.84a3,3,0,0,1,0-1.19,19.07,19.07,0,0,0,.26-2.26c0-5.23-5.72-7.2-10.06-7.38a19,19,0,0,0-8.33,1.49c-2.44,1.05-4.3,2.81-6.34,4.44s-4.81,2.79-7.53,1.63c-1.41-.6-5.55-2.37-9.67-1.17-5.19,1.52-9.31,4.91-9.63,10.57,0,.5.26,1.3,2.13,1.88,2.63.8,7.29.9,8.65,1.58,2.42,1.2,3.85,3.21,5.87,4.9,4.72,4,10.33,1.72,15.56.32,2.48-.66,5.23-1.1,7.42.56s3.8,3.67,6.25,4.93c4.62,2.37,10.4,2.36,14.36-1.32S525.1,358.89,521.65,354.83Z" transform="translate(-2.21 -59)"/><path class="cls-19" d="M511.62,526.7a72.33,72.33,0,0,1-13.72.74l-14.52-.17L454.57,527c-2.68,0-2.68,4.13,0,4.16l29.36.33,14.5.17a76,76,0,0,0,14.3-.9C515.36,530.24,514.25,526.22,511.62,526.7Z" transform="translate(-2.21 -59)"/><path class="cls-15" d="M447.21,505.4a64.73,64.73,0,0,1,7.49,2.16c.21-.71.41-1.42.61-2.13a64.1,64.1,0,0,0-7.79-2.24C447.42,503.92,447.32,504.66,447.21,505.4Z" transform="translate(-2.21 -59)"/><path class="cls-15" d="M476.92,499.58l8.81-1.22c0-.75,0-1.49,0-2.22l-9.12,1.26C476.68,498.13,476.8,498.85,476.92,499.58Z" transform="translate(-2.21 -59)"/><path class="cls-16" d="M493.67,402.07c-.65-6.19-1.85-16.23-7.74-21.87-3.38-3.23-5.25-1.95-7.2-1.68-11.1,1.53-12.79,10.46-15.4,23.6-1.09,2.57-2.38,5.21-2.64,8-.23,2.42.63,4.91,2.93,6,2.69,1.3,6.41.54,9.27.33,3.34-.24,6.68-.58,10-1,2.71-.36,6.63-.27,8.63-2.46a1.46,1.46,0,0,0,.16-.19,3.91,3.91,0,0,0,1.24-1.19,4.1,4.1,0,0,0,.34-.62C494.51,408.88,493.7,402.35,493.67,402.07Z" transform="translate(-2.21 -59)"/><path class="cls-17" d="M493.62,402.19c-.11-1.09-.24-2.3-.41-3.58l-29.91,3.55v.08a30.61,30.61,0,0,0-2.58,7.45l33.18-3.95C493.83,403.9,493.64,402.33,493.62,402.19Zm-13.88-9.45q6-.89,11.94-1.83a28.11,28.11,0,0,0-2.84-6.81c-2.4.37-4.81.75-7.22,1.11q-6,.9-11.95,1.74l-2.45.34a42.6,42.6,0,0,0-2.39,7.58l1.05-.16Q472.81,393.77,479.74,392.74Z" transform="translate(-2.21 -59)"/><path class="cls-14" d="M496.54,443.31s0,0,0-.05,0-.18,0-.27c.93-3.79,1.2-23.93.71-28.75-1-9.57-3.49-16.5-6.2-25.72-.22-.76-1.39-3.11-3.9-2.61-2.07.41-3,2.41-3.31,4.33-.37,2.59,5,21.6,5.88,26.8s1.9,24.58,2.58,26.79c-1,1.68-2,4-1.07,5.7-.18,1.66-1,4.7.1,6,1.23,1.42,2.06,1.19,3.05-.35C496.45,451.86,497.53,446.62,496.54,443.31Z" transform="translate(-2.21 -59)"/><path class="cls-20" d="M47.15,460.88s2,21.05,2.29,22.89,0,3.35-1.22,9.15-1.38,12.51-1.07,19.68,1.68,14.19,2.44,14.5,4.43,1.52,5,0,2-21.67,2.89-25.18,4.12-16.48,5-21.36,2.29-9.46,1.37-18.31S46.69,456.15,47.15,460.88Z" transform="translate(-2.21 -59)"/><path class="cls-20" d="M66.67,461.55s2,21.05,2.29,22.88,0,3.36-1.22,9.16-1.37,12.51-1.07,19.68,1.68,14.19,2.44,14.5,4.43,1.52,5,0,2-21.67,2.9-25.18,4.12-16.48,5-21.36,2.29-9.46,1.37-18.31S66.21,456.82,66.67,461.55Z" transform="translate(-2.21 -59)"/><path class="cls-20" d="M63.6,357.54H72.9a0,0,0,0,1,0,0v10.87a2.66,2.66,0,0,1-2.66,2.66h0a6.65,6.65,0,0,1-6.65-6.65v-6.89a0,0,0,0,1,0,0Z" transform="translate(185.74 -45.48) rotate(29.45)"/><path class="cls-21" d="M62.57,358.48v1.6a8.39,8.39,0,0,0,3.64,3.41c2.27.91,4.32,4.55,4.32,4.55v-5.69S63.48,358.71,62.57,358.48Z" transform="translate(-2.21 -59)"/><path class="cls-20" d="M83.08,359.37c-2.49,6.24-5.07,11.2-9.62,9.39s-10.6-13-8.1-19.28,7.51-7.13,12.22-5.77C84.17,345.6,85.57,353.13,83.08,359.37Z" transform="translate(-2.21 -59)"/><path class="cls-21" d="M69.6,364.87a17.25,17.25,0,0,1-1.84-7.19,30.11,30.11,0,0,1-.21-4.24c.07-1.41.72-2.68.9-4.06a.72.72,0,0,1,.44-.6v0a13.33,13.33,0,0,1,.42-2.18,11.17,11.17,0,0,0,.43-2.4,9.84,9.84,0,0,0-4.39,5.32c-2.45,6.13,3.34,17.07,7.86,19.17-.48-.35-.93-.71-1.36-1.07A10,10,0,0,1,69.6,364.87Z" transform="translate(-2.21 -59)"/><path class="cls-22" d="M92,411.41c-.11-1.64-1.37-2.91-2.5-4a5,5,0,0,1-1.32-3.7c-.15-2.86.44-5.71.31-8.56-.15-3.36-4.09-14.52-4.09-14.52v.13s0-.07,0-.1c-.25-1.71-2.27-5.06-7.76-7.2,0,0-1.83-.92-2.44-4,0,0-.61-1.52-11.29-.76,0,0-2.75.46-2.75,2.29s-5.36.91-6,1-2.81,10.3-2.81,10.3S47.2,414.9,53.42,418c5.45,2.75,22.17,1.36,27.33.08-1-3.1-1-2.32-1-2.32,1.22-.2,6.27,1,7.48.76C89.63,416.13,92.19,414.14,92,411.41Z" transform="translate(-2.21 -59)"/><path class="cls-23" d="M92.07,411.37c-.11-1.6-1.29-2.84-2.39-3.89a23.83,23.83,0,0,1-6.49,3.89.14.14,0,0,1-.16-.09c-.06-.32-.11-.64-.16-1-.19-1.29-.32-2.58-.48-3.87-.08-.67-.15-1.33-.28-2s-.26-1.31-.38-2c-.5-2.6-1-5.2-1.26-7.83-.15-1.28-.31-2.55-.57-3.81s-.53-2.45-.8-3.67a28.4,28.4,0,0,1-.62-3.67c-.07-.91-.08-1.82-.07-2.73,0,.21,0,.42-.07.63a34.42,34.42,0,0,0-.09,4.31c0,1.42.1,2.84.17,4.25s.24,3.08.39,4.61.24,3,.25,4.56c0,3.05-.13,6.09-.13,9.14a26,26,0,0,0,.43,5.78,8.8,8.8,0,0,0,.9,2.42,5,5,0,0,0-.34-.75c1.4-.11,6.19,1,7.36.78C89.71,416.08,92.27,414.1,92.07,411.37Z" transform="translate(-2.21 -59)"/><path class="cls-24" d="M58.8,410.86c0-4.29.26-8.51-.42-12.77a68.41,68.41,0,0,0-2.49-10.68,29,29,0,0,0-3.85-8c-.38,1.66-.64,2.93-.64,2.93s-4.09,32.58,2.13,35.71a55.64,55.64,0,0,0,6.64,2.59A27.6,27.6,0,0,1,58.8,410.86Z" transform="translate(-2.21 -59)"/><path d="M49.73,524.5s-4.76,3.06-1.43,5.81,9.56,3.83,11.14,4.29,6.62.28,4.42-1.81-6.19-7.06-10.48-8.64S49.73,524.5,49.73,524.5Z" transform="translate(-2.21 -59)"/><path d="M68.29,526.54s-3.79,4.21.15,6,10.23,1.19,11.88,1.22,6.46-1.47,3.79-2.91-7.84-5.19-12.39-5.59S68.29,526.54,68.29,526.54Z" transform="translate(-2.21 -59)"/><path class="cls-25" d="M53.79,468.59a18.06,18.06,0,0,1-6.21-3.19c.6,6.3,1.64,17.08,1.86,18.37.3,1.83,0,3.35-1.22,9.15s-1.38,12.51-1.07,19.68,1.68,14.19,2.44,14.5,4.43,1.52,5,0,2-21.67,2.89-25.18,4.12-16.48,5-21.36a62.62,62.62,0,0,0,1.66-11.78C60.73,468.9,57.25,469.47,53.79,468.59Z" transform="translate(-2.21 -59)"/><path class="cls-25" d="M77.28,470.55a29,29,0,0,1-10-2.47c.61,6.34,1.48,15.2,1.67,16.35.3,1.84,0,3.36-1.22,9.16s-1.37,12.51-1.07,19.68,1.68,14.19,2.44,14.5,4.43,1.52,5,0,2-21.67,2.9-25.18,4.12-16.48,5-21.36a68.09,68.09,0,0,0,1.62-10.65A59.73,59.73,0,0,1,77.28,470.55Z" transform="translate(-2.21 -59)"/><path class="cls-26" d="M39,460.46s31,8.7,49,0c0,0-.92-22.43-3.51-30.36s-4.12-13.28-4.12-13.28a63.41,63.41,0,0,1-26.85,1.23S40.41,444.75,39,460.46Z" transform="translate(-2.21 -59)"/><path class="cls-25" d="M50.93,455.09A29.25,29.25,0,0,1,50.82,442c1.68-8.18,5.81-15.57,9.39-23.06a56.7,56.7,0,0,1-6.62-.79s-13.12,26.7-14.49,42.41a120.59,120.59,0,0,0,15.67,3A26.37,26.37,0,0,1,50.93,455.09Z" transform="translate(-2.21 -59)"/><path class="cls-27" d="M58.7,421.75c3,0,6,.05,9-.12a62.25,62.25,0,0,0,9.13-1.25,26.2,26.2,0,0,0,4.26-1.27l-.67-2.29a63.41,63.41,0,0,1-26.85,1.23s-.55,1.11-1.43,3A32.36,32.36,0,0,0,58.7,421.75Z" transform="translate(-2.21 -59)"/><path class="cls-28" d="M58.4,415.6c.67-2.31,1-5.1-.64-6.88A7.06,7.06,0,0,0,54.18,407a29.9,29.9,0,0,0-9.84-.74c-3.07.28-6.32,1.18-8.26,3.57-3.76,4.65-3.73,14.82,3.62,15C47.63,424.9,55.92,424.22,58.4,415.6Z" transform="translate(-2.21 -59)"/><path class="cls-20" d="M45,423.28s12.72-7.48,17.45-10.41c4.36-2.69,4.32-3.17,4.32-3.17s1.5-2.93-1.29-1.71-13.32,5.17-15.8,6.74S38.55,417.34,45,423.28Z" transform="translate(-2.21 -59)"/><path class="cls-22" d="M53.42,372.11s-5.34-.16-8.24,6.25-8,26.63-8.76,32.27,5.42,12.89,11.86,11.08c4.28-1.2,6.06-7.56,8.5-10.3s-8.25,3.27-6.72-2.23,3-18.76,5.64-22S57.38,370.89,53.42,372.11Z" transform="translate(-2.21 -59)"/><path class="cls-24" d="M59.75,373.26a16.68,16.68,0,0,0,5.23,1,12,12,0,0,0,2.47,0c.42-.05.79-.05.6-.53S67,372.7,66.44,372.4a11.19,11.19,0,0,0-1.67-.81.78.78,0,0,1-.56-.74,3.4,3.4,0,0,1,1.1-2.17c-.72,0-1.5.08-2.33.14,0,0-2.75.46-2.75,2.29,0,.93-1.38,1.15-2.83,1.15C58.18,372.6,59,373,59.75,373.26Z" transform="translate(-2.21 -59)"/><path class="cls-28" d="M56.71,372.18s5.22,22.59-4,34.45c0,0,.4,1.94,1.62.87S64.48,394.83,59,372.18l-.06-.12A10.13,10.13,0,0,1,56.71,372.18Z" transform="translate(-2.21 -59)"/><path d="M67.53,356.13s-.47-4.45,1.45-4.76,1,2.51,1,2.51.59-2.29,4.52-3.05a9.34,9.34,0,0,1,9.58,4.54s2.3-5.72,1-7.7-5.11-7.09-12.67-6.1-11.12,9.14-10.89,11.2-3.88,9.37-7.47,11.38S43.58,368.74,43.69,376s-.84,8.63-3.36,11.24,4.43,4.25,6.37,2.37,6.22-1.39,6.64-4.31a19.11,19.11,0,0,1,3.83-9.58c2.63-3.42,8.37-4.9,9.28-9.3S65.62,358.88,67.53,356.13Z" transform="translate(-2.21 -59)"/><polygon class="cls-26" points="78.24 345.14 65.32 344.8 66.47 337.51 79.4 337.85 78.24 345.14"/><path class="cls-20" d="M74.67,402.2A1.37,1.37,0,0,0,73.9,401a1,1,0,0,0-1.11.41c-.63.81-2.89,2.88-4.25,2.65-.17,0-.23-.12-.21-.25h-.42a.28.28,0,0,1-.28-.26,2.36,2.36,0,0,1,0-.46c0-.15,0-.29,0-.44l.06-.34a1.12,1.12,0,0,1,.08-.26c-1.41.74-2,3-2.28,3.79s-.39,1.62-.61,2.34a2.5,2.5,0,0,0-.18,2,1.62,1.62,0,0,0,.21.36,1.55,1.55,0,0,0,.52,0,3.14,3.14,0,0,0,.52-.16l.09,0,.14-.06.11-.11a3.58,3.58,0,0,0,.26-.29l.23-.31a.09.09,0,0,1,.06,0c.37-.47,1-.93,1.28-1.29a12.59,12.59,0,0,1,3.88-2.65C73.41,404.92,74.79,403.82,74.67,402.2Z" transform="translate(-2.21 -59)"/><path class="cls-20" d="M88.65,413.4A61.41,61.41,0,0,1,83,409.09c-.51-.57-5.16-1.24-3,.25.81.57,3.09,3.35,5.6,6.15A26.08,26.08,0,0,0,88.65,413.4Z" transform="translate(-2.21 -59)"/><path class="cls-20" d="M82,408.14c-.26-.71-.44-1.62-.7-2.32-.12-.33-.66-1.06-1-1.69H79.7c-.45,0-.89,0-1.34,0h0a.12.12,0,0,1-.08.06c-1.35.28-3.68-1.72-4.34-2.5a1,1,0,0,0-1.12-.38,1.38,1.38,0,0,0-.73,1.26c-.06,1.62,1.35,2.67,2.74,3.34a12.55,12.55,0,0,1,4,2.51c.3.33.87.75,1.26,1.18l.21.15c.17.14.32.3.5.43l.26.2a1.45,1.45,0,0,1,.17.18l.12.09a.92.92,0,0,1,.3.42h0a2.38,2.38,0,0,0,.66-.89A2.53,2.53,0,0,0,82,408.14Z" transform="translate(-2.21 -59)"/><path class="cls-22" d="M89.55,407.36v0c-.65.72-1.18,1.58-1.79,2.33a19.26,19.26,0,0,1-4.53,3.91A25.4,25.4,0,0,1,79,415.93c1.49.82,3.54,1.51,4.66,1.33s2.41-.57,3.62-.78c2.43-.42,5-2.41,4.8-5.14C91.94,409.7,90.69,408.43,89.55,407.36Z" transform="translate(-2.21 -59)"/><path class="cls-29" d="M592,435.64c-18.87-10.93-41.4-13.08-63.13-15-36.23-3.17-73.65-6.22-108.21,5.12-35.65,11.71-64.62,37.51-97,56.53C251.13,525,159.76,532.26,79.81,505.87c-18.17-6-36.23-13.91-50-27.18S7.06,445.91,10.45,427.07C14.07,407,32.6,390.54,53,389.36c12.94-.74,27,5.18,32.38,17s-2,28.55-15,29.63c-7.41.62-14.51-3.7-19.33-9.37C40.22,413.8,39.55,393.43,49.56,380,58.79,367.54,74.75,362,90.1,360.14c61.23-7.48,120.11,31.82,181.7,28.5a134.21,134.21,0,0,0,80.5-32.78c20.28-17.77,35.47-45.83,26.78-71.35-8-23.38-32.77-36.37-56.38-43.65-16.42-5.07-34.84-8.36-50.29-.84s-24.12,30-12.48,42.59c3.61,3.91,8.58,6.34,13.68,7.85,20.85,6.14,44.05-2.78,59.32-18.24s23.64-36.48,28.73-57.6A238.56,238.56,0,0,0,363,109.28" transform="translate(-2.21 -59)"/><path class="cls-30" d="M17.08,105.71h94.25a9.88,9.88,0,0,1,9.88,9.88v93a9.87,9.87,0,0,1-9.88,9.87H101c.25,13.2-.45,27-.45,27l-25.75-27H17.08a9.87,9.87,0,0,1-9.87-9.87v-93A9.87,9.87,0,0,1,17.08,105.71Z" transform="translate(-2.21 -59)"/><path class="cls-31" d="M22.73,198.94l0-74.68a1.63,1.63,0,0,0,.11-.31,6.53,6.53,0,0,1,6.7-5.45q34.68-.06,69.36-.19a8.23,8.23,0,0,1,2.16.24c2.94.82,4.66,3.3,4.67,6.64q0,18.19,0,36.41,0,17.94,0,35.9a7.1,7.1,0,0,1-1.45,4.53,6.88,6.88,0,0,1-4.06,2.39l-72,.23a20.45,20.45,0,0,1-3-1.35A6.44,6.44,0,0,1,22.73,198.94ZM73.37,158,93.29,158a6,6,0,0,0,5.9-6.15l0-20.63a6,6,0,0,0-5.9-6.11l-19.92.07a6,6,0,0,0-5.9,6.14v20.63A6,6,0,0,0,73.37,158ZM60.92,152V131.3A6,6,0,0,0,55,125.2l-19.9.06a6,6,0,0,0-5.89,6.14v20.67a6,6,0,0,0,5.9,6.11l19.9-.06A6,6,0,0,0,60.92,152Zm-5.87,12.94L35.13,165a6,6,0,0,0-5.9,6.14v20.65a6,6,0,0,0,5.9,6.11l19.93-.07A6,6,0,0,0,61,191.66V171A6,6,0,0,0,55.05,164.91Zm44.16,26.66V170.9a6,6,0,0,0-5.91-6.11l-19.89.07A6,6,0,0,0,67.5,171v20.67a6,6,0,0,0,5.91,6.1l19.89-.06A6,6,0,0,0,99.21,191.57Z" transform="translate(-2.21 -59)"/><path class="cls-7" d="M83.55,144.27c-2.51,0-5,.06-7.53,0a2.93,2.93,0,0,1-2.77-2.2,3.37,3.37,0,0,1,.92-3.59,3.43,3.43,0,0,1,2.48-.84l8.09,0c2.13,0,4.27,0,6.4,0a2.89,2.89,0,0,1,2.71,2,3.32,3.32,0,0,1-3.26,4.58c-2.35,0-4.69,0-7,0Z" transform="translate(-2.21 -59)"/><path class="cls-26" d="M41.84,144.41c-1.48,0-2.88.06-4.27,0a3.24,3.24,0,0,1-2.84-4.36,3,3,0,0,1,2.76-2.23c1.13-.07,2.27,0,3.4,0h1c0-1.47,0-2.83,0-4.2a3.22,3.22,0,0,1,4.42-3.13,3.27,3.27,0,0,1,2,3.24c0,1.31,0,2.63,0,4.07h1.63c.87,0,1.73,0,2.59,0a3.31,3.31,0,0,1,0,6.61c-1.37,0-2.74,0-4.21,0,0,1.44,0,2.78,0,4.11A3.28,3.28,0,0,1,45.16,152a3.23,3.23,0,0,1-3.31-3.36C41.81,147.26,41.84,145.89,41.84,144.41Z" transform="translate(-2.21 -59)"/><path class="cls-7" d="M45,185.94c-1.06,1.18-1.95,2.28-2.95,3.25a3.08,3.08,0,0,1-4.81-.53,3.39,3.39,0,0,1,.43-4.31c.89-1,1.85-1.88,2.87-2.92l-2.76-2.82a3.4,3.4,0,0,1-1.07-3,3.17,3.17,0,0,1,2.09-2.66,2.83,2.83,0,0,1,3.17.62c1,1,1.94,2.1,3,3.25,1-1.11,1.93-2.08,2.86-3a3.17,3.17,0,0,1,3.71-.82,3.34,3.34,0,0,1,1.07,5.22c-.93,1.07-2,2-3.26,3.17,1.2,1.16,2.27,2.07,3.2,3.1a3.36,3.36,0,0,1-.36,4.9A3.06,3.06,0,0,1,48,189.1C47,188.16,46.15,187.13,45,185.94Z" transform="translate(-2.21 -59)"/><path class="cls-26" d="M83.61,182.76c2.48,0,5,0,7.44,0a3.16,3.16,0,0,1,3,2.59,3.34,3.34,0,0,1-1.82,3.74,4.27,4.27,0,0,1-1.58.3q-7,.06-14.09.05a3.23,3.23,0,0,1-3.42-2.78,3.3,3.3,0,0,1,2.31-3.74,5,5,0,0,1,1.28-.14c2.3,0,4.59,0,6.89,0Z" transform="translate(-2.21 -59)"/><path class="cls-26" d="M83.67,173.16c2.48,0,5,0,7.45,0A3.13,3.13,0,0,1,94,175.72a3.33,3.33,0,0,1-1.75,3.7,3.77,3.77,0,0,1-1.48.34q-7.2.06-14.41.05a3.32,3.32,0,0,1,0-6.64c2.43,0,4.86,0,7.29,0Z" transform="translate(-2.21 -59)"/><path class="cls-32" d="M302.8,64h76.93a7.06,7.06,0,0,1,7,7.06V116.2a7,7,0,0,1-7,7H330.9l-14.68,13.5v-13.5H302.8a7,7,0,0,1-7.05-7V71.06A7.05,7.05,0,0,1,302.8,64Z" transform="translate(-2.21 -59)"/><rect class="cls-31" x="303.79" y="13.84" width="70.54" height="40.64" rx="4.43"/><path class="cls-7" d="M348.6,94.75l-9,5.7a1.88,1.88,0,0,1-2.88-1.59V87.46a1.88,1.88,0,0,1,2.88-1.59l9,5.7A1.88,1.88,0,0,1,348.6,94.75Z" transform="translate(-2.21 -59)"/><path class="cls-33" d="M184.47,64H221a6.59,6.59,0,0,1,6.6,6.6v50.07a6.59,6.59,0,0,1-6.6,6.59h-2.54v9.34l-9.37-9.34H184.47a6.59,6.59,0,0,1-6.6-6.59V70.6A6.59,6.59,0,0,1,184.47,64Z" transform="translate(-2.21 -59)"/><path class="cls-34" d="M216.68,121.2l-27.92.19a4.3,4.3,0,0,1-4.33-4.31l-.08-43.21a4.36,4.36,0,0,1,4.32-4.37l27.91-.19a4.32,4.32,0,0,1,4.34,4.31l.07,43.22A4.35,4.35,0,0,1,216.68,121.2Z" transform="translate(-2.21 -59)"/><path class="cls-7" d="M204.86,96.46l-14.88.1a1,1,0,0,1-1-1v-.26a1,1,0,0,1,1-1l14.88-.1a1,1,0,0,1,1,1v.26A1,1,0,0,1,204.86,96.46Z" transform="translate(-2.21 -59)"/><path class="cls-31" d="M215.38,100.59l-25.39.17a1,1,0,0,1-1-1V99.5a1,1,0,0,1,1-1l25.39-.17a1,1,0,0,1,1,1v.26A1,1,0,0,1,215.38,100.59Z" transform="translate(-2.21 -59)"/><path class="cls-31" d="M215.38,104.8,190,105a1,1,0,0,1-1-1v-.27a1,1,0,0,1,1-1l25.39-.17a1,1,0,0,1,1,1v.26A1,1,0,0,1,215.38,104.8Z" transform="translate(-2.21 -59)"/><path class="cls-7" d="M215.39,109l-25.39.17a1,1,0,0,1-1-1v-.26a1,1,0,0,1,1-1l25.39-.17a1,1,0,0,1,1,1V108A1,1,0,0,1,215.39,109Z" transform="translate(-2.21 -59)"/><path class="cls-31" d="M215.33,96.39l-6.63,0a1,1,0,0,1-1-1v-.26a1,1,0,0,1,1-1l6.63-.05a1,1,0,0,1,1,1v.26A1,1,0,0,1,215.33,96.39Z" transform="translate(-2.21 -59)"/><path class="cls-31" d="M200.48,112.12l14.88-.1a1,1,0,0,1,1,1v.26a1,1,0,0,1-1,1l-14.88.1a1,1,0,0,1-1-1v-.26A1,1,0,0,1,200.48,112.12Z" transform="translate(-2.21 -59)"/><path class="cls-31" d="M190,112.19l6.63,0a1,1,0,0,1,1,1v.26a1,1,0,0,1-1,1l-6.63,0a1,1,0,0,1-1-1v-.26A1,1,0,0,1,190,112.19Z" transform="translate(-2.21 -59)"/><ellipse class="cls-26" cx="202.65" cy="81.77" rx="5.46" ry="5.43" transform="translate(31.22 161.04) rotate(-61.23)"/><path class="cls-33" d="M523.69,105.48h-87.8a16.43,16.43,0,0,0-16.21,16.63V208a16.42,16.42,0,0,0,16.21,16.63h4.6L441,245.4l26.53-20.78h56.2A16.42,16.42,0,0,0,539.9,208V122.11A16.43,16.43,0,0,0,523.69,105.48Z" transform="translate(-2.21 -59)"/><g id="Bd5NHv.tif"><path class="cls-34" d="M438.34,202.41l-.3-73.18a1.82,1.82,0,0,0,.11-.3c.51-3.13,3.27-5.33,6.82-5.33q35.4.08,70.79.06a9.08,9.08,0,0,1,2.21.25,6.38,6.38,0,0,1,4.79,6.52q.07,17.83.14,35.67l.15,35.18a6.72,6.72,0,0,1-1.46,4.43,7,7,0,0,1-4.14,2.33L444,208a20.24,20.24,0,0,1-3.05-1.33A6.35,6.35,0,0,1,438.34,202.41Zm38.82-45.89-.09-20.26a6,6,0,0,0-6-6H450.71a6,6,0,0,0-6,6l.08,20.25a6,6,0,0,0,6.05,6h20.31A6,6,0,0,0,477.16,156.52Zm-6,12.65H450.87a6,6,0,0,0-6,6l.08,20.23a6,6,0,0,0,6.05,6h20.33a6,6,0,0,0,6-6l-.08-20.23A6,6,0,0,0,471.21,169.17Z" transform="translate(-2.21 -59)"/></g><path class="cls-26" d="M500.86,182.29c3.33,0,6.65,0,10,0,2,0,3.64,1.14,4,2.55s-.58,3.08-2.43,3.65a7.37,7.37,0,0,1-2.11.3q-9.44,0-18.87,0c-2.5,0-4.3-1.13-4.59-2.74s.93-3.22,3.08-3.66a8.78,8.78,0,0,1,1.71-.13h9.22Z" transform="translate(-2.21 -59)"/><path class="cls-26" d="M500.9,192.14c3.33,0,6.65,0,10,0,2,0,3.65,1.14,4,2.55s-.58,3.08-2.43,3.65a7.74,7.74,0,0,1-2.11.3q-9.44,0-18.87,0c-2.5,0-4.29-1.12-4.59-2.74s.93-3.21,3.08-3.65a8.06,8.06,0,0,1,1.71-.13h9.22Z" transform="translate(-2.21 -59)"/><path class="cls-26" d="M500.91,172.47c3.33,0,6.65,0,10,0a4,4,0,0,1,3.92,2.52c.4,1.52-.51,3-2.33,3.62a6.28,6.28,0,0,1-2,.33c-6.44,0-12.87,0-19.31,0-2.63,0-4.45-1.41-4.43-3.28s1.82-3.19,4.39-3.22c3.25,0,6.51,0,9.76,0Z" transform="translate(-2.21 -59)"/><path class="cls-31" d="M454.37,152.19c-1.52-1.29-3.07-2.55-4.55-3.89-.81-.73-.84-1.83-.27-3.06a3.83,3.83,0,0,1,2.84-2.2,2.4,2.4,0,0,1,2,.66c1.63,1.4,3.27,2.78,4.9,4.17,1.29,1.1,2.6,2.18,3.85,3.32a2.44,2.44,0,0,1,.33,2.93,3.79,3.79,0,0,1-2.61,2.28,2.36,2.36,0,0,1-2.27-.56c-1.41-1.22-2.84-2.42-4.26-3.63Z" transform="translate(-2.21 -59)"/><path class="cls-31" d="M471.54,146.37c-2.64,2.7-5.25,5.44-7.94,8.09a4.49,4.49,0,0,1-4.47,1.47c-1.38-.4-2-1.77-1.57-3.45a7,7,0,0,1,2-3.23c2.85-2.9,5.68-5.82,8.53-8.72,2.25-2.29,4.48-4.6,6.77-6.85a4.54,4.54,0,0,1,4.3-1.51c1.41.35,2,1.41,1.82,3.08a6.51,6.51,0,0,1-2,3.56c-2.48,2.51-5,5.05-7.42,7.58Z" transform="translate(-2.21 -59)"/><path class="cls-7" d="M500.7,144.58c3.33,0,6.66,0,10,0,2,0,3.65,1.15,4,2.55s-.59,3.09-2.44,3.66a7.37,7.37,0,0,1-2.11.29q-9.43,0-18.87,0c-2.5,0-4.29-1.12-4.59-2.74s.94-3.22,3.08-3.66a8.83,8.83,0,0,1,1.71-.12h9.22Z" transform="translate(-2.21 -59)"/><path class="cls-7" d="M500.75,154.43c3.32,0,6.65,0,10,0,2,0,3.65,1.15,4,2.55s-.58,3.09-2.44,3.66a7.35,7.35,0,0,1-2.1.29q-9.45,0-18.88,0c-2.49,0-4.29-1.13-4.59-2.74s.94-3.22,3.08-3.66a9.7,9.7,0,0,1,1.71-.13h9.23Z" transform="translate(-2.21 -59)"/><path class="cls-7" d="M500.76,134.75c3.32,0,6.65,0,10,0a4,4,0,0,1,3.92,2.53c.41,1.51-.51,3-2.33,3.62a6.47,6.47,0,0,1-2,.32q-9.64,0-19.3,0c-2.63,0-4.45-1.42-4.44-3.29s1.82-3.19,4.39-3.21c3.26,0,6.51,0,9.77,0Z" transform="translate(-2.21 -59)"/></svg>