<svg width="209" height="72" viewBox="0 0 209 72" fill="none" xmlns="http://www.w3.org/2000/svg">
<g clip-path="url(#clip0)">
<path d="M208.834 28.2949V34.8633H199.668V28.2949H208.834ZM208.834 36.8844V71.9977H199.668V36.8844H204.228H208.834Z" fill="white"/>
<path d="M170.403 58.8118V72.0002H161.142L161.031 28.2949H170.74L170.405 51.4069L183.128 36.8538H193.083L180.556 50.5609L194.037 72.0002H183.919L174.394 56.0824L170.403 58.8118Z" fill="white"/>
<path d="M155.463 28.2949V34.8633H146.297V28.2949H155.463ZM155.463 36.9271V71.9977H146.297V36.9271H155.463Z" fill="white"/>
<path d="M100.974 54.7074V72H91.5855V45.0351C91.5855 43.104 91.5574 41.4912 91.501 40.199C91.4447 38.9065 91.3792 37.8836 91.3125 36.8842H100.204C100.247 37.0785 100.363 37.392 100.406 38.066C100.45 38.7401 100.496 39.4947 100.539 40.3301C100.583 41.1656 100.624 41.953 100.657 42.6902C100.69 43.4297 100.708 43.9597 100.708 44.2853H100.841C101.732 41.8547 102.545 40.1055 103.28 39.043C103.991 38.0231 104.838 37.2735 105.818 36.7963C106.798 36.3193 108.024 36.0796 109.493 36.0796C110.696 36.0796 111.665 36.241 112.4 36.5667V44.2199C110.908 43.8942 109.57 43.7326 108.39 43.7326C106.051 43.7326 104.229 44.6564 102.927 46.5017C101.627 48.3466 100.974 51.0829 100.974 54.7074Z" fill="white"/>
<path d="M24.2178 64.5614C30.303 64.5614 34.5149 61.6973 36.8565 55.9716L45.6104 59.0808C43.7246 63.4407 40.9608 66.6827 37.317 68.8091C33.673 70.9353 29.305 71.9973 24.2203 71.9973C19.0871 71.9973 14.7164 71.0732 11.1058 69.2252C7.49512 67.3769 4.74171 64.6993 2.84555 61.1943C0.949364 57.6895 0 53.4802 0 48.5637C0 43.6063 0.90842 39.4174 2.72527 35.9993C4.54211 32.5815 7.22133 29.9776 10.7654 28.1933C14.307 26.4089 18.6444 25.5156 23.7776 25.5156C29.4098 25.5156 33.998 26.58 37.5396 28.7064C41.0836 30.8328 43.5685 33.9573 44.9989 38.0825L36.1424 40.3595C35.3926 38.0952 33.9211 36.2929 31.7308 34.958C29.5377 33.6228 26.9558 32.9541 23.9823 32.9541C19.4402 32.9541 15.9933 34.2789 13.6443 36.9285C11.2951 39.5784 10.118 43.4583 10.118 48.5637C10.118 52.025 10.658 54.9429 11.7353 57.3144C12.8126 59.6858 14.4042 61.4878 16.5051 62.7156C18.6035 63.9487 21.1752 64.5614 24.2178 64.5614Z" fill="white"/>
<path d="M128.785 54.73V72.0002H119.397V45.0704C119.397 43.1418 119.368 41.531 119.312 40.2403C119.256 38.9496 119.207 37.8825 119.141 36.8844H128.097C128.14 37.0784 128.174 37.4374 128.217 38.1104C128.261 38.7834 128.307 39.537 128.35 40.3714C128.394 41.2059 128.435 41.9923 128.468 42.7285C128.501 43.4669 128.519 43.9964 128.519 44.3216H128.652C129.543 41.894 130.356 40.1471 131.091 39.0858C131.802 38.0674 132.649 37.3189 133.629 36.8424C134.609 36.366 135.835 36.1265 137.304 36.1265C138.507 36.1265 139.476 36.2876 140.211 36.613V44.2561C138.719 43.9308 137.381 43.7696 136.201 43.7696C133.862 43.7696 132.04 44.6922 130.738 46.5349C129.435 48.3776 128.785 51.11 128.785 54.73Z" fill="white"/>
<path d="M84.2391 63.6428V41.4316C81.624 43.8647 78.4407 45.3004 74.9094 46.358V55.3486C74.9094 58.2615 74.2159 60.6491 72.834 62.5095C71.4496 64.3696 69.6302 65.301 67.3706 65.301C65.2442 65.301 63.6525 64.5414 62.588 63.0218C61.5261 61.5022 60.9938 59.2331 60.9938 56.2119V46.358C57.4522 45.2701 54.269 43.9026 51.6641 41.4316V58.7612C51.6641 63.0976 52.6823 66.3889 54.7194 68.633C56.7562 70.8769 59.6786 71.9975 63.4863 71.9975C66.1194 71.9975 68.3942 71.4018 70.311 70.2104C72.225 69.019 73.8038 67.1159 75.0423 64.5009H75.2088C75.2088 65.2455 75.242 66.1921 75.3085 67.3405C75.375 68.489 75.7513 70.4653 75.8843 71.9975H84.5078C84.4182 70.892 84.3517 69.0594 84.3083 67.7723C84.2622 66.4874 84.2391 65.1093 84.2391 63.6428Z" fill="white"/>
<path d="M81.6565 29.7933C76.3461 31.8373 70.3382 32.0213 64.7433 30.604C61.2383 29.6624 57.8315 28.1497 54.8023 26.0352C54.7975 26.161 54.7874 26.287 54.7824 26.4128C54.6714 28.8444 54.8377 31.2962 55.4043 33.6472C55.9506 35.9984 56.8925 38.2663 58.3175 40.1694C59.7276 42.0798 61.6891 43.5499 63.9377 44.2446C66.1885 44.9219 68.6588 44.7986 70.92 43.9904C73.1936 43.2 75.2711 41.8282 77.0663 40.1593C80.4025 37.0405 82.7972 32.9651 84.2877 28.6052C84.0612 28.7211 83.8346 28.8368 83.6053 28.9503C82.9834 29.2999 82.3163 29.5291 81.6565 29.7933Z" fill="white"/>
<path d="M70.4365 6.4568C71.3654 6.89981 72.33 7.27487 73.3169 7.59707C75.291 8.2138 77.3483 8.6795 79.4457 8.69458C80.4882 8.69711 81.5483 8.5813 82.5303 8.21883C82.8876 8.09802 83.2202 7.92181 83.5323 7.71538C83.1974 7.12132 82.8297 6.54489 82.4193 5.99865C80.9238 3.9874 78.796 2.43428 76.3839 1.73954C75.1753 1.40978 73.9163 1.29147 72.675 1.37202C71.4286 1.45006 70.2098 1.76471 69.0539 2.21277C68.1124 2.58784 67.2211 3.06357 66.375 3.60981C66.8056 4.07046 67.2966 4.4984 67.8202 4.88606C68.6286 5.48262 69.5149 6.00117 70.4365 6.4568Z" fill="white"/>
<path d="M87.9886 26.071L87.1577 26.7177C86.8757 26.9266 86.6089 27.1634 86.3142 27.3521L85.5136 27.853C84.1488 32.7693 81.6914 37.4639 77.9974 41.1162C76.8971 42.1937 75.6785 43.1703 74.3516 43.9858C83.3229 41.3403 89.9378 33.2424 90.3808 23.5537C89.8796 24.1855 89.3383 24.7871 88.7566 25.3409L87.9886 26.071Z" fill="white"/>
<path d="M85.4613 13.0617C85.0633 11.3551 84.4641 9.67861 83.6206 8.13556C83.3034 8.35204 82.9709 8.54336 82.6082 8.67172C81.6113 9.08454 80.5411 9.29347 79.4684 9.40675C78.3933 9.52003 77.308 9.52003 76.2254 9.43947C75.1451 9.34382 74.0726 9.15503 73.015 8.89828C71.965 8.61384 70.9301 8.2715 69.9178 7.85112C68.913 7.41816 67.9313 6.91219 67.0021 6.29549C66.3347 5.84992 65.6877 5.34901 65.1035 4.75244C64.3532 5.3339 63.6456 5.97328 62.9833 6.64789C61.2585 8.41749 59.8434 10.4615 58.6878 12.6263C58.0984 13.7036 57.5925 14.8238 57.1392 15.9641C56.681 17.1019 56.2906 18.2648 55.9608 19.4454C55.6889 20.417 55.4572 21.3987 55.2734 22.388C58.149 25.021 61.7094 27.002 65.5012 28.2406C68.0243 29.046 70.6532 29.547 73.317 29.7056C75.981 29.8615 78.6905 29.65 81.3015 28.9578C81.9487 28.7641 82.6108 28.6054 83.2304 28.3336C83.7088 28.1449 84.1973 27.9688 84.6605 27.7447C85.3681 25.3935 85.8515 22.9645 85.9925 20.5051C86.1487 18.0232 86.0102 15.506 85.4613 13.0617Z" fill="white"/>
<path d="M84.0977 7.89921C84.9589 9.47247 85.5808 11.1791 85.9861 12.9286C87.0889 17.5754 86.7945 22.4839 85.5305 27.0929L85.7041 27.0073C86.0063 26.8539 86.2833 26.6549 86.5754 26.4788L87.4415 25.9351L88.2347 25.2957C88.9976 24.6739 89.6951 23.9716 90.3145 23.2064C90.3221 23.0528 90.3347 22.8993 90.3398 22.7457C90.5134 16.8378 88.3808 11.4007 84.7575 7.29004C84.6165 7.46625 84.4578 7.62735 84.2864 7.77082C84.2235 7.81362 84.1606 7.85641 84.0977 7.89921Z" fill="white"/>
<path d="M65.1403 1.65632C65.2788 2.04397 65.4451 2.45428 65.7322 2.83187C65.7875 2.90989 65.853 2.98542 65.9134 3.06346C66.8653 2.53736 67.8575 2.0918 68.8898 1.75701C71.1836 0.986749 73.6965 0.835713 76.0257 1.4474C73.5605 0.513512 70.8889 0 68.0965 0C67.1698 0 66.2583 0.0629285 65.362 0.171168C65.2715 0.299545 65.1934 0.432963 65.1381 0.576445C65.0474 0.901165 65.0474 1.26364 65.1403 1.65632Z" fill="white"/>
<path d="M82.5676 5.88277C82.9906 6.42146 83.3757 6.99034 83.7283 7.57685C83.7813 7.5391 83.8342 7.50386 83.8844 7.46357C84.0482 7.31002 84.1943 7.14389 84.3226 6.96265C83.1642 5.74683 81.8752 4.6594 80.4727 3.72803C81.2507 4.36489 81.9558 5.08734 82.5676 5.88277Z" fill="white"/>
<path d="M52.7096 19.3772C52.9992 19.7472 53.304 20.1047 53.6186 20.4546C53.7622 19.8479 53.9234 19.2438 54.0973 18.6472C54.8776 16.1703 55.9127 13.7689 57.2925 11.5663C58.6672 9.36626 60.3341 7.34998 62.2731 5.64078C62.993 5.00394 63.7585 4.41238 64.5593 3.88125C64.5265 3.8435 64.4939 3.80826 64.461 3.76797C64.0835 3.31487 63.7863 2.75355 63.5546 2.15193C63.3959 1.64093 63.3279 1.07205 63.3959 0.495605C57.3102 1.797 52.1408 5.56527 48.9883 10.7054C49.0537 11.3876 49.1695 12.0722 49.3408 12.7494C49.9349 15.1156 51.1285 17.381 52.7096 19.3772Z" fill="white"/>
<path d="M53.5363 34.1159C52.8916 31.5659 52.6549 28.9329 52.7658 26.325C52.7933 25.7435 52.8414 25.1621 52.9018 24.5831C51.8442 23.7021 50.8445 22.7405 49.9203 21.6908C48.5658 20.1252 47.3925 18.3631 46.5009 16.4399C45.9799 18.3379 45.6953 20.3316 45.6953 22.3957C45.6953 31.1002 50.6658 38.6393 57.9225 42.3472C57.5776 41.9922 57.2551 41.6196 56.9532 41.232C55.2962 39.1251 54.2009 36.6556 53.5363 34.1159Z" fill="white"/>
</g>
<defs>
<clipPath id="clip0">
<rect width="208.832" height="72" fill="white"/>
</clipPath>
</defs>
</svg>
