<svg width="150" height="150" viewBox="0 0 150 150" fill="none" xmlns="http://www.w3.org/2000/svg">
<g clip-path="url(#clip0)">
<path d="M119.403 49.4516H108.677V32.5968C108.677 31.7513 107.993 31.0645 107.145 31.0645H102.548V29.5323C102.548 28.6868 101.864 28 101.016 28H83.372C80.8334 28 78.4273 28.8784 76.5 30.4899C74.5742 28.8784 72.1681 28 69.628 28H51.9839C51.1362 28 50.4516 28.6868 50.4516 29.5323V31.0645H45.8548C45.0072 31.0645 44.3226 31.7513 44.3226 32.5968V49.4516H33.5968C31.0627 49.4516 29 51.5143 29 54.0484V100.016C29 102.55 31.0627 104.613 33.5968 104.613H64.2419V110.742H62.7097C56.7969 110.742 51.9839 115.555 51.9839 121.468C51.9839 122.315 52.6684 123 53.5161 123H99.4839C100.332 123 101.016 122.315 101.016 121.468C101.016 115.555 96.2031 110.742 90.2903 110.742H88.7581V104.613H119.403C121.937 104.613 124 102.55 124 100.016V54.0484C124 51.5143 121.937 49.4516 119.403 49.4516ZM105.613 34.129V77.0323H81.0968V73.9677H101.016C101.864 73.9677 102.548 73.2809 102.548 72.4355V34.129H105.613ZM53.5161 67.8387H69.628C71.6735 67.8387 73.5978 68.6355 75.0441 70.0817L75.4151 70.4543C75.7017 70.7424 76.0922 70.9032 76.5 70.9032C76.9078 70.9032 77.2983 70.7424 77.5849 70.4543L77.9544 70.0832C79.4037 68.6355 81.3265 67.8387 83.372 67.8387H99.4839V70.9032H53.5161V67.8387ZM74.9677 73.9677H78.0323V78.5645C78.0323 79.41 77.3454 80.0968 76.5 80.0968C75.6546 80.0968 74.9677 79.41 74.9677 78.5645V73.9677ZM99.4839 31.0645V64.7742H83.372C81.4694 64.7742 79.6393 65.2672 78.0323 66.1927V51.6318C79.4725 50.2297 81.3616 49.4516 83.372 49.4516H96.4194V46.3871H83.372C81.4694 46.3871 79.6393 46.8801 78.0323 47.8056V33.2447C79.4725 31.8426 81.3616 31.0645 83.372 31.0645H99.4839ZM53.5161 31.0645H69.628C71.6399 31.0645 73.529 31.8426 74.9677 33.2447V47.8056C73.3607 46.8801 71.5321 46.3871 69.628 46.3871H56.5806V49.4516H69.628C71.6399 49.4516 73.529 50.2297 74.9677 51.6318V66.1927C73.3607 65.2672 71.5321 64.7742 69.628 64.7742H53.5161V31.0645ZM47.3871 34.129H50.4516V72.4355C50.4516 73.2809 51.1362 73.9677 51.9839 73.9677H71.9032V77.0323H47.3871V34.129ZM97.7967 119.935H55.2033C55.9155 116.444 59.0092 113.806 62.7097 113.806H90.2903C93.9908 113.806 97.086 116.444 97.7967 119.935ZM85.6935 110.742H67.3064V104.613H85.6935V110.742ZM120.935 100.016C120.935 100.862 120.249 101.548 119.403 101.548H33.5968C32.7513 101.548 32.0645 100.862 32.0645 100.016V54.0484C32.0645 53.2044 32.7513 52.5161 33.5968 52.5161H44.3226V78.5645C44.3226 79.4122 45.0072 80.0968 45.8548 80.0968H72.1853C72.8197 81.8759 74.5054 83.1613 76.5 83.1613C78.4946 83.1613 80.1803 81.8759 80.8147 80.0968H107.145C107.993 80.0968 108.677 79.4122 108.677 78.5645V52.5161H119.403C120.249 52.5161 120.935 53.2044 120.935 54.0484V100.016Z" fill="#285AA5"/>
<path d="M58.1133 43.3225H64.2423C65.09 43.3225 65.7746 42.6356 65.7746 41.7902V35.6612C65.7746 34.8157 65.09 34.1289 64.2423 34.1289H58.1133C57.2656 34.1289 56.5811 34.8157 56.5811 35.6612V41.7902C56.5811 42.6356 57.2656 43.3225 58.1133 43.3225ZM59.6456 37.1934H62.7101V40.2579H59.6456V37.1934Z" fill="#285AA5"/>
<path d="M94.8869 52.5161H88.7578C87.9102 52.5161 87.2256 53.2029 87.2256 54.0484V60.1774C87.2256 61.0228 87.9102 61.7097 88.7578 61.7097H94.8869C95.7346 61.7097 96.4191 61.0228 96.4191 60.1774V54.0484C96.4191 53.2029 95.7346 52.5161 94.8869 52.5161ZM93.3546 58.6451H90.2901V55.5806H93.3546V58.6451Z" fill="#285AA5"/>
<path d="M56.5811 52.5161H68.8391V55.5806H56.5811V52.5161Z" fill="#285AA5"/>
<path d="M56.5811 58.645H68.8391V61.7095H56.5811V58.645Z" fill="#285AA5"/>
<path d="M84.1611 40.2583H96.4192V43.3228H84.1611V40.2583Z" fill="#285AA5"/>
<path d="M84.1611 34.1289H96.4192V37.1934H84.1611V34.1289Z" fill="#285AA5"/>
<path d="M101.016 83.1611C97.3168 83.1611 94.2217 85.7984 93.5094 89.2902H59.49C58.7777 85.7984 55.684 83.1611 51.9836 83.1611C47.7594 83.1611 44.3223 86.5982 44.3223 90.8224C44.3223 95.0466 47.7594 98.4837 51.9836 98.4837C55.6825 98.4837 58.7777 95.8464 59.49 92.3547H93.5094C94.2217 95.8464 97.3153 98.4837 101.016 98.4837C105.24 98.4837 108.677 95.0466 108.677 90.8224C108.677 86.5982 105.24 83.1611 101.016 83.1611ZM51.9836 95.4192C49.4495 95.4192 47.3868 93.3565 47.3868 90.8224C47.3868 88.2884 49.4495 86.2256 51.9836 86.2256C54.5176 86.2256 56.5803 88.2884 56.5803 90.8224C56.5803 93.3565 54.5176 95.4192 51.9836 95.4192ZM101.016 95.4192C98.4818 95.4192 96.419 93.3565 96.419 90.8224C96.419 88.2884 98.4818 86.2256 101.016 86.2256C103.55 86.2256 105.613 88.2884 105.613 90.8224C105.613 93.3565 103.55 95.4192 101.016 95.4192Z" fill="#285AA5"/>
</g>
<circle cx="75" cy="75" r="72.5" stroke="#084892" stroke-width="5"/>
<defs>
<clipPath id="clip0">
<rect width="95" height="95" fill="white" transform="translate(29 28)"/>
</clipPath>
</defs>
</svg>
