<svg width="204" height="172" viewBox="0 0 204 172" fill="none" xmlns="http://www.w3.org/2000/svg">
<path d="M124.785 -9.99841L85.3171 -21.3113C84.5753 -21.49 83.7976 -21.3769 83.1235 -20.9922L2.95071 29.2892C2.28624 29.7059 1.80084 30.3903 1.60129 31.1918C1.40174 31.9933 1.50439 32.8463 1.88666 33.5631L91.2501 201.123C91.6324 201.84 92.2629 202.362 93.0031 202.574C93.7432 202.786 94.5324 202.671 95.1968 202.254L200.424 136.26C201.088 135.843 201.573 135.159 201.773 134.357C201.973 133.556 201.87 132.703 201.488 131.986L126.538 -8.54808C126.135 -9.2453 125.513 -9.76043 124.785 -9.99841ZM116.543 -5.8861L100.042 4.46229L90.5498 -13.3366L116.543 -5.8861ZM94.8195 195.278L8.3388 33.123L83.5008 -14.0158L96.4729 10.3075C96.8552 11.0242 97.4857 11.5461 98.2259 11.7582C98.966 11.9704 99.7552 11.8555 100.42 11.4387L122.968 -2.70291L195.036 132.426L94.8195 195.278Z" fill="#96A5BC"/>
<path d="M65.5392 63.1953L60.9761 81.5349L55.8788 80.073C55.1445 79.8771 54.3672 80.0016 53.7143 80.4196C53.0614 80.8375 52.5851 81.5156 52.3881 82.3076C52.191 83.0997 52.2889 83.9424 52.6607 84.6543C53.0325 85.3662 53.6484 85.8903 54.3758 86.1137L62.2607 88.3752C62.6267 88.4804 63.0086 88.5063 63.3846 88.4516C63.7606 88.3969 64.1232 88.2626 64.4519 88.0563C64.7805 87.8501 65.0687 87.5759 65.2999 87.2496C65.5311 86.9233 65.7008 86.5511 65.7994 86.1544L71.1138 64.7942C71.2982 63.9987 71.1867 63.158 70.8035 62.4532C70.4203 61.7485 69.796 61.2362 69.065 61.0265C68.3341 60.8168 67.555 60.9267 66.8955 61.3323C66.236 61.738 65.749 62.407 65.5392 63.1953Z" fill="#96A5BC"/>
<path d="M56.2863 104.015L76.3158 91.448C76.9798 91.0313 77.4649 90.3471 77.6643 89.5458C77.8637 88.7445 77.7612 87.8917 77.3791 87.1752L74.4984 81.7713C74.1164 81.0547 73.4863 80.533 72.7466 80.3209C72.007 80.1088 71.2184 80.2237 70.5544 80.6403C69.8903 81.057 69.4053 81.7412 69.2058 82.5425C69.0064 83.3438 69.109 84.1966 69.491 84.9131L70.9314 87.6151L55.9092 97.0405L47.267 80.829L59.7855 72.9745C60.4495 72.5579 60.9346 71.8736 61.134 71.0723C61.3334 70.271 61.2308 69.4183 60.8488 68.7017C60.4668 67.9851 59.8367 67.4634 59.097 67.2513C58.3574 67.0391 57.5688 67.1541 56.9048 67.5707L41.8826 76.9961C41.2186 77.4127 40.7335 78.097 40.5341 78.8983C40.3347 79.6996 40.4373 80.5523 40.8193 81.2689L52.3422 102.884C52.7242 103.601 53.3543 104.123 54.094 104.335C54.8337 104.547 55.6222 104.432 56.2863 104.015Z" fill="#96A5BC"/>
<path d="M85.801 101.064L81.2379 119.404L76.1405 117.942C75.4062 117.746 74.6289 117.87 73.976 118.288C73.3231 118.706 72.8468 119.384 72.6498 120.176C72.4527 120.968 72.5506 121.811 72.9224 122.523C73.2942 123.235 73.9101 123.759 74.6376 123.982L82.5224 126.244C82.8884 126.349 83.2703 126.375 83.6463 126.32C84.0223 126.266 84.385 126.131 84.7136 125.925C85.0422 125.719 85.3304 125.445 85.5616 125.118C85.7928 124.792 85.9626 124.42 86.0611 124.023L91.3755 102.663C91.5599 101.867 91.4484 101.027 91.0652 100.322C90.682 99.6172 90.0577 99.1048 89.3268 98.8951C88.5958 98.6855 87.8167 98.7953 87.1572 99.201C86.4978 99.6066 86.0107 100.276 85.801 101.064Z" fill="#96A5BC"/>
<path d="M76.5441 141.884L96.5736 129.317C97.2377 128.9 97.7227 128.216 97.9221 127.415C98.1216 126.614 98.019 125.761 97.637 125.044L94.7562 119.64C94.3742 118.924 93.7441 118.402 93.0044 118.19C92.2648 117.978 91.4762 118.093 90.8122 118.509C90.1482 118.926 89.6631 119.61 89.4637 120.412C89.2643 121.213 89.3668 122.066 89.7488 122.782L91.1892 125.484L76.167 134.91L67.5248 118.698L80.0433 110.844C80.7073 110.427 81.1924 109.743 81.3918 108.941C81.5912 108.14 81.4887 107.287 81.1066 106.571C80.7246 105.854 80.0945 105.332 79.3548 105.12C78.6152 104.908 77.8266 105.023 77.1626 105.44L62.1404 114.865C61.4764 115.282 60.9913 115.966 60.7919 116.767C60.5925 117.569 60.6951 118.421 61.0771 119.138L72.6 140.753C72.982 141.47 73.6122 141.992 74.3518 142.204C75.0915 142.416 75.88 142.301 76.5441 141.884Z" fill="#96A5BC"/>
<path d="M106.067 138.933L101.503 157.273L96.4061 155.811C95.6718 155.615 94.8945 155.739 94.2416 156.157C93.5887 156.575 93.1125 157.253 92.9154 158.045C92.7183 158.837 92.8162 159.68 93.188 160.392C93.5598 161.104 94.1758 161.628 94.9032 161.851L102.788 164.113C103.154 164.218 103.536 164.244 103.912 164.189C104.288 164.135 104.651 164 104.979 163.794C105.308 163.588 105.596 163.314 105.827 162.987C106.058 162.661 106.228 162.289 106.327 161.892L111.641 140.532C111.825 139.736 111.714 138.896 111.331 138.191C110.948 137.486 110.323 136.974 109.592 136.764C108.861 136.555 108.082 136.664 107.423 137.07C106.763 137.476 106.276 138.145 106.067 138.933Z" fill="#96A5BC"/>
<path d="M111.078 156.379C110.414 156.796 109.929 157.48 109.729 158.281C109.53 159.083 109.632 159.935 110.014 160.652L111.455 163.354L96.4327 172.779L87.7905 156.568L100.309 148.713C100.973 148.297 101.458 147.612 101.657 146.811C101.857 146.01 101.754 145.157 101.372 144.44C100.99 143.724 100.36 143.202 99.6205 142.99C98.8808 142.778 98.0922 142.893 97.4282 143.309L82.406 152.735C81.742 153.152 81.2569 153.836 81.0575 154.637C80.8581 155.438 80.9607 156.291 81.3427 157.008L92.8656 178.623C93.2476 179.34 93.8778 179.861 94.6174 180.073C95.3571 180.285 96.1457 180.171 96.8097 179.754L116.839 167.187C117.503 166.77 117.988 166.086 118.188 165.285C118.387 164.483 118.285 163.63 117.903 162.914L115.022 157.51C114.64 156.794 114.01 156.272 113.27 156.06C112.53 155.848 111.742 155.962 111.078 156.379Z" fill="#96A5BC"/>
<path d="M40.0514 63.3911C40.8072 63.2513 41.4823 62.7936 41.9291 62.118C42.3758 61.4425 42.5577 60.6042 42.4349 59.7867L41.7564 55.3382L49.5551 50.4463L52.7718 53.3026C53.3632 53.8273 54.1242 54.0754 54.8873 53.9922C55.6504 53.9091 56.3531 53.5016 56.8409 52.8594C57.3286 52.2172 57.5614 51.3928 57.4881 50.5677C57.4147 49.7426 57.0413 48.9843 56.4498 48.4596L37.4082 31.5545C36.9543 31.1522 36.3971 30.9098 35.8111 30.8596C35.225 30.8094 34.638 30.9539 34.1282 31.2736C33.6185 31.5934 33.2103 32.0733 32.9581 32.6492C32.7059 33.2252 32.6218 33.8699 32.7169 34.4972L36.7303 60.8292C36.8554 61.6465 37.2754 62.3752 37.898 62.8555C38.5206 63.3358 39.295 63.5284 40.0514 63.3911ZM39.6725 41.6714L44.7949 46.2198L40.7528 48.7553L39.6725 41.6714Z" fill="#96A5BC"/>
<path d="M59.4435 22.5597L84.4281 6.87027C85.0908 6.45415 85.5748 5.77078 85.7738 4.97047C85.9728 4.17016 85.8705 3.31847 85.4892 2.60278C85.108 1.88708 84.4792 1.36599 83.7411 1.15415C83.003 0.942309 82.2161 1.05706 81.5534 1.47318L56.5688 17.1626C55.9061 17.5787 55.4221 18.2621 55.2231 19.0624C55.0241 19.8627 55.1265 20.7144 55.5077 21.4301C55.8889 22.1458 56.5177 22.6669 57.2558 22.8787C57.9939 23.0906 58.7809 22.9758 59.4435 22.5597Z" fill="#96A5BC"/>
<path d="M65.2355 33.3782L75.2349 27.0998C75.8979 26.6835 76.3822 25.9998 76.5813 25.1991C76.7805 24.3985 76.678 23.5464 76.2966 22.8304C75.9152 22.1144 75.286 21.5931 74.5475 21.3812C73.809 21.1693 73.0216 21.2841 72.3586 21.7004L62.3592 27.9788C61.6962 28.3951 61.2119 29.0788 61.0128 29.8795C60.8137 30.6801 60.9161 31.5322 61.2975 32.2482C61.6789 32.9642 62.3081 33.4855 63.0466 33.6974C63.7852 33.9093 64.5725 33.7945 65.2355 33.3782Z" fill="#96A5BC"/>
<path d="M71.0208 44.1978L105.994 22.2357C106.656 21.8197 107.14 21.1364 107.339 20.3362C107.538 19.536 107.436 18.6844 107.055 17.9688C106.674 17.2532 106.045 16.7322 105.307 16.5204C104.569 16.3086 103.782 16.4233 103.12 16.8394L68.1465 38.8015C67.484 39.2176 67 39.9009 66.801 40.701C66.6021 41.5012 66.7044 42.3528 67.0856 43.0684C67.4667 43.784 68.0955 44.305 68.8334 44.5168C69.5714 44.7286 70.3583 44.6139 71.0208 44.1978Z" fill="#96A5BC"/>
<path d="M126.785 23.6627L76.8298 55.0332C76.1673 55.4492 75.6834 56.1324 75.4845 56.9324C75.2855 57.7325 75.3879 58.584 75.769 59.2995C76.1501 60.015 76.7787 60.536 77.5166 60.7477C78.2545 60.9595 79.0412 60.8448 79.7037 60.4288L129.659 29.0584C130.321 28.6424 130.805 27.9592 131.004 27.1591C131.203 26.359 131.101 25.5075 130.72 24.792C130.338 24.0765 129.71 23.5556 128.972 23.3438C128.234 23.132 127.447 23.2467 126.785 23.6627Z" fill="#96A5BC"/>
<path d="M85.4933 71.2476L122.963 47.7173C123.626 47.3013 124.11 46.618 124.309 45.8178C124.508 45.0177 124.405 44.1661 124.024 43.4505C123.643 42.735 123.014 42.214 122.277 42.0022C121.539 41.7904 120.752 41.9051 120.089 42.3211L82.6191 65.8514C81.9566 66.2674 81.4726 66.9507 81.2737 67.7508C81.0747 68.551 81.177 69.4026 81.5582 70.1181C81.9393 70.8337 82.568 71.3547 83.306 71.5665C84.044 71.7783 84.8308 71.6636 85.4933 71.2476Z" fill="#96A5BC"/>
<path d="M91.2824 82.0684L128.753 58.5381C129.415 58.1221 129.899 57.4388 130.098 56.6386C130.297 55.8385 130.195 54.9869 129.813 54.2713C129.432 53.5558 128.804 53.0348 128.066 52.823C127.328 52.6112 126.541 52.7259 125.878 53.1419L88.4082 76.6722C87.7457 77.0882 87.2617 77.7715 87.0627 78.5716C86.8638 79.3718 86.9661 80.2234 87.3473 80.9389C87.7284 81.6545 88.3571 82.1755 89.0951 82.3873C89.8331 82.5991 90.6198 82.4844 91.2824 82.0684Z" fill="#96A5BC"/>
<path d="M147.047 61.5318L97.0915 92.9023C96.4291 93.3183 95.9451 94.0015 95.7462 94.8016C95.5473 95.6017 95.6496 96.4531 96.0307 97.1687C96.4118 97.8842 97.0404 98.4051 97.7783 98.6169C98.5162 98.8287 99.303 98.714 99.9654 98.298L149.92 66.9275C150.583 66.5115 151.067 65.8283 151.266 65.0282C151.465 64.2281 151.362 63.3766 150.981 62.6611C150.6 61.9456 149.972 61.4246 149.234 61.2129C148.496 61.0011 147.709 61.1158 147.047 61.5318Z" fill="#96A5BC"/>
<path d="M105.755 109.116L143.225 85.586C143.888 85.1699 144.372 84.4867 144.571 83.6865C144.77 82.8863 144.667 82.0348 144.286 81.3192C143.905 80.6036 143.276 80.0826 142.538 79.8708C141.8 79.659 141.013 79.7737 140.351 80.1898L102.881 103.72C102.218 104.136 101.734 104.819 101.535 105.619C101.336 106.42 101.439 107.271 101.82 107.987C102.201 108.702 102.83 109.223 103.568 109.435C104.306 109.647 105.092 109.532 105.755 109.116Z" fill="#96A5BC"/>
<path d="M111.544 119.937L149.014 96.4068C149.677 95.9908 150.161 95.3075 150.36 94.5073C150.559 93.7072 150.456 92.8556 150.075 92.14C149.694 91.4245 149.065 90.9035 148.327 90.6917C147.589 90.4799 146.803 90.5946 146.14 91.0106L108.67 114.541C108.007 114.957 107.523 115.64 107.324 116.44C107.125 117.24 107.228 118.092 107.609 118.808C107.99 119.523 108.619 120.044 109.357 120.256C110.095 120.468 110.882 120.353 111.544 119.937Z" fill="#96A5BC"/>
<path d="M167.308 99.4005L117.353 130.771C116.691 131.187 116.207 131.87 116.008 132.67C115.809 133.47 115.911 134.322 116.292 135.037C116.674 135.753 117.302 136.274 118.04 136.486C118.778 136.697 119.565 136.583 120.227 136.167L170.182 104.796C170.845 104.38 171.329 103.697 171.527 102.897C171.726 102.097 171.624 101.245 171.243 100.53C170.862 99.8143 170.233 99.2933 169.495 99.0815C168.757 98.8697 167.971 98.9845 167.308 99.4005Z" fill="#96A5BC"/>
<path d="M160.613 118.059L123.143 141.59C122.48 142.006 121.996 142.689 121.797 143.489C121.598 144.289 121.7 145.141 122.082 145.856C122.463 146.572 123.091 147.093 123.829 147.305C124.567 147.517 125.354 147.402 126.017 146.986L163.487 123.456C164.149 123.04 164.633 122.356 164.832 121.556C165.031 120.756 164.929 119.904 164.548 119.189C164.167 118.473 163.538 117.952 162.8 117.74C162.062 117.529 161.275 117.643 160.613 118.059Z" fill="#96A5BC"/>
<path d="M166.402 128.88L128.932 152.41C128.269 152.826 127.785 153.51 127.586 154.31C127.387 155.11 127.49 155.962 127.871 156.677C128.252 157.393 128.881 157.914 129.619 158.126C130.356 158.337 131.143 158.223 131.806 157.807L169.276 134.276C169.938 133.86 170.422 133.177 170.621 132.377C170.82 131.577 170.718 130.725 170.337 130.01C169.956 129.294 169.327 128.773 168.589 128.561C167.851 128.349 167.064 128.464 166.402 128.88Z" fill="#96A5BC"/>
<path d="M132.569 34.4827L127.567 37.6229C126.904 38.0393 126.42 38.7232 126.22 39.5241C126.021 40.325 126.124 41.1773 126.505 41.8935C126.887 42.6097 127.516 43.1312 128.255 43.3432C128.994 43.5552 129.782 43.4404 130.445 43.0239L135.447 39.8837C136.11 39.4673 136.595 38.7834 136.794 37.9825C136.993 37.1817 136.891 36.3293 136.509 35.6131C136.128 34.8969 135.498 34.3754 134.759 34.1634C134.021 33.9514 133.233 34.0663 132.569 34.4827Z" fill="#96A5BC"/>
<path d="M138.359 45.3035L133.356 48.4437C132.693 48.8601 132.209 49.544 132.009 50.3449C131.81 51.1458 131.913 51.9981 132.294 52.7143C132.676 53.4305 133.305 53.952 134.044 54.164C134.783 54.376 135.571 54.2611 136.234 53.8447L141.236 50.7045C141.9 50.2881 142.384 49.6043 142.583 48.8034C142.782 48.0025 142.68 47.1502 142.298 46.434C141.917 45.7177 141.287 45.1963 140.548 44.9843C139.81 44.7723 139.022 44.8871 138.359 45.3035Z" fill="#96A5BC"/>
<path d="M152.827 72.3514L147.825 75.4916C147.162 75.908 146.677 76.5918 146.478 77.3927C146.279 78.1936 146.381 79.0459 146.763 79.7622C147.145 80.4784 147.774 80.9998 148.513 81.2118C149.252 81.4238 150.04 81.309 150.703 80.8926L155.705 77.7524C156.368 77.336 156.853 76.6521 157.052 75.8512C157.251 75.0503 157.149 74.198 156.767 73.4818C156.386 72.7656 155.756 72.2441 155.017 72.0321C154.278 71.8201 153.491 71.935 152.827 72.3514Z" fill="#96A5BC"/>
<path d="M158.616 83.1722L153.614 86.3124C152.951 86.7288 152.466 87.4126 152.267 88.2135C152.068 89.0144 152.171 89.8667 152.552 90.5829C152.934 91.2992 153.563 91.8206 154.302 92.0326C155.041 92.2446 155.829 92.1298 156.492 91.7134L161.494 88.5732C162.157 88.1568 162.642 87.4729 162.841 86.672C163.04 85.8711 162.938 85.0188 162.556 84.3026C162.175 83.5864 161.545 83.0649 160.806 82.8529C160.067 82.6409 159.28 82.7558 158.616 83.1722Z" fill="#96A5BC"/>
<path d="M173.09 110.222L168.087 113.362C167.424 113.778 166.939 114.462 166.74 115.263C166.541 116.064 166.643 116.917 167.025 117.633C167.407 118.35 168.036 118.871 168.775 119.083C169.514 119.295 170.302 119.18 170.965 118.764L175.968 115.624C176.631 115.207 177.116 114.523 177.315 113.722C177.514 112.921 177.411 112.069 177.03 111.352C176.648 110.636 176.019 110.114 175.28 109.902C174.541 109.69 173.753 109.805 173.09 110.222Z" fill="#96A5BC"/>
<path d="M178.882 121.041L173.88 124.181C173.217 124.598 172.732 125.282 172.533 126.083C172.334 126.884 172.436 127.736 172.818 128.452C173.199 129.168 173.829 129.69 174.568 129.902C175.307 130.114 176.094 129.999 176.758 129.583L181.76 126.442C182.423 126.026 182.907 125.342 183.107 124.541C183.306 123.74 183.203 122.888 182.822 122.172C182.44 121.455 181.811 120.934 181.072 120.722C180.333 120.51 179.545 120.625 178.882 121.041Z" fill="#96A5BC"/>
</svg>
