<svg width="150" height="150" viewBox="0 0 150 150" fill="none" xmlns="http://www.w3.org/2000/svg">
<g clip-path="url(#clip0)">
<path d="M59 64.5V49.5L74 58L89.5 49.5V64.5C89.5 67.2614 87.2614 69.5 84.5 69.5H64C61.2386 69.5 59 67.2614 59 64.5Z" fill="#E5EEFF"/>
<path d="M40 84.5V74.5L48.5 79L40 84.5Z" fill="#E5EEFF"/>
<path d="M31 94V93C31 91.3431 32.3431 90 34 90H117C118.657 90 120 91.3431 120 93V94C120 95.6569 118.657 97 117 97H34C32.3431 97 31 95.6569 31 94Z" fill="#E5EEFF"/>
<path d="M103 44L75 58L47 44L75 30L103 44Z" fill="#E5EEFF"/>
<path d="M53 119V117C53 114.239 55.2386 112 58 112H93C95.7614 112 98 114.239 98 117V119H53Z" fill="#E5EEFF"/>
<path d="M68 98L65.5 112H85.5L83 98H68Z" fill="#E5EEFF"/>
<path d="M86.9515 37.248C86.2819 36.9133 86.0091 36.0997 86.3437 35.4251C86.6835 34.7557 87.4975 34.488 88.1665 34.8226L93.9957 37.737H116.199C117.692 37.737 119.046 38.3446 120.03 39.328C121.008 40.3116 121.621 41.6659 121.621 43.159V48.4473C121.621 49.1991 121.008 49.8067 120.257 49.8067C119.505 49.8067 118.897 49.1991 118.897 48.4473V43.1594C118.897 42.4179 118.593 41.7433 118.104 41.2541C117.615 40.765 116.941 40.4611 116.199 40.4611H99.4485L103.151 42.3149C103.82 42.6497 104.093 43.4631 103.759 44.1326C103.62 44.4056 103.403 44.6167 103.151 44.7402L98.1974 47.2168V55.0281C98.9492 55.0281 99.5619 55.6359 99.5619 56.3875C99.5619 57.1444 98.9545 57.752 98.2028 57.752H96.8331H95.4686C94.7115 57.752 94.1038 57.1444 94.1038 56.3875C94.1038 55.6357 94.7164 55.0281 95.4739 55.0281V48.5813L90.9577 50.8366V64.3377C90.9577 66.2379 90.1805 67.9629 88.9288 69.209C87.6829 70.4603 85.9581 71.2377 84.0579 71.2377H64.3566C62.4565 71.2377 60.7316 70.4601 59.4803 69.209C58.2341 67.9629 57.4567 66.2379 57.4567 64.3377V50.8366L45.2635 44.7402C44.5887 44.4054 44.3211 43.592 44.6557 42.9225C44.7894 42.6446 45.0108 42.4386 45.2635 42.3098L48.9659 40.4613H34.8003C34.0584 40.4613 33.384 40.765 32.8949 41.2543C32.4061 41.7435 32.102 42.4181 32.102 43.1595V75.996C32.102 76.7478 31.4942 77.3606 30.7426 77.3606C29.991 77.3606 29.3781 76.7478 29.3781 75.996V43.1594C29.3781 41.6661 29.9859 40.312 30.9693 39.3284C31.9527 38.345 33.3068 37.7374 34.8004 37.7374H54.4138L73.5994 28.1442C74.001 27.9435 74.4491 27.9589 74.8199 28.1493L82.6468 32.0577C83.3163 32.3975 83.5891 33.2111 83.2545 33.8804C82.9147 34.5499 82.1011 34.8228 81.4318 34.4882L74.2074 30.8734L55.4432 40.2553C55.3713 40.3016 55.2942 40.3377 55.2169 40.3686L48.8988 43.5252C57.3384 47.7423 65.7725 51.9595 74.2072 56.1819C82.6419 51.9647 91.076 47.7425 99.5103 43.5252C95.3244 41.4343 91.1377 39.3385 86.9515 37.248ZM118.897 91.634H32.102V93.462C32.102 94.1984 32.4061 94.873 32.8949 95.3621C33.384 95.8513 34.0584 96.155 34.8003 96.155H116.199C116.941 96.155 117.61 95.8513 118.104 95.3621C118.593 94.873 118.897 94.1984 118.897 93.462V91.634H118.897ZM32.102 88.9101H118.897V54.6163C118.897 53.8645 119.505 53.2569 120.257 53.2569C121.008 53.2569 121.621 53.8645 121.621 54.6163V90.2695V93.462C121.621 94.9502 121.008 96.3096 120.03 97.2879C119.046 98.2713 117.692 98.8789 116.199 98.8789H85.1648L86.6581 110.856H90.8649C93.2798 110.856 95.4786 111.845 97.0698 113.436C98.6609 115.027 99.6443 117.221 99.6443 119.641C99.6443 120.393 99.0366 121 98.2849 121H52.7144C51.9626 121 51.3499 120.393 51.3499 119.641C51.3499 117.221 52.3382 115.027 53.9297 113.436C55.5206 111.845 57.7193 110.856 60.1342 110.856H64.3361L65.8343 98.8789H34.8003C33.3066 98.8789 31.9525 98.2713 30.9691 97.2879C29.9857 96.3096 29.3779 94.9502 29.3779 93.462V90.2695V82.1698C29.3779 81.418 29.9906 80.8051 30.7424 80.8051C31.4942 80.8051 32.1018 81.418 32.1018 82.1698V88.9101H32.102ZM58.8213 80.4449C58.0643 80.4449 57.4568 79.8371 57.4568 79.0855C57.4568 78.3286 58.0643 77.7208 58.8213 77.7208H72.8427V76.8199C72.8427 76.0681 73.4554 75.4554 74.2072 75.4554C74.959 75.4554 75.5666 76.0681 75.5666 76.8199V77.7208H110.952C111.704 77.7208 112.311 78.3286 112.311 79.0855C112.311 79.8373 111.704 80.4449 110.952 80.4449H75.5666V81.346C75.5666 82.0978 74.9588 82.7105 74.2072 82.7105C73.4554 82.7105 72.8427 82.0978 72.8427 81.346V80.4449H58.8213ZM46.2572 79.0853L41.4118 76.2842V81.8815L46.2572 79.0853ZM40.727 72.7519L49.6452 77.901C49.8514 78.0144 50.0263 78.1842 50.1551 78.4005C50.5311 79.0492 50.3098 79.8835 49.6608 80.2593L40.8095 85.3674C40.5931 85.5167 40.3305 85.599 40.0475 85.599C39.2953 85.599 38.6827 84.9914 38.6827 84.2396V73.926C38.6827 73.6942 38.7448 73.4625 38.8732 73.2463C39.2492 72.5975 40.0782 72.3759 40.727 72.7519ZM88.2335 52.2014L74.8148 58.9109C74.4132 59.1118 73.9647 59.091 73.5943 58.9058L60.1805 52.2014V64.3381C60.1805 65.4864 60.6488 66.5265 61.4059 67.2836C62.163 68.0405 63.2081 68.5091 64.3565 68.5091H84.0574C85.2057 68.5091 86.246 68.0405 87.0027 67.2836C87.7598 66.5265 88.2333 65.4864 88.2333 64.3381V52.2014H88.2335ZM78.5838 113.58C77.832 113.58 77.2244 112.972 77.2244 112.221C77.2244 111.463 77.8322 110.856 78.5838 110.856H83.9132L82.4199 98.8787H68.5787L67.0805 110.856H72.4151C73.1669 110.856 73.7742 111.463 73.7742 112.221C73.7742 112.972 73.1668 113.58 72.4151 113.58H60.1342C58.4711 113.58 56.9573 114.265 55.8553 115.362C55.0674 116.149 54.4905 117.154 54.2333 118.276H96.7655C96.503 117.154 95.9314 116.15 95.1386 115.362C94.0416 114.265 92.5278 113.58 90.8647 113.58H78.5838Z" fill="#285AA5"/>
</g>
<circle cx="75" cy="75" r="72.5" stroke="#084892" stroke-width="5"/>
<defs>
<clipPath id="clip0">
<rect width="93" height="93" fill="white" transform="translate(29 28)"/>
</clipPath>
</defs>
</svg>
