<svg xmlns="http://www.w3.org/2000/svg" viewBox="0 0 1106.11 800.84"><defs><style>.cls-1{fill:#246cb7;}.cls-2{fill:#fff;}</style></defs><g id="Layer_2" data-name="Layer 2"><g id="Layer_1-2" data-name="Layer 1"><rect class="cls-1" x="139.56" y="166.17" width="861.33" height="581.33" rx="52"/><rect class="cls-2" x="160" y="188.98" width="826.67" height="531.86" rx="25.93"/><rect class="cls-1" x="199.56" y="228.39" width="741.4" height="492.44" rx="19.59"/><rect class="cls-2" x="217.15" y="247.72" width="711.56" height="450.53" rx="11.14"/><path class="cls-1" d="M80.89,683.5h978.67a0,0,0,0,1,0,0v6A111.33,111.33,0,0,1,948.22,800.84h-750A117.33,117.33,0,0,1,80.89,683.5v0A0,0,0,0,1,80.89,683.5Z"/><path class="cls-2" d="M926.32,784H220.89c-64.8,0-104.45-9.78-117.33-79.78h934.1v6C1025.17,770,987.81,784,926.32,784Z"/><path class="cls-1" d="M473.78,700.39H670.22a0,0,0,0,1,0,0v20a35.11,35.11,0,0,1-35.11,35.11H508.89a35.11,35.11,0,0,1-35.11-35.11v-20A0,0,0,0,1,473.78,700.39Z"/><path class="cls-2" d="M613.13,737.43H528.89c-19.39,0-35.11-5.65-35.11-25v-8.22H648.24v8.22C648.24,731.78,632.52,737.43,613.13,737.43Z"/><path class="cls-1" d="M466.81,211.21s-15.56,31.41,0,40.29a22.74,22.74,0,0,0,19.12,0s-7.71,20.15,11.26,29c13.62,6.52,22.51-5.92,22.51-5.92s-4.74,21.92,13.63,29c12.45,4.74,28.54,1.19,39.6-21.92Z"/><circle class="cls-2" cx="480.33" cy="235.39" r="5.22"/><ellipse class="cls-2" cx="509.11" cy="255.95" rx="10" ry="12"/><ellipse class="cls-2" cx="544.89" cy="273.37" rx="10.67" ry="15.03"/><path class="cls-1" d="M613.78,520.28a39.16,39.16,0,0,0-30.55,14.62l-80.39-46.41a39.28,39.28,0,0,0,2.58-22.4l77.92-50a39.22,39.22,0,1,0-8.79-24.73,40,40,0,0,0,.66,7.14l-77.81,50A39.22,39.22,0,1,0,491,503.83l84.18,48.6a39.22,39.22,0,1,0,38.58-32.15Zm0-154.36a25.41,25.41,0,1,1-25.41,25.41A25.41,25.41,0,0,1,613.78,365.92Zm-147,132.46A25.4,25.4,0,1,1,492.22,473,25.4,25.4,0,0,1,466.81,498.38Zm147,86.52a25.4,25.4,0,1,1,25.4-25.4A25.41,25.41,0,0,1,613.78,584.9Z"/><path class="cls-1" d="M22.22,547.5S10.67,520.84,40.89,504,160,434.62,160,434.62s30.22-14.23,15.11-56L169.78,368l47.37-27.56,29.07,50.94s48-8.27,65.78,21.95-.89,56-13.33,69.34c7.11,13.33,31.11,55.11,31.11,55.11l-42.67,28.44L273.78,547.5s-23.11-18.66-56.89-3.55-120,72.89-120,72.89S78.22,627.5,64,609.73l-8-11.56-22.22,16L0,565.28Z"/><path class="cls-2" d="M61.78,508.3h50.94a0,0,0,0,1,0,0v91.61a0,0,0,0,1,0,0H61.78a12.62,12.62,0,0,1-12.62-12.62V520.92A12.62,12.62,0,0,1,61.78,508.3Z" transform="translate(-287.85 132.7) rotate(-32.88)"/><path class="cls-2" d="M258.67,520.84l-63.56-108c-3.11,22.22-21.17,28.9-21.17,28.9l-11.69,7.55h0L107.05,485a12.63,12.63,0,0,0-3.75,17.46l36,55.73a12.63,12.63,0,0,0,17.45,3.75l66.89-43.24-.09-.14C240.74,517.31,258.67,520.84,258.67,520.84Z"/><rect class="cls-2" x="243.17" y="352.57" width="20.44" height="204.69" transform="translate(-193.51 187.64) rotate(-30)"/><path class="cls-2" d="M253.39,407.5l36.39,59.12s26-19.9,10.31-48.18S253.39,407.5,253.39,407.5Z"/><rect class="cls-2" x="29.05" y="566.62" width="12.44" height="28.44" transform="translate(-309.67 112.2) rotate(-32.88)"/><path class="cls-1" d="M825.59,142.44,736,4.32a8.35,8.35,0,0,0-11.55-2.46L674.25,34.43A8.35,8.35,0,0,0,671.79,46h0a8.36,8.36,0,0,1-2.25,11.41l-13.22,9.16a8.36,8.36,0,0,1-10.08-.43C642.35,63,636.39,59,629.93,58c-28.47-4.4-53.46,5-62.8,9.13a8.27,8.27,0,0,1-7.5-.37c-8.45-4.81-30.49-14.85-52.37-3.68-18.45,9.42-30.2,11-36,11.06a8.3,8.3,0,0,0-7.07,4.07l-35.36,59.3a8.29,8.29,0,0,0-1.17,4.56c.42,12.16,5.62,65.23,63.05,97.6C551.54,274,583.93,293.81,588,296.28a8.82,8.82,0,0,0,1,.51c3.23,1.43,20.08,8.3,29.16-.25a20.87,20.87,0,0,0,6.22-10.35,8.38,8.38,0,0,1,10.09-6.12c5.93,1.36,13.23,1.1,18.62-5.45,4.35-5.3,5.76-9.91,5.9-13.52a8.26,8.26,0,0,1,7.3-7.81,19,19,0,0,0,11.73-5.57c4.92-5.14,4-12.87,2.43-18.3a8.37,8.37,0,0,1,3.49-9.3,31.25,31.25,0,0,0,12.29-15.59,7.39,7.39,0,0,0,.27-.88c4.28-16.56,6.25-25.47,7.07-29.47a8.29,8.29,0,0,1,2.64-4.55L728,150.25a8.35,8.35,0,0,1,12.55,1.7l20.85,32.14a8.35,8.35,0,0,0,11.55,2.46L823.13,154A8.35,8.35,0,0,0,825.59,142.44Z"/><rect class="cls-1" x="404.41" y="40.85" width="61.97" height="120.06" rx="14.01" transform="matrix(0.87, 0.5, -0.5, 0.87, 108.77, -204.18)"/><rect class="cls-2" x="418.62" y="55.95" width="37.96" height="95.86" rx="9.55" transform="translate(110.57 -204.88) rotate(30)"/><path class="cls-2" d="M701.86,59.05,758,153.86a14.69,14.69,0,0,0,20.38,5l12.76-7.92a14.68,14.68,0,0,0,4.78-20.14l-58-94.93a14.7,14.7,0,0,0-21.28-4.14l-10.83,8A14.67,14.67,0,0,0,701.86,59.05Z"/><rect class="cls-1" x="357.04" y="0.81" width="71.7" height="178.99" rx="14.01" transform="translate(97.79 -184.35) rotate(30)"/><rect class="cls-2" x="373.23" y="22.75" width="43.92" height="142.91" rx="9.55" transform="matrix(0.87, 0.5, -0.5, 0.87, 100.05, -184.97)"/><path class="cls-2" d="M547,82.62S481.19,106.91,487.11,136,540.29,149,540.29,149s28-18.42,36.3-17.83,91.26,54.52,91.26,54.52,17.78,10.07,7.71,19.55-97.19-52.74-97.19-52.74-11.85-3-13.63,8.89,98.37,62.22,98.37,62.22,10.08,8.89,4.15,16S635.85,229,635.85,229l-72.29-45.63s-8.3-4.15-16,3.55S570.22,210,570.22,210L636.44,248s10.21,9.48,2.74,17.78S528,205.87,528,205.87s-11.85-5.33-15.41,4.15,27.7,21.34,27.7,21.34l63,35.07s13,7,5.93,18.26S506.07,232,506.07,232s-45.63-20.15-51.55-57.48,25.42-85.94,62.22-98.37C525,73.73,558.22,73.73,547,82.62Z"/><path class="cls-2" d="M633.48,74.76s-28.74-7-63.26,15.54-56.44,32.61-56.44,32.61-15.41,16,14.81,10.08,61-40.3,76.45-24.89S618.67,142,633.48,149s32,15.35,39.71,22.46,17.77,3.56,16-8.29S674.37,101.27,633.48,74.76Z"/><polygon class="cls-2" points="663.7 74.76 707.56 149.04 727.11 137.13 683.85 63.65 663.7 74.76"/><path class="cls-1" d="M986.23,676.09,904,645.45a33.48,33.48,0,0,1-19.67-43.06l74.7-190.61a33.48,33.48,0,0,1,43.06-19.67l82.2,30.64A33.47,33.47,0,0,1,1104,465.81l-74.71,190.6A33.47,33.47,0,0,1,986.23,676.09Z"/><path class="cls-2" d="M1000.29,659.87,904,624a10.43,10.43,0,0,1-6.13-13.43l76.75-196.09a10.44,10.44,0,0,1,13.43-6.14l96.27,35.89a10.44,10.44,0,0,1,6.14,13.43l-76.75,196.1A10.43,10.43,0,0,1,1000.29,659.87Z"/><path class="cls-1" d="M1004,417.93a26.66,26.66,0,0,1-34.3,15.67c-.66-.24-1.3-.52-1.93-.81l-4.59,12.32c.64.27,1.29.53,1.94.78a39.78,39.78,0,0,0,51.17-23.38c.4-1.08.75-2.17,1.05-3.26L1005,414.64A26.88,26.88,0,0,1,1004,417.93Z"/><path class="cls-1" d="M1066,441a26.68,26.68,0,0,0,15.67,34.31c.67.24,1.33.45,2,.64l-4.6,12.32c-.66-.21-1.32-.43-2-.68a39.77,39.77,0,0,1-23.37-51.17c.4-1.08.86-2.13,1.34-3.15l12.35,4.6A27.64,27.64,0,0,0,1066,441Z"/><path class="cls-1" d="M999.5,631.68,920.25,669.3a33.47,33.47,0,0,1-44.59-15.88L791,467a33.47,33.47,0,0,1,15.88-44.59l79.25-37.62a33.47,33.47,0,0,1,44.59,15.88l84.69,186.39A33.47,33.47,0,0,1,999.5,631.68Z"/><path class="cls-2" d="M997.67,610.3l-92.82,44.06a10.44,10.44,0,0,1-13.91-5L803.73,457.73a10.45,10.45,0,0,1,5-13.91l92.81-44.06a10.45,10.45,0,0,1,13.92,4.95l87.2,191.68A10.45,10.45,0,0,1,997.67,610.3Z"/><path class="cls-1" d="M826.7,439.06a26.67,26.67,0,0,1-12.65,35.53c-.64.3-1.28.57-1.93.82l5.64,11.87c.64-.26,1.28-.55,1.91-.85a39.77,39.77,0,0,0,18.88-53c-.5-1-1-2.05-1.61-3L825,436.06A26.47,26.47,0,0,1,826.7,439.06Z"/><path class="cls-1" d="M886.43,410.71A26.65,26.65,0,0,0,922,423.36c.64-.3,1.25-.63,1.85-1l5.64,11.87c-.61.33-1.23.65-1.86.95a39.78,39.78,0,0,1-53-18.88c-.49-1-.93-2.1-1.33-3.16l11.91-5.65A26.8,26.8,0,0,0,886.43,410.71Z"/><rect class="cls-1" x="866.72" y="358.97" width="154.67" height="334.13" rx="33.47"/><rect class="cls-2" x="882.24" y="379.08" width="123.63" height="293.93" rx="10.44"/><path class="cls-1" d="M911,382.5a26.67,26.67,0,0,1-26.67,26.67c-.7,0-1.4,0-2.09-.09v13.15c.69,0,1.39,0,2.09,0a39.78,39.78,0,0,0,39.78-39.78c0-1.15-.06-2.29-.16-3.42H910.77A25.73,25.73,0,0,1,911,382.5Z"/><path class="cls-1" d="M977.11,382.5a26.67,26.67,0,0,0,26.67,26.67c.7,0,1.4,0,2.09-.09v13.15c-.69,0-1.39,0-2.09,0A39.78,39.78,0,0,1,964,382.5c0-1.15.06-2.29.16-3.42h13.18A25.73,25.73,0,0,0,977.11,382.5Z"/><rect class="cls-1" x="785.85" y="512.54" width="315.56" height="186.67" rx="24"/><rect class="cls-2" x="804.96" y="527.06" width="277.33" height="157.63"/><path class="cls-1" d="M1002.07,575h99.33a0,0,0,0,1,0,0v85.33a0,0,0,0,1,0,0h-99.33a42.67,42.67,0,0,1-42.67-42.67v0A42.67,42.67,0,0,1,1002.07,575Z"/><path class="cls-2" d="M1081.92,650.37H1024c-23.56,0-42.67-9.1-42.67-32.66h0c0-23.57,19.11-32.67,42.67-32.67h57.92Z"/></g></g></svg>