<svg id="Camada_1" data-name="Camada 1" xmlns="http://www.w3.org/2000/svg" xmlns:xlink="http://www.w3.org/1999/xlink" viewBox="0 0 1174.74 135.62"><path d="M57.73,426.44l6.85-24.14H52.63V390.11H68.06l4.23-14.43H58.85v-12.2H75.77l6.85-24.14H98.05L91.2,363.48H110l6.85-24.14H132l-6.85,24.14h12.07v12.2H121.69l-4.23,14.43H131V402.3H114l-6.84,24.14H92l6.84-24.14H80l-6.84,24.14Zm25.76-36.33h18.79l4.23-14.43H87.72Z" transform="translate(-52.63 -292.19)"/><path d="M237.66,382.89a43.53,43.53,0,0,1-3.61,17.61,44.35,44.35,0,0,1-24.39,23.83,48.84,48.84,0,0,1-36.21,0,44.35,44.35,0,0,1-24.39-23.83,44.85,44.85,0,0,1,0-35.21,44.35,44.35,0,0,1,24.39-23.83,48.71,48.71,0,0,1,36.21,0,44.35,44.35,0,0,1,24.39,23.83A43.44,43.44,0,0,1,237.66,382.89Zm-18.54,0A29.47,29.47,0,0,0,217,371.63a28.14,28.14,0,0,0-5.78-9,26.49,26.49,0,0,0-8.78-6,27.62,27.62,0,0,0-10.95-2.18,27.14,27.14,0,0,0-10.88,2.18,26.6,26.6,0,0,0-8.71,6,28,28,0,0,0-5.79,9,30.94,30.94,0,0,0,0,22.46,27.73,27.73,0,0,0,5.79,9,26.78,26.78,0,0,0,8.71,6,27.14,27.14,0,0,0,10.88,2.17,27.62,27.62,0,0,0,10.95-2.17,26.66,26.66,0,0,0,8.78-6,27.87,27.87,0,0,0,5.78-9A29.57,29.57,0,0,0,219.12,382.89Z" transform="translate(-52.63 -292.19)"/><path d="M250,426.44v-87.1h43.67a33.1,33.1,0,0,1,11.76,2.05,27.78,27.78,0,0,1,9.27,5.67,25.58,25.58,0,0,1,6,8.64,27.51,27.51,0,0,1,2.18,11,26.29,26.29,0,0,1-2.18,10.76,25.39,25.39,0,0,1-6.09,8.52,27.81,27.81,0,0,1-9.27,5.6,33.26,33.26,0,0,1-11.7,2H268v32.85Zm41.68-71.54H268v23.76h23.64a13.41,13.41,0,0,0,9.39-3.23,11.05,11.05,0,0,0,3.55-8.59,11.26,11.26,0,0,0-3.55-8.65A13.26,13.26,0,0,0,291.66,354.9Z" transform="translate(-52.63 -292.19)"/><path d="M334.71,426.44v-87.1h67V355h-48.9v19.91H385v15.18H352.76v20.66h49.39v15.67Z" transform="translate(-52.63 -292.19)"/><path d="M415,339.34h17.17l43.3,56.37V339.34h16.93v87.1H476.44L432,368.21v58.23H415Z" transform="translate(-52.63 -292.19)"/><path d="M508.17,426.44v-87.1h66.94V355h-48.9v19.91h32.23v15.18H526.21v20.66h49.4v15.67Z" transform="translate(-52.63 -292.19)"/><path d="M588.42,426.44v-87.1H621.9a48.73,48.73,0,0,1,18.16,3.36,45.12,45.12,0,0,1,14.62,9.21,43,43,0,0,1,13.26,31.23,41.5,41.5,0,0,1-3.55,17.05,42.1,42.1,0,0,1-9.71,13.75,45.64,45.64,0,0,1-14.62,9.14,48.73,48.73,0,0,1-18.16,3.36Zm33.35-71.05h-15.3v55h15.3a27.72,27.72,0,0,0,19.54-7.9,26.72,26.72,0,0,0,5.85-8.65,27,27,0,0,0,2.11-10.7,28.3,28.3,0,0,0-2.11-10.95,26.77,26.77,0,0,0-14.62-14.68A27.55,27.55,0,0,0,621.77,355.39Z" transform="translate(-52.63 -292.19)"/><path d="M756,388.74a45.31,45.31,0,0,1-2.74,16.11,33.23,33.23,0,0,1-20,20.1,47.65,47.65,0,0,1-31.85,0,33.58,33.58,0,0,1-12.13-7.78,34.73,34.73,0,0,1-7.72-12.25,45.46,45.46,0,0,1-2.73-16.18v-49.4h18v49.4q0,10.08,5.66,16.18t15,6.09q9.33,0,14.87-6.09T738,388.74v-49.4h18Z" transform="translate(-52.63 -292.19)"/><path d="M814,411a29.22,29.22,0,0,0,12.81-2.86,32.32,32.32,0,0,0,10.58-8.21l11.82,11.7a44.36,44.36,0,0,1-15.87,11.69,48.56,48.56,0,0,1-38.19.87,46.3,46.3,0,0,1-14.75-9.45,43.14,43.14,0,0,1-9.77-14.19,44.69,44.69,0,0,1,9.89-49.65,46.42,46.42,0,0,1,14.75-9.45A47.76,47.76,0,0,1,813.52,338a49,49,0,0,1,20.28,4.42,43,43,0,0,1,15.93,11.88l-12.2,12.07a31.73,31.73,0,0,0-10.82-8.77,29.65,29.65,0,0,0-13.19-3.05,28.06,28.06,0,0,0-11,2.18,27,27,0,0,0-8.9,6,27.49,27.49,0,0,0-5.85,9,29.47,29.47,0,0,0-2.11,11.26A28.41,28.41,0,0,0,787.82,394a27,27,0,0,0,6,8.9,28.42,28.42,0,0,0,9,5.91A28.77,28.77,0,0,0,814,411Z" transform="translate(-52.63 -292.19)"/><path d="M851.47,426.44l35.83-87.1h20.91l35.34,87.1H924l-8.83-22.89h-36l-9,22.89Zm33.35-37.33H909.7L897.38,357Z" transform="translate(-52.63 -292.19)"/><path d="M928.24,355.27V339.34h76.65v15.93H975.65v71.17h-18V355.27Z" transform="translate(-52.63 -292.19)"/><path d="M1015,426.44v-87.1h18v87.1Z" transform="translate(-52.63 -292.19)"/><path d="M1137.66,382.89a43.69,43.69,0,0,1-3.61,17.61,44.35,44.35,0,0,1-24.39,23.83,48.84,48.84,0,0,1-36.21,0,44.35,44.35,0,0,1-24.39-23.83,44.73,44.73,0,0,1,0-35.21,44.35,44.35,0,0,1,24.39-23.83,48.71,48.71,0,0,1,36.21,0,44.35,44.35,0,0,1,24.39,23.83A43.61,43.61,0,0,1,1137.66,382.89Zm-18.54,0a29.47,29.47,0,0,0-2.12-11.26,28.14,28.14,0,0,0-5.78-9,26.59,26.59,0,0,0-8.78-6,27.62,27.62,0,0,0-11-2.18,27.19,27.19,0,0,0-10.89,2.18,26.82,26.82,0,0,0-8.71,6,28.14,28.14,0,0,0-5.78,9,30.8,30.8,0,0,0,0,22.46,27.87,27.87,0,0,0,5.78,9,26.94,26.94,0,0,0,19.6,8.15,27.62,27.62,0,0,0,11-2.17,26.77,26.77,0,0,0,8.78-6,27.87,27.87,0,0,0,5.78-9A29.57,29.57,0,0,0,1119.12,382.89Z" transform="translate(-52.63 -292.19)"/><path d="M1150,339.34h17.18l43.3,56.37V339.34h16.92v87.1h-15.93L1167,368.21v58.23h-17Z" transform="translate(-52.63 -292.19)"/><image width="500" height="349" transform="translate(74.01) scale(0.26)" xlink:href="chapeu-red.png"/></svg>