<svg width="75" height="75" viewBox="0 0 75 75" fill="none" xmlns="http://www.w3.org/2000/svg">
<g clip-path="url(#clip0)">
<path d="M73.9322 19.6942C73.9321 19.6942 73.9321 19.6942 73.9319 19.6942L73.9294 19.6917L69.0884 19.001C68.408 18.9041 67.935 18.2739 68.0319 17.5935C68.0784 17.2665 68.2531 16.9716 68.5172 16.7734L72.4298 13.8389C72.9798 13.4265 73.0911 12.6466 72.6787 12.0967L68.1986 6.12317C67.7862 5.57327 67.0063 5.46189 66.4564 5.87428L62.545 8.80876C61.9974 9.22426 61.2168 9.11723 60.8013 8.56966C60.5995 8.30381 60.513 7.96796 60.5613 7.6377L61.2532 2.79669C61.3507 2.11627 60.8783 1.48578 60.198 1.38809C60.1976 1.38809 60.1971 1.38794 60.1966 1.38794L52.8094 0.33262C52.1292 0.234928 51.4984 0.707208 51.4007 1.38763C51.4007 1.38778 51.4007 1.38778 51.4007 1.38794L50.7087 6.22895C50.6118 6.90937 49.9817 7.38243 49.3012 7.28552C48.9742 7.239 48.6793 7.06431 48.4811 6.80017L45.5479 2.88753C45.1355 2.33763 44.3555 2.22625 43.8056 2.63864L40.066 5.44493C38.3741 5.26511 36.6679 5.26511 34.976 5.44493C23.8962 6.71135 15.2074 15.5474 14.1273 26.6471C14.0937 26.9993 14.0813 27.349 14.0638 27.6987H13.6905C13.1 27.6998 12.5915 28.1157 12.4734 28.6943L11.6135 32.7836L8.16875 30.4079C7.67439 30.0668 7.00672 30.1276 6.58205 30.5523L2.84861 34.2857C2.42456 34.7102 2.36389 35.377 2.70425 35.8712L5.06876 39.3097L0.978162 40.1696C0.406014 40.295 -0.00124163 40.8023 2.8443e-06 41.3879V46.3658C-0.000308275 46.9545 0.41208 47.4629 0.988118 47.5842L5.07872 48.4441L2.71421 51.8826C2.37384 52.3768 2.43451 53.0436 2.85857 53.4681L6.592 57.2015C7.01668 57.6262 7.68434 57.687 8.17871 57.3459L11.6172 54.9751L12.4771 59.0657C12.5952 59.6443 13.1037 60.0602 13.6942 60.0613H18.6721C19.2608 60.0616 19.7692 59.6493 19.8905 59.0732L20.7504 54.9826L24.1889 57.3471C24.6831 57.6875 25.3499 57.6268 25.7744 57.2028L27.7071 55.2639V58.8106C27.7127 60.5811 28.6611 62.2143 30.196 63.0966V70.0109C30.196 72.7601 32.4247 74.9888 35.1739 74.9888H40.1518C42.901 74.9888 45.1297 72.7601 45.1297 70.0109V63.0966C46.6646 62.2143 47.6131 60.5811 47.6187 58.8106V53.885C47.6525 51.8125 48.7367 49.8991 50.4972 48.805C51.5299 48.135 52.5093 47.386 53.4267 46.565L51.7665 44.7107C50.946 45.4462 50.0692 46.1165 49.1444 46.7155C46.6734 48.2665 45.1607 50.9676 45.1297 53.885V58.8106C45.1297 60.1853 44.0155 61.2996 42.6408 61.2996H32.685C31.3103 61.2996 30.196 60.1853 30.196 58.8106V53.7817C30.1672 50.9195 28.6784 48.2705 26.2485 46.7579C16.3849 40.5601 13.4131 27.5399 19.6109 17.6763C23.4564 11.5564 30.1675 7.83153 37.3953 7.80571C37.3768 7.85004 37.3605 7.89531 37.3468 7.94136C37.3006 8.26803 37.3861 8.59984 37.5845 8.86351L40.5177 12.7749C40.827 13.1752 40.8567 13.7249 40.5924 14.1563C40.3379 14.5903 39.8458 14.8271 39.3479 14.7549L34.5069 14.0629C33.8265 13.9654 33.196 14.4378 33.0983 15.1181C33.0983 15.1186 33.0981 15.119 33.0981 15.1195L32.0416 22.5105C31.944 23.1907 32.4165 23.8214 33.0967 23.919C33.0972 23.919 33.0977 23.9192 33.0981 23.9192L37.9391 24.6111C38.6196 24.708 39.0926 25.3382 38.9957 26.0186C38.9492 26.3456 38.7745 26.6406 38.5104 26.8387L34.599 29.772C34.0491 30.1844 33.9377 30.9643 34.3501 31.5143L38.8302 37.4877C39.2426 38.0376 40.0226 38.149 40.5725 37.7366L44.4851 34.8034C45.0355 34.3918 45.8154 34.5043 46.2271 35.0548C46.424 35.3182 46.5088 35.6489 46.4626 35.9745L45.7719 40.8155C45.6742 41.4957 46.1465 42.1265 46.8269 42.2242C46.8271 42.2242 46.8271 42.2242 46.8272 42.2242L54.2194 43.2808C54.2776 43.2883 54.3362 43.292 54.3949 43.292C55.0145 43.2928 55.5401 42.8376 55.6282 42.2242L56.3188 37.3832C56.4158 36.7028 57.0459 36.2297 57.7263 36.3266C58.0533 36.3732 58.3483 36.5479 58.5465 36.812L61.4809 40.7234C61.8933 41.2733 62.6733 41.3847 63.2232 40.9723L69.1967 36.4922C69.7466 36.0798 69.858 35.2998 69.4456 34.7499L66.5124 30.8385C66.2045 30.4376 66.1748 29.8888 66.4377 29.4571C66.6867 29.0174 67.1833 28.779 67.6822 28.8598L72.5232 29.5505C73.2034 29.6482 73.8342 29.1757 73.9319 28.4955C73.9319 28.4953 73.9319 28.4953 73.9319 28.4951L74.9873 21.103C75.0849 20.4225 74.6127 19.7919 73.9322 19.6942ZM32.685 63.7885H42.6408V66.2775H32.685V63.7885ZM32.685 68.7664H42.6408V70.0109C42.6408 71.3856 41.5265 72.4999 40.1518 72.4999H35.1739C33.7992 72.4999 32.685 71.3856 32.685 70.0109V68.7664ZM22.7777 47.3054C23.4572 47.8611 24.1671 48.3785 24.9045 48.8548C26.0804 49.5979 26.9655 50.7221 27.4121 52.0394L24.7427 54.7038L22.1579 52.9218C21.0261 52.1418 19.4762 52.4271 18.6961 53.5589C18.5091 53.8304 18.3778 54.1362 18.31 54.4587L17.6579 57.5661H14.6998L14.0477 54.4637C13.7645 53.1185 12.4446 52.2575 11.0995 52.5406C10.777 52.6085 10.4712 52.7397 10.1997 52.9267L7.61372 54.7038L5.34628 52.4414L7.12713 49.8579C7.90788 48.7265 7.62352 47.1765 6.49213 46.3957C6.22052 46.2083 5.91438 46.0767 5.59144 46.0087L2.48896 45.3553V42.3985L5.59144 41.7451C6.9361 41.46 7.7951 40.1388 7.50996 38.794C7.44229 38.4749 7.31271 38.1724 7.12837 37.9034L5.34628 35.3124L7.61372 33.0499L10.201 34.832C11.3333 35.6112 12.8831 35.325 13.6623 34.1927C13.849 33.9215 13.98 33.616 14.0477 33.2939L14.2654 32.2584C14.4649 33.6924 14.7951 35.1049 15.2523 36.4785C11.1575 36.9666 8.23378 40.682 8.72192 44.7768C9.21007 48.8716 12.9255 51.7953 17.0203 51.3072C19.4853 51.0132 21.643 49.5134 22.7777 47.3054ZM20.845 45.552C19.9157 48.135 17.0685 49.4756 14.4854 48.5465C11.9023 47.6172 10.5617 44.77 11.4909 42.1869C12.2018 40.2108 14.078 38.8946 16.1781 38.899C16.1942 38.899 16.2092 38.899 16.2253 38.899C17.3698 41.3666 18.9327 43.6174 20.845 45.552ZM71.6371 26.9072L68.0281 26.392C65.9869 26.1005 64.0959 27.519 63.8044 29.5601C63.6644 30.5403 63.9195 31.536 64.5137 32.3281L66.7003 35.2439L62.7179 38.2307L60.5302 35.3161C59.2931 33.6664 56.9531 33.3318 55.3035 34.5688C54.5114 35.1628 53.9876 36.0471 53.8473 37.0273L53.3433 40.6413L48.4164 39.9369L48.9316 36.3279C49.2239 34.2868 47.8061 32.3952 45.765 32.103C44.7842 31.9626 43.788 32.2177 42.9955 32.8122L40.0797 34.9988L37.0929 31.0165L40.0075 28.8287C41.6572 27.5917 41.9918 25.2516 40.7548 23.602C40.1609 22.8099 39.2765 22.2861 38.2963 22.1458L34.6873 21.6306L35.3917 16.7037L39.0007 17.2189C41.0418 17.5112 42.9334 16.0935 43.2255 14.0524C43.366 13.0716 43.1109 12.0754 42.5163 11.2828L40.3223 8.36448L44.3047 5.37773L46.4924 8.29354C47.7295 9.94325 50.0695 10.2779 51.7191 9.04085C52.5112 8.44693 53.035 7.56257 53.1753 6.58239L53.6905 2.9734L58.6174 3.67653L58.1022 7.28552C57.8107 9.32677 59.229 11.2178 61.2703 11.5093C62.2505 11.6493 63.2462 11.3942 64.0383 10.7999L66.9541 8.61337L69.9409 12.5957L67.0251 14.7835C65.3754 16.0205 65.0408 18.3606 66.2778 20.0101C66.8717 20.8023 67.7561 21.326 68.7362 21.4663L72.3452 21.9816L71.6371 26.9072Z" fill="white" stroke="white" stroke-width="0.75"/>
<path d="M53.5125 11.8491C48.014 11.8491 43.5566 16.3065 43.5566 21.8049C43.5566 27.3034 48.014 31.7608 53.5125 31.7608C59.0109 31.7608 63.4683 27.3034 63.4683 21.8049C63.4621 16.309 59.0084 11.8552 53.5125 11.8491ZM53.5125 29.2718C49.3886 29.2718 46.0456 25.9288 46.0456 21.8049C46.0456 17.6811 49.3886 14.3381 53.5125 14.3381C57.6363 14.3381 60.9793 17.6811 60.9793 21.8049C60.9745 25.9268 57.6343 29.267 53.5125 29.2718Z" fill="white" stroke="white" stroke-width="0.75"/>
<path d="M38.9069 55.0771H36.418V58.8106H38.9069V55.0771Z" fill="white" stroke="white" stroke-width="0.75"/>
<path d="M32.2194 42.8553C24.537 39.8542 20.7422 31.1936 23.7434 23.5113C24.9063 20.5345 26.9935 18.0093 29.698 16.3068L28.3677 14.2012C20.2263 19.3301 17.7842 30.0879 22.9132 38.2292C24.8995 41.3823 27.8445 43.8154 31.3159 45.1712C34.3885 46.3485 36.4174 49.2979 36.4182 52.5883H38.9072C38.9111 48.2712 36.2507 44.3995 32.2194 42.8553Z" fill="white" stroke="white" stroke-width="0.75"/>
<path d="M70.019 46.3657H61.3076V48.8547H70.019V46.3657Z" fill="white" stroke="white" stroke-width="0.75"/>
<path d="M60.8608 52.8758L59.2676 54.7881L66.735 61.0095L68.3282 59.0972L60.8608 52.8758Z" fill="white" stroke="white" stroke-width="0.75"/>
<path d="M56.3298 56.3218H53.8408V65.0331H56.3298V56.3218Z" fill="white" stroke="white" stroke-width="0.75"/>
<path d="M11.2261 19.0242L1.271 21.5127L1.87427 23.926L11.8294 21.4375L11.2261 19.0242Z" fill="white" stroke="white" stroke-width="0.75"/>
<path d="M4.78375 6.77604L3.33789 8.80029L12.0485 15.022L13.4944 12.9978L4.78375 6.77604Z" fill="white" stroke="white" stroke-width="0.75"/>
<path d="M16.4123 0.00995078L14.001 0.626465L16.5463 10.5815L18.9575 9.965L16.4123 0.00995078Z" fill="white" stroke="white" stroke-width="0.75"/>
</g>
<defs>
<clipPath id="clip0">
<rect width="75" height="75" fill="white"/>
</clipPath>
</defs>
</svg>
