<svg width="116" height="77" viewBox="0 0 116 77" fill="none" xmlns="http://www.w3.org/2000/svg">
<path d="M58 1C48.3501 1 40.5 8.84989 40.5 18.5C40.5 28.1501 48.3499 36 58 36C67.6501 36 75.5 28.1499 75.5 18.5C75.5 8.85012 67.6501 1 58 1ZM58 30.9999C51.1101 30.9999 45.5001 25.3899 45.5001 18.5C45.5001 11.6101 51.1101 6.00013 58 6.00013C64.8899 6.00013 70.4999 11.6101 70.4999 18.5C70.4999 25.3899 64.8901 30.9999 58 30.9999Z" fill="white" stroke="#285AA5" stroke-width="0.75"/>
<path d="M92.9994 21C86.1095 21 80.4995 26.61 80.4995 33.4999C80.4995 40.3898 86.1095 45.9997 92.9994 45.9997C99.8893 45.9997 105.499 40.3898 105.499 33.4999C105.499 26.61 99.8893 21 92.9994 21ZM92.9994 40.9998C88.8643 40.9998 85.4994 37.6349 85.4994 33.4999C85.4994 29.3648 88.8643 25.9999 92.9994 25.9999C97.1344 25.9999 100.499 29.3648 100.499 33.4999C100.499 37.6349 97.1342 40.9998 92.9994 40.9998Z" fill="white" stroke="#285AA5" stroke-width="0.75"/>
<path d="M23.3548 21C16.4598 21 10.855 26.61 10.855 33.4999C10.855 40.3898 16.465 45.9997 23.3548 45.9997C30.2447 45.9997 35.8547 40.3898 35.8547 33.4999C35.8547 26.61 30.2497 21 23.3548 21ZM23.3548 40.9998C19.2198 40.9998 15.8549 37.6349 15.8549 33.4999C15.8549 29.3648 19.2198 25.9999 23.3548 25.9999C27.4899 25.9999 30.8548 29.3648 30.8548 33.4999C30.8548 37.6349 27.4897 40.9998 23.3548 40.9998Z" fill="white" stroke="#285AA5" stroke-width="0.75"/>
<path fill-rule="evenodd" clip-rule="evenodd" d="M29.7941 57.3665C27.0626 62.1232 25.4995 67.6325 25.4995 73.4999C25.4995 74.8799 26.6196 76 27.9996 76C29.3796 76 30.4996 74.8799 30.4996 73.4999C30.4996 58.335 42.8345 46.0001 57.9994 46.0001C73.1644 46.0001 85.4992 58.335 85.4992 73.4999C85.4992 74.8799 86.6193 76 87.9993 76C89.3793 76 90.4994 74.8799 90.4994 73.4999C90.4994 67.633 88.9366 62.124 86.2054 57.3675C88.3432 56.4669 90.6512 55.9999 92.9994 55.9999C102.649 55.9999 110.499 63.8498 110.499 73.4999C110.499 74.8799 111.619 76 112.999 76C114.379 76 115.5 74.8799 115.5 73.4999C115.499 61.0949 105.404 51 92.9994 51C89.6453 51 86.3476 51.7475 83.3419 53.1747C77.3802 45.7563 68.2346 41 57.9994 41C47.7648 41 38.6197 45.7558 32.658 53.1734C29.6542 51.748 26.3554 51 22.9999 51C10.595 51 0.5 61.0949 0.5 73.4999C0.5 74.8799 1.62007 76 3.00007 76C4.38006 76 5.50013 74.8799 5.50013 73.4999C5.4999 63.8498 13.35 55.9999 22.9999 55.9999C25.3489 55.9999 27.6576 56.4672 29.7941 57.3665Z" fill="white"/>
<path d="M29.7941 57.3665L30.1193 57.5532L30.3305 57.1854L29.9396 57.0208L29.7941 57.3665ZM86.2054 57.3675L86.0598 57.022L85.669 57.1866L85.8802 57.5543L86.2054 57.3675ZM115.5 73.4999H115.875V73.4999L115.5 73.4999ZM83.3419 53.1747L83.0496 53.4096L83.2352 53.6405L83.5028 53.5134L83.3419 53.1747ZM32.658 53.1734L32.4972 53.5122L32.7647 53.6392L32.9503 53.4084L32.658 53.1734ZM5.50013 73.4999H5.87513V73.4999L5.50013 73.4999ZM25.8745 73.4999C25.8745 67.6999 27.4194 62.2548 30.1193 57.5532L29.4689 57.1797C26.7057 61.9916 25.1245 67.5651 25.1245 73.4999H25.8745ZM27.9996 75.625C26.8267 75.625 25.8745 74.6728 25.8745 73.4999H25.1245C25.1245 75.087 26.4125 76.375 27.9996 76.375V75.625ZM30.1246 73.4999C30.1246 74.6728 29.1725 75.625 27.9996 75.625V76.375C29.5867 76.375 30.8746 75.087 30.8746 73.4999H30.1246ZM57.9994 45.6251C42.6274 45.6251 30.1246 58.1279 30.1246 73.4999H30.8746C30.8746 58.5421 43.0416 46.3751 57.9994 46.3751V45.6251ZM85.8742 73.4999C85.8742 58.1279 73.3715 45.6251 57.9994 45.6251V46.3751C72.9573 46.3751 85.1242 58.5421 85.1242 73.4999H85.8742ZM87.9993 75.625C86.8264 75.625 85.8742 74.6728 85.8742 73.4999H85.1242C85.1242 75.087 86.4122 76.375 87.9993 76.375V75.625ZM90.1244 73.4999C90.1244 74.6728 89.1722 75.625 87.9993 75.625V76.375C89.5864 76.375 90.8744 75.087 90.8744 73.4999H90.1244ZM85.8802 57.5543C88.5797 62.2556 90.1244 67.7004 90.1244 73.4999H90.8744C90.8744 67.5655 89.2934 61.9924 86.5306 57.1808L85.8802 57.5543ZM92.9994 55.6249C90.6014 55.6249 88.2439 56.1018 86.0598 57.022L86.351 57.7131C88.4425 56.832 90.7009 56.3749 92.9994 56.3749V55.6249ZM110.874 73.4999C110.874 63.6427 102.856 55.6249 92.9994 55.6249V56.3749C102.442 56.3749 110.124 64.0569 110.124 73.4999H110.874ZM112.999 75.625C111.827 75.625 110.874 74.6728 110.874 73.4999H110.124C110.124 75.087 111.412 76.375 112.999 76.375V75.625ZM115.125 73.4999C115.125 74.6728 114.172 75.625 112.999 75.625V76.375C114.587 76.375 115.875 75.087 115.875 73.4999H115.125ZM92.9994 51.375C105.197 51.375 115.124 61.3021 115.125 73.4999L115.875 73.4999C115.874 60.8878 105.611 50.625 92.9994 50.625V51.375ZM83.5028 53.5134C86.4582 52.11 89.701 51.375 92.9994 51.375V50.625C89.5895 50.625 86.2369 51.3849 83.1811 52.836L83.5028 53.5134ZM57.9994 41.375C68.1158 41.375 77.1558 46.0757 83.0496 53.4096L83.6342 52.9398C77.6047 45.437 68.3534 40.625 57.9994 40.625V41.375ZM32.9503 53.4084C38.8441 46.0752 47.8836 41.375 57.9994 41.375V40.625C47.646 40.625 38.3953 45.4364 32.3657 52.9385L32.9503 53.4084ZM32.8187 52.8347C29.7648 51.3854 26.4111 50.625 22.9999 50.625V51.375C26.2997 51.375 29.5435 52.1106 32.4972 53.5122L32.8187 52.8347ZM22.9999 50.625C10.3878 50.625 0.125 60.8878 0.125 73.4999H0.875C0.875 61.3021 10.8021 51.375 22.9999 51.375V50.625ZM0.125 73.4999C0.125 75.087 1.41297 76.375 3.00007 76.375V75.625C1.82718 75.625 0.875 74.6728 0.875 73.4999H0.125ZM3.00007 76.375C4.58717 76.375 5.87513 75.087 5.87513 73.4999H5.12513C5.12513 74.6728 4.17295 75.625 3.00007 75.625V76.375ZM5.87513 73.4999C5.8749 64.0569 13.5571 56.3749 22.9999 56.3749V55.6249C13.1429 55.6249 5.12489 63.6427 5.12513 73.4999L5.87513 73.4999ZM22.9999 56.3749C25.2992 56.3749 27.5583 56.8323 29.6486 57.7121L29.9396 57.0208C27.7568 56.1021 25.3987 55.6249 22.9999 55.6249V56.3749Z" fill="#285AA5"/>
</svg>
