<svg width="60" height="58" viewBox="0 0 60 58" fill="none" xmlns="http://www.w3.org/2000/svg">
<path d="M30 49.9485C42.4264 49.9485 52.5 40.3644 52.5 28.542C52.5 16.7195 42.4264 7.1355 30 7.1355C17.5736 7.1355 7.5 16.7195 7.5 28.542C7.5 40.3644 17.5736 49.9485 30 49.9485Z" stroke="white" stroke-width="2" stroke-miterlimit="10"/>
<path d="M30 35.6774C35.1776 35.6774 39.375 31.684 39.375 26.758C39.375 21.832 35.1776 17.8386 30 17.8386C24.8224 17.8386 20.625 21.832 20.625 26.758C20.625 31.684 24.8224 35.6774 30 35.6774Z" fill="#084892" stroke="white" stroke-width="2" stroke-miterlimit="10"/>
<path d="M14.9531 44.4574C16.3655 41.8155 18.5187 39.5968 21.1745 38.0472C23.8302 36.4977 26.8848 35.6775 30.0003 35.6775C33.1156 35.6775 36.1702 36.4977 38.8259 38.0472C41.4817 39.5968 43.6349 41.8153 45.0473 44.4572" stroke="white" stroke-width="2" stroke-linecap="round" stroke-linejoin="round"/>
</svg>
