<?xml version="1.0" encoding="utf-8"?>
<!-- Generator: Adobe Illustrator 25.2.0, SVG Export Plug-In . SVG Version: 6.00 Build 0)  -->
<svg version="1.1" id="Layer_1" xmlns="http://www.w3.org/2000/svg" xmlns:xlink="http://www.w3.org/1999/xlink" x="0px" y="0px"
	 viewBox="0 0 2881.2 452.28" style="enable-background:new 0 0 2881.2 452.28;" xml:space="preserve">
<style type="text/css">
	.st0{fill:url(#SVGID_1_);}
	.st1{fill:url(#SVGID_2_);}
	.st2{fill:#B81E14;}
	.st3{fill:#58585A;}
</style>
<g>
	<g>
		<radialGradient id="SVGID_1_" cx="382.2587" cy="105.9717" r="361.5849" gradientUnits="userSpaceOnUse">
			<stop  offset="0.0644" style="stop-color:#92BFB3"/>
			<stop  offset="0.1409" style="stop-color:#76B7B5"/>
			<stop  offset="0.3047" style="stop-color:#30A1BA"/>
			<stop  offset="0.3785" style="stop-color:#0E97BC"/>
			<stop  offset="0.4379" style="stop-color:#138FB6"/>
			<stop  offset="0.5324" style="stop-color:#2078A5"/>
			<stop  offset="0.65" style="stop-color:#36528B"/>
			<stop  offset="0.785" style="stop-color:#551E65"/>
			<stop  offset="0.8266" style="stop-color:#5F0D59"/>
		</radialGradient>
		<path class="st0" d="M420.24,71.58c-2.98-5.11-11.83-17.01-29.6-17.01H235.13H79.61c-17.77,0-26.62,11.89-29.6,17.01
			c-2.98,5.11-8.97,18.68-0.21,34.14l155.52,274.6c8.88,15.69,23.81,17.38,29.81,17.38s20.93-1.69,29.81-17.38l155.52-274.6
			C429.21,90.26,423.23,76.7,420.24,71.58z"/>
	</g>
	<g>
		
			<radialGradient id="SVGID_2_" cx="321.4627" cy="104.0646" r="380.9268" gradientTransform="matrix(0.9865 0.1636 -0.1947 1.1736 24.5899 -70.6651)" gradientUnits="userSpaceOnUse">
			<stop  offset="0" style="stop-color:#E1E74B"/>
			<stop  offset="0.0548" style="stop-color:#E7D143"/>
			<stop  offset="0.158" style="stop-color:#F0AC36"/>
			<stop  offset="0.2416" style="stop-color:#F6952E"/>
			<stop  offset="0.2947" style="stop-color:#F88D2B"/>
			<stop  offset="0.8266" style="stop-color:#B92216"/>
		</radialGradient>
		<path class="st1" d="M183.44,218.65L117.83,97.62c-15.66-34.61,10.81-43.05,10.81-43.05H79.61c-17.77,0-26.62,11.89-29.6,17.01
			c-2.98,5.11-8.97,18.68-0.21,34.14l115.85,216.75c8.88,15.69,14.6,29.46,29.81,29.46c6,0,20.93-1.69,29.81-17.38L371.3,54.58
			L183.44,218.65z"/>
	</g>
	<path class="st2" d="M390.64,18.32H235.13H79.61c-54.02,0-87.98,58.26-61.36,105.26l155.52,274.6c27.01,47.69,95.71,47.69,122.72,0
		L452,123.59C478.62,76.58,444.67,18.32,390.64,18.32z M420.46,105.72l-155.52,274.6c-8.88,15.69-23.81,17.38-29.81,17.38
		s-20.93-1.69-29.81-17.38L49.79,105.72c-8.76-15.46-2.77-29.03,0.21-34.14c2.98-5.11,11.83-17.01,29.6-17.01h155.52h155.52
		c17.77,0,26.62,11.9,29.6,17.01C423.23,76.7,429.21,90.26,420.46,105.72z"/>
	<g>
		<path class="st3" d="M947.48,106.54h20.19v232.7h-20.19V106.54z"/>
		<path class="st3" d="M1256.4,106.54h21.39l-100.1,232.7h-19.16l-100.1-232.7h21.39l88.29,206.86L1256.4,106.54z"/>
		<path class="st3" d="M835.33,106.54h21.39l-100.1,232.7h-19.16l-100.1-232.7h21.39l88.29,206.86L835.33,106.54z"/>
		<path class="st3" d="M1369.07,106.54h150.74v18.31h-130.55v90.17h113.96v17.97h-113.96v88.29h132.09v17.97h-152.28V106.54z"/>
		<path class="st3" d="M1815.89,339.24h-16.77l-156.73-196.43v196.43h-20.19v-232.7h16.08l157.42,197.28V106.54h20.19V339.24z"/>
		<path class="st3" d="M1937.96,273.71c0,6.73,1.74,13.2,5.22,19.42c3.48,6.22,8.18,11.75,14.11,16.6
			c5.93,4.85,12.86,8.73,20.79,11.64c7.92,2.91,16.34,4.36,25.23,4.36c23.95,0,42.26-4.19,54.92-12.58
			c12.66-8.38,18.99-20.85,18.99-37.39c0-8.56-1.85-15.68-5.56-21.39c-3.71-5.7-8.72-10.44-15.06-14.2
			c-6.32-3.76-13.74-6.73-22.24-8.9c-8.5-2.17-17.54-3.94-27.12-5.3c-5.82-0.68-11.89-1.51-18.22-2.48
			c-6.34-0.97-12.55-2.28-18.66-3.94c-6.1-1.65-11.89-3.76-17.36-6.33s-10.3-5.82-14.46-9.75c-4.16-3.94-7.47-8.7-9.92-14.29
			c-2.45-5.59-3.68-12.26-3.68-20.02c0-8.56,1.43-16.88,4.28-24.98c2.85-8.1,7.61-15.31,14.29-21.64
			c6.67-6.33,15.4-11.4,26.17-15.23c10.79-3.82,24.16-5.73,40.13-5.73c11.98,0,22.76,1.6,32.34,4.79
			c9.58,3.19,17.74,7.61,24.47,13.26c6.73,5.65,11.89,12.35,15.49,20.1c3.59,7.76,5.39,16.2,5.39,25.32h-20.19
			c0-6.96-1.43-13.23-4.28-18.82c-2.85-5.59-6.87-10.35-12.06-14.29c-5.19-3.94-11.41-6.96-18.66-9.07
			c-7.24-2.11-15.2-3.17-23.87-3.17c-12.21,0-22.39,1.4-30.55,4.19c-8.15,2.8-14.69,6.48-19.59,11.04c-4.9,4.56-8.35,9.7-10.35,15.4
			c-2,5.71-3,11.46-3,17.28c0,7.42,1.71,13.58,5.13,18.48c3.42,4.91,8.24,8.96,14.46,12.15c6.22,3.19,13.64,5.65,22.24,7.36
			c8.61,1.71,18.11,3.14,28.49,4.28c5.93,0.91,12.09,2,18.48,3.25c6.39,1.26,12.63,2.94,18.73,5.05c6.11,2.11,11.87,4.73,17.29,7.87
			c5.42,3.14,10.18,6.99,14.28,11.55c4.11,4.56,7.36,9.98,9.75,16.25c2.4,6.27,3.59,13.58,3.59,21.9c0,10.61-2.08,20.1-6.25,28.49
			c-4.16,8.38-10.24,15.51-18.22,21.39c-7.98,5.88-17.82,10.38-29.51,13.52c-11.69,3.14-25.13,4.71-40.3,4.71
			c-13,0-24.78-2.05-35.33-6.16c-10.56-4.11-19.51-9.47-26.87-16.08c-7.35-6.61-13.03-14.12-17.02-22.5
			c-3.99-8.38-5.99-16.85-5.99-25.41H1937.96z"/>
		<path class="st3" d="M2200.86,106.54h20.19v232.7h-20.19V106.54z"/>
		<path class="st3" d="M2395.99,124.34h-77.34v-17.79h175.04v17.79h-77.51v214.91h-20.19V124.34z"/>
		<path class="st3" d="M2775.06,106.54l-95.82,118.88v113.83h-20.19V225.42l-95.82-118.88h24.13l81.62,100.4h0.34l81.62-100.4
			H2775.06z"/>
	</g>
	<polygon class="st3" points="2834.19,132.61 2829.08,132.61 2829.08,110.38 2821.08,110.38 2821.08,105.51 2842.2,105.51 
		2842.2,110.38 2834.19,110.38 	"/>
	<polygon class="st3" points="2872.21,132.61 2867.1,132.61 2867.1,114.98 2860.13,124.09 2857.93,124.09 2851.02,114.98 
		2851.02,132.61 2845.91,132.61 2845.91,105.51 2849.93,105.51 2859.05,117.42 2868.12,105.51 2872.21,105.51 	"/>
</g>
</svg>
