<svg id="Capa_1" data-name="Capa 1" xmlns="http://www.w3.org/2000/svg" viewBox="0 0 601.24 408.98"><defs><style>.cls-1{fill:#ffbe9e;}.cls-2{fill:#fea09b;}.cls-3,.cls-4{fill:#ffefd6;}.cls-3{fill-rule:evenodd;}.cls-5{fill:#285aa5;}.cls-6{fill:#fff;}.cls-7{fill:#2e8dff;}.cls-25,.cls-8{fill:none;stroke-miterlimit:10;}.cls-8{stroke:#084892;stroke-linecap:round;stroke-width:10px;}.cls-9{fill:#2e8eff;}.cls-10{fill:#f8af2c;}.cls-11{fill:#17467e;}.cls-12{fill:#f7b58e;}.cls-13{fill:#feb125;}.cls-14{fill:#ffd082;}.cls-15{fill:#ff403b;}.cls-16{fill:#f49b42;}.cls-17{fill:#f9b646;}.cls-18{fill:#e7375e;}.cls-19{fill:#ffd147;}.cls-20{fill:#212b53;}.cls-21{fill:#f6a505;}.cls-22{fill:#01888b;}.cls-23{fill:#e4efff;}.cls-24{fill:#f39f85;}.cls-25{stroke:#ffae0c;stroke-width:2px;stroke-dasharray:20 20 5;}</style></defs><title>weAreFreeSVG</title><path class="cls-1" d="M563,329.68a4.73,4.73,0,0,0-2.8-6.09c-2.21-1-4.51-.48-6.78.11a19.86,19.86,0,0,0-2.81.69l-.46.1c-.35-3.49-2.51-13.47-6.74-9.22-3.78,3.8.53,10.1,4.54,11.45a1.19,1.19,0,0,0,1-.14c1.63,2.68,4.28,5.51,7.42,6.31A5.94,5.94,0,0,0,563,329.68Z" transform="translate(-1.14 -93)"/><path class="cls-1" d="M554.23,341.42c.39-2.63-2.35-4.31-4.48-5a11.86,11.86,0,0,0-6.83-.17c.42-3.68-3.55-11.46-7.59-8.8-2.1,1.37-1.27,4.23-.33,6.05a12.62,12.62,0,0,0,6.19,5.7,8.13,8.13,0,0,0,.86,1.72,8.51,8.51,0,0,0,7.31,3.84C551.41,344.69,553.88,343.71,554.23,341.42Z" transform="translate(-1.14 -93)"/><path class="cls-1" d="M545.84,348.36c-3.15-2.81-8.35-2-11.92-.23a10.88,10.88,0,0,1-.16-1.67c-.08-3.18-1-7.93-4.53-9.15a3.53,3.53,0,0,0-4.78,2.62c-1.08,4.33,4.06,8.16,6.58,10.79a1,1,0,0,0,1,.3v0c1.81,3.77,7.55,5.39,11.23,3.87C546,353.8,548.57,350.8,545.84,348.36Z" transform="translate(-1.14 -93)"/><path class="cls-1" d="M539.07,364a14.05,14.05,0,0,0-12.35-5.81c-.38-1-.74-2-1.11-3-1.24-3.25-4.78-8.89-9.06-8.2-3.68.6-4.09,4.79-2.75,7.56,2.08,4.25,6.84,5.65,11.24,5.69a.77.77,0,0,0,.34.16c.59,1.35,1.21,2.69,1.91,4,1.82,3.43,5.3,8.12,9.91,6.57C540.51,369.89,540.9,366.65,539.07,364Z" transform="translate(-1.14 -93)"/><path class="cls-1" d="M528.14,373.13c-2.44-4-7.79-4.87-12-4-.06,0-.1.05-.15.06a34.26,34.26,0,0,0-.88-3.7c-.91-2.87-2.71-8.16-6.65-7.35-8.14,1.67-.13,13.12,5.85,13.21a11.65,11.65,0,0,0,1.55,4.2c2,3.09,6.48,5.67,10.21,4.35C529.16,378.79,529.75,375.77,528.14,373.13Z" transform="translate(-1.14 -93)"/><path class="cls-1" d="M516.22,387.14c-2.28-3.8-7.08-5.47-11.3-5.68a25.79,25.79,0,0,0-.7-4.57c-.71-2.51-2.13-6.49-5.29-6.57-3.71-.11-5.48,4.36-4.62,7.39,1.13,4,5.17,5.57,8.85,6.24a10.92,10.92,0,0,0,1.08,3.65c1.65,3.16,6.15,7.15,10.11,6C517.37,392.67,517.66,389.53,516.22,387.14Z" transform="translate(-1.14 -93)"/><path class="cls-1" d="M506.52,401.18c-2.74-4.85-7.47-8.29-13-8.07,0-.3-.05-.61-.09-.95a21.13,21.13,0,0,0-2.93-9.23c-.88-1.48-2.7-5-4.69-5.36-4.08-.77-5.37,4.88-4.79,7.7a13.42,13.42,0,0,0,9.88,10.17.86.86,0,0,0,.56-.06c1.08,4.86,6.56,10.72,11.65,11.26C507.23,407.07,508.25,404.24,506.52,401.18Z" transform="translate(-1.14 -93)"/><path class="cls-1" d="M556.77,314.84c1.31-2.3-.5-3.35-1.83-1a316,316,0,0,1-68,82.76c-2,1.75-1,3.58,1,1.82A319.66,319.66,0,0,0,556.77,314.84Z" transform="translate(-1.14 -93)"/><path class="cls-1" d="M569,306.66c2.38-4.48.16-11-5.83-8.77s-9.24,9.66-9.59,15.52a6.91,6.91,0,0,0,1.83,3.4c2,1.59,5-.2,6.74-1.42C565.12,313.24,567.26,309.87,569,306.66Z" transform="translate(-1.14 -93)"/><path class="cls-2" d="M487.32,388.59c-4.63.37-34.22-31.83-28.43-37.89,4.51-4.72,9.62-.05,11.34,1.79,2.71,2.91,8.78,10.32,10.61,8,3.31-4.25-14.42-21-18.49-25.38s-10.79-13.92-9.15-20.3,3-8.79,9.72-.78,17.92,25.45,19.11,17.91-10.67-19.05-15-28.13-9.61-27.88-2.14-26.7c6.68,1.05,15.65,29.45,19.45,25.9,3-2.85-2.32-9.6-7-22s-8.91-24.22-1.78-27.66c5.73-2.76,7,5.83,9.62,12.5s6.56,15.83,8.73,12.39-13.66-34.84-5.4-41.37c5.46-4.32,6.71,3.45,10.16,11s5.23,10,6.5,8.82-1.73-12.19-3.53-18.18-2.34-15.22,3.19-17.1,7.43,8,7.28,11.86,1.34,7.54,2.48,7.57,2.52-12.55,8.89-10.82,3.87,13.63-1,18.14-11.17,10.75-9.53,12.51,7.22-3.46,11.62-7.56,7.08-4.74,8.18-3.57c3.65,3.91,1,12.55-2.21,15.55s-23.41,17.48-21,20.08,9.43-3.64,13-7,11.83-11.05,15.9-6.7-4.9,17.13-12.05,23S507,309.1,508.82,311.11s12.92-3.29,17.23-7.32,10-13.39,15-8-.56,12.6-9,20.5c-3.54,3.31-12.38,11.4-19.9,12.86-8.57,1.67-12.57,3.9-12.28,5.91.58,4,7.92,1.54,12.76-1.41s19.33-13,22.6-4.8-10.46,13.38-15.78,16S494.57,355,496.2,359.28s10.85-2.45,13.93-4.24,10.65-3.43,10.52-.09S495.58,387.93,487.32,388.59Z" transform="translate(-1.14 -93)"/><path class="cls-3" d="M566.76,455.08c-5.82-25.49-33.56-26.59-34.61-30.92-1.11-4.63,14-12.5,8.19-25.53s-18.51-11.18-20.61-15.43C519.12,382,536.06,345,492,338.74c-19.1-2.72-32.85,11.89-33.84,11.79-4-.42-26.45-15.13-51.75-2.31s-20.72,26.72-24.94,28.4-19.24-8.24-51.22,6.25-38.64,53-51.9,54.72c-12.85,1.63-50.4-1.08-53.62,17.49Z" transform="translate(-1.14 -93)"/><path class="cls-4" d="M200.46,399.74c16.94-18.41-31.74-8.13-16.93-19.43,30.38-23.19,13.73-31,12-31.85a14.14,14.14,0,0,0-4-1.29c-3.43-.57-5.65,1.42-6.85-2-1.48-4.25,4.37-11.34,5.47-15.84,1-4.31,1.17-9-.89-13-3.06-6-10.24-8.73-16.72-7.78-8,1.17-13.88,7.75-16.57,15.06-.65,1.78-5.78,10.12-7.07,9.52-.45-.2-1.66-2.83-1.8-3-1.4-1.88-2.88-3.5-5.35-3.79-7.05-.84-9.28,7.22-9.15,12.59.16,6.76,1.33,13.58,1.9,20.32.21,2.51-.48,7-3.59,5.15-1.5-.9-2.72-5.18-3.84-6.56-4-4.93-10.18-4.6-14.28.2-6.37,7.45-5.77,19-2.73,27.58,1.16,3.25,2.72,6.37,3.63,9.71.4,1.44,1.8,5.33,1.22,6.68-2.77,6.51-3.74,2.32-6.08,1.13-3.08-1.57-5.44-2.14-9-.24-8,4.24-7.31,15.91-5,23.16,3.2,10.1,10.36,20.75,20.65,24.54,12.52,4.63,25.58-.79,37.06-5.78a3.39,3.39,0,0,0,.28-.2,71.09,71.09,0,0,0,7.29-3.56c6.47-3.66,15-9.38,13.84-18a10,10,0,0,0-3.86-6.79c-1.44-1-2.82-.72-4.23-1.43-5.83-3-1.55-2.87,2.5-3.55,11-1.85,23.4-3.87,32.16-11.5" transform="translate(-1.14 -93)"/><path class="cls-1" d="M152.32,431.1a9.22,9.22,0,0,1-2.17-2.69c2-.54,4-1.16,5.65-1.74,1-.36.6-2-.45-1.67a53.75,53.75,0,0,1-10.46,2.54c-3.88.51-8.8,1.18-12.38-.7l-.13,0a204,204,0,0,0,15.52-30.87.72.72,0,0,0,.45.25,74.56,74.56,0,0,0,25.55-.08.06.06,0,0,1,0,0,31.36,31.36,0,0,0,4.59,5.56c.8.77,2-.46,1.21-1.23a28.87,28.87,0,0,1-4-4.72c.93-.19,1.87-.38,2.8-.6a.87.87,0,0,0-.45-1.67,72.57,72.57,0,0,1-29.31,1,.8.8,0,0,0-.31,0c4.35-10.71,8.16-21.72,11.91-32.69a1.26,1.26,0,0,0,.33.15c5.79,1.38,11.76,2.38,17.52,1.45a27.89,27.89,0,0,0,4.68,4c.91.62,1.76-.89.84-1.51a26.15,26.15,0,0,1-3.47-2.9,23.32,23.32,0,0,0,5.14-1.94c1-.52.12-2-.86-1.5-7.41,3.88-15.63,2.59-23.43.73a.83.83,0,0,0-.22,0c3-8.67,5.93-17.32,9.14-25.77.4-1-1.28-1.46-1.67-.43-4.13,10.84-7.83,22-11.67,33.15-6.45-6.54-10.27-17.13-13.43-25.47-.39-1-2.06-.6-1.67.45.94,2.48,1.93,5.13,3,7.8-1.26-.75-2.53-1.48-3.84-2.15-1-.51-1.83,1-.84,1.51,1.65.85,3.26,1.76,4.83,2.75a.74.74,0,0,0,.74.05c2.67,6.28,6,12.49,10.57,16.88-4.16,12-8.52,24-13.77,35.47,0,0,0-.06-.08-.08-11.23-8.39-17.37-21.16-22-34.06-.37-1-2-.6-1.67.45.87,2.45,1.8,4.9,2.8,7.3a31.12,31.12,0,0,1-4.24-3.72c-.76-.81-2,.43-1.21,1.23a32.61,32.61,0,0,0,6.1,5,.8.8,0,0,0,.5.12c4.34,9.71,10.1,18.65,18.84,25.17a.8.8,0,0,0,.23.11,162.2,162.2,0,0,1-18.78,31.37l0,0a65.91,65.91,0,0,1-15.75-23.15c-.41-1-2.08-.58-1.67.45.69,1.71,1.46,3.37,2.28,5a29.93,29.93,0,0,1-5-2.5c-.94-.6-1.78.91-.84,1.51a30.71,30.71,0,0,0,6.58,3.11.79.79,0,0,0,.33,0,67.68,67.68,0,0,0,12.81,16.76.85.85,0,0,0,.22.13,122.6,122.6,0,0,1-8.4,9.49.86.86,0,0,0,1.23,1.21,130.77,130.77,0,0,0,16.84-21.26.86.86,0,0,0,.18.14c4.61,2.42,11,1.85,16.76.49a10.3,10.3,0,0,0,2.68,3.49C152,433.05,153.17,431.82,152.32,431.1Z" transform="translate(-1.14 -93)"/><path class="cls-1" d="M5.75,347.39c8.27,25.76,19.5,51,36.59,72.19A141,141,0,0,0,68.9,445.14a92.14,92.14,0,0,0,15.38,9.5c3,1.37,7.28,2.4,9.77-.19a5.2,5.2,0,0,0,.55-.66.4.4,0,0,0,.29-.26,2.81,2.81,0,0,0,.18-.52c2-6.57,1.49-13.95.57-23.73-.72-7.6-3.47-15.85-5.9-23.11-2.69-8.05-6.44-15.76-9.85-23.52q-5-11.38-10-22.8C61.13,340,52.76,314.37,31.76,304.26c-5-2.38-10.67-3.84-16.09-2.26-4.72,1.38-8.49,4.93-11,9.1C-1.94,322.34,2,335.86,5.75,347.39Z" transform="translate(-1.14 -93)"/><path class="cls-2" d="M38.23,353.69c1.74,4,3.51,8,5.32,11.91a78,78,0,0,1-24.55-8c-.7-.35-1.21.73-.52,1.09a78.68,78.68,0,0,0,25.46,8.18.6.6,0,0,0,.19,0q4,8.7,8.28,17.31L41.18,380c-4-1.49-8.39-2.67-11.63-5.47a.61.61,0,0,0-.79.93c3.09,2.65,7.06,3.81,10.82,5.22l13.49,5.1.11,0q3.32,6.58,6.81,13.05a39.8,39.8,0,0,1-23.73-4.3c-.7-.37-1.21.73-.53,1.08a40.93,40.93,0,0,0,22.61,4.63c.76-.06,1.52-.15,2.27-.25,1.15,2.11,2.3,4.19,3.48,6.27q2.86,5,5.83,10l-8.42-.06c-3,0-6.7.51-9.51-.56-.73-.28-1.26.8-.53,1.08,2.49.95,5.24.65,7.86.67l10.84.08a.49.49,0,0,0,.38-.17c2.79,4.65,5.65,9.25,8.53,13.84q-8.1-.19-16.19-.68c-.77,0-1,1.14-.22,1.19,5.58.33,11.18.58,16.79.71a.48.48,0,0,0,.32-.12q3.7,5.88,7.47,11.71l-13.62.7a.6.6,0,0,0,.09,1.2q7.14-.34,14.28-.73c2,3.12,4,6.24,6.06,9.35a5.2,5.2,0,0,0,.55-.66.4.4,0,0,0,.29-.26c-1.87-2.86-3.75-5.74-5.6-8.62a.66.66,0,0,0,.22-.33,93.19,93.19,0,0,0,2.32-15.15c0-.76-1.13-1-1.19-.23a92.4,92.4,0,0,1-2.17,14.43q-3.59-5.58-7.14-11.17s0-.06,0-.1a126.16,126.16,0,0,0,1.75-23c0-.77-1.22-.66-1.2.1a125.89,125.89,0,0,1-1.57,21.43l-1.59-2.52c-2.51-4-5-8.11-7.41-12.19a.5.5,0,0,0,.26-.41q1.64-13.87,1.94-27.86c0-.77-1.19-.66-1.2.1q-.3,13.44-1.84,26.75-4.53-7.68-8.83-15.51a.46.46,0,0,0,0-.14q2.51-15.21,4.06-30.54c.08-.77-1.11-1-1.18-.23Q63.13,383,60.75,397.59c-2.41-4.47-4.79-9-7.07-13.52a.61.61,0,0,0,.23-.37,194.59,194.59,0,0,0,2.67-38.41c0-.79-1.23-.67-1.21.1a191.33,191.33,0,0,1-2.5,37.1c-1.07-2.18-2.14-4.37-3.19-6.57-1.62-3.37-3.18-6.76-4.74-10.16a.43.43,0,0,0,.17-.34,283.13,283.13,0,0,0-.18-37,.61.61,0,0,0-1.21.1A282.08,282.08,0,0,1,44,363.69q-4-8.78-7.78-17.65a.5.5,0,0,0,.07-.3q-.33-13.29-1.18-26.55a.61.61,0,0,0-1.21.09q.77,12,1.1,23.9-4.53-10.65-9-21.34c-.31-.72-1.44-.31-1.15.42q4.82,11.52,9.72,23a78.46,78.46,0,0,1-21.3-12.45.61.61,0,0,0-.78.93,79.21,79.21,0,0,0,22.74,13.08h0C36.27,349.13,37.23,351.41,38.23,353.69Z" transform="translate(-1.14 -93)"/><path class="cls-2" d="M52,322.2c-1.91,27-.9,54.59,7.06,80.62a141.16,141.16,0,0,0,15.12,33.62A92.63,92.63,0,0,0,84.91,451c2.28,2.4,5.86,4.95,9.14,3.47a5.74,5.74,0,0,0,.76-.41.39.39,0,0,0,.36-.13,2.75,2.75,0,0,0,.36-.42c4.3-5.35,6.58-12.39,9.38-21.81,2.15-7.31,2.68-16,3.13-23.64.51-8.47-.1-17-.37-25.49q-.44-12.45-.83-24.91c-.71-21.63,1.1-48.57-14.63-65.78-3.7-4.05-8.47-7.53-14.08-8.09-4.9-.47-9.72,1.42-13.56,4.36C54.2,296.09,52.86,310.12,52,322.2Z" transform="translate(-1.14 -93)"/><path class="cls-4" d="M79.8,340.15q.18,6.53.49,13a77.9,77.9,0,0,1-19.8-16.55c-.52-.59-1.4.23-.89.82a78.77,78.77,0,0,0,20.58,17.07.41.41,0,0,0,.17.07c.32,6.38.71,12.77,1.24,19.15l-8.84-8.12c-3.12-2.85-6.8-5.6-8.76-9.4a.6.6,0,0,0-1.07.56c1.87,3.62,5.13,6.17,8.08,8.87l10.62,9.77a.53.53,0,0,1,.1.06q.61,7.33,1.46,14.65a39.79,39.79,0,0,1-20.42-12.84c-.51-.6-1.4.22-.9.81a40.92,40.92,0,0,0,19.26,12.72c.73.23,1.46.43,2.2.62.28,2.37.57,4.74.89,7.1Q85,404.29,85.9,410l-7.79-3.21c-2.77-1.13-6.41-2-8.62-4.06-.57-.53-1.47.28-.9.81,2,1.81,4.63,2.55,7,3.55l10,4.11a.55.55,0,0,0,.42,0c.85,5.35,1.79,10.69,2.75,16-5-2.13-9.88-4.36-14.77-6.66-.7-.33-1.35.68-.65,1q7.59,3.6,15.32,6.92a.45.45,0,0,0,.34,0c.83,4.56,1.69,9.1,2.57,13.65-4.31-1.47-8.6-2.95-12.9-4.43-.75-.25-1.09.91-.36,1.16l13.52,4.64Q93,449,94.05,454.45a5.74,5.74,0,0,0,.76-.41.39.39,0,0,0,.36-.13q-1-5-2-10.08a.66.66,0,0,0,.32-.23,93.55,93.55,0,0,0,7.81-13.19c.32-.7-.69-1.35-1-.66a92,92,0,0,1-7.38,12.58q-1.26-6.51-2.47-13s0,0,.07-.07a127,127,0,0,0,10.19-20.66c.27-.73-.89-1.07-1.16-.36a126.22,126.22,0,0,1-9.43,19.3l-.54-2.93c-.83-4.68-1.61-9.38-2.33-14.07a.52.52,0,0,0,.39-.29Q94.32,398,99.81,385.1c.31-.72-.86-1.07-1.15-.36Q93.38,397.1,87,408.87q-1.33-8.82-2.41-17.68a.27.27,0,0,0,.1-.11q8-13.18,15.15-26.83c.36-.68-.66-1.34-1-.65Q92,376.67,84.34,389.28c-.58-5-1.1-10.11-1.52-15.18a.62.62,0,0,0,.34-.27A193.56,193.56,0,0,0,100,339.19c.27-.74-.89-1.09-1.15-.36a192.71,192.71,0,0,1-16.14,33.5q-.28-3.65-.53-7.29c-.24-3.73-.43-7.45-.6-11.19a.45.45,0,0,0,.28-.25,281.23,281.23,0,0,0,13.6-34.37.6.6,0,0,0-1.15-.35,282.45,282.45,0,0,1-12.83,32.7c-.28-6.42-.48-12.84-.64-19.28a.39.39,0,0,0,.18-.25q4.65-12.45,8.8-25.08a.61.61,0,0,0-1.16-.36Q84.88,318,80.73,329.2c-.16-7.72-.27-15.44-.37-23.15,0-.78-1.22-.82-1.22,0,.12,8.31.25,16.64.44,25A78.54,78.54,0,0,1,64.46,311.5a.61.61,0,0,0-1.07.57,79.48,79.48,0,0,0,16.22,20.61h0C79.68,335.18,79.72,337.66,79.8,340.15Z" transform="translate(-1.14 -93)"/><path class="cls-5" d="M230.6,377.37v76.26c0,2.16.1,4.21.27,6.07h86.51c.17-1.86.27-3.91.27-6.07V377.37Z" transform="translate(-1.14 -93)"/><path class="cls-6" d="M101.51,398.5a11.88,11.88,0,0,1-11.87-11.86V162.51a11.89,11.89,0,0,1,11.87-11.87H446.74a11.88,11.88,0,0,1,11.87,11.87V386.64a11.88,11.88,0,0,1-11.87,11.86Z" transform="translate(-1.14 -93)"/><path class="cls-5" d="M446.74,152.14a10.38,10.38,0,0,1,10.37,10.37V386.64A10.38,10.38,0,0,1,446.74,397H101.51a10.38,10.38,0,0,1-10.37-10.36V162.51a10.39,10.39,0,0,1,10.37-10.37H446.74m0-3H101.51a13.38,13.38,0,0,0-13.37,13.37V386.64A13.37,13.37,0,0,0,101.51,400H446.74a13.37,13.37,0,0,0,13.37-13.36V162.51a13.38,13.38,0,0,0-13.37-13.37Z" transform="translate(-1.14 -93)"/><path class="cls-7" d="M88.14,335.28v51.36A13.37,13.37,0,0,0,101.51,400H446.74a13.37,13.37,0,0,0,13.37-13.36V335.28Z" transform="translate(-1.14 -93)"/><line class="cls-8" x1="209.37" y1="363.34" x2="337.54" y2="363.34"/><path class="cls-9" d="M344.44,219h0a11.77,11.77,0,0,0-9.75,13.39h0a11.77,11.77,0,0,1-15,13.06h0a11.77,11.77,0,0,0-14.59,7.84h0A11.77,11.77,0,0,1,286,258.52h0a11.77,11.77,0,0,0-16.56.73h0a11.76,11.76,0,0,1-19.54-3.57h0a11.77,11.77,0,0,0-15.23-6.53h0a11.77,11.77,0,0,1-16.07-11.69h0A11.77,11.77,0,0,0,207.67,225h0a11.77,11.77,0,0,1-9.4-17.51h0a11.76,11.76,0,0,0-4.39-16h0a11.78,11.78,0,0,1-.87-19.86h0a11.75,11.75,0,0,0,3-16.29h0a11.77,11.77,0,0,1,7.83-18.26h0a11.76,11.76,0,0,0,9.75-13.39h0a11.77,11.77,0,0,1,15-13.06h0a11.78,11.78,0,0,0,14.6-7.84h0a11.76,11.76,0,0,1,19.16-5.27h0a11.76,11.76,0,0,0,16.55-.73h0a11.77,11.77,0,0,1,19.55,3.57h0a11.77,11.77,0,0,0,15.23,6.53h0a11.76,11.76,0,0,1,16.06,11.69h0a11.77,11.77,0,0,0,10.89,12.49h0a11.77,11.77,0,0,1,9.4,17.51h0a11.76,11.76,0,0,0,4.39,16h0a11.77,11.77,0,0,1,.87,19.86h0a11.76,11.76,0,0,0-3,16.29h0A11.77,11.77,0,0,1,344.44,219Z" transform="translate(-1.14 -93)"/><path class="cls-10" d="M257.42,144.54c10.1,0,18.42,7.48,18.42,17.48s-8.32,17.58-18.42,17.58S239,171.92,239,162,247.31,144.54,257.42,144.54Zm35.27,1.27H306.9l-40.22,69.48h-14.1Zm-35.17,10.95c-2.94,0-4.84,2-4.84,5.26s1.79,5.26,4.84,5.26c2.64,0,4.64-2,4.64-5.26C262.16,159,260.16,156.76,257.52,156.76ZM302,181.39c10.11,0,18.43,7.48,18.43,17.48s-8.32,17.58-18.43,17.58-18.42-7.69-18.42-17.58S291.85,181.39,302,181.39Zm.11,12.21c-2.95,0-4.84,2-4.84,5.27s1.78,5.26,4.84,5.26c2.63,0,4.63-2,4.63-5.26C306.69,195.82,304.69,193.6,302.06,193.6Z" transform="translate(-1.14 -93)"/><path class="cls-11" d="M393.39,493.75s-1.54,2.13-8.8,4c-1.6.41-3.32.68-3.32,3.32h7.17l7.33-1.27v1.27h4s1.1-6.47-1.21-7.3Z" transform="translate(-1.14 -93)"/><path class="cls-12" d="M393,489.1l.37,4.65h0a4.49,4.49,0,0,0,4.85.16l.28-.16V489.1Z" transform="translate(-1.14 -93)"/><path class="cls-11" d="M430.16,494.67s-1.54,2.14-8.8,4c-1.6.4-3.32.68-3.32,3.32h7.17l7.32-1.27V502h4s1.11-6.48-1.21-7.31Z" transform="translate(-1.14 -93)"/><path class="cls-12" d="M429.79,490l.37,4.65h0a4.47,4.47,0,0,0,4.85.17l.27-.17V490Z" transform="translate(-1.14 -93)"/><path class="cls-13" d="M390.1,374.81l1.78,116.81h8.51s12.95-94.31,10.19-116.81S390.1,374.81,390.1,374.81Z" transform="translate(-1.14 -93)"/><path class="cls-14" d="M399.09,374.79s3,35.88,9.77,55.74S428,491.62,428,491.62h8.81s-14.71-86.15-11.35-116.83H399.09Z" transform="translate(-1.14 -93)"/><path class="cls-15" d="M391.42,315.33s-10.49,24.46-13.15,24.46c-2.13,0,.8-20,.8-20h-8.78s-11.05,34.23-2.27,40.49,28.09-17.71,28.09-17.71Z" transform="translate(-1.14 -93)"/><path class="cls-12" d="M422.7,377.89l-3.18,7.86c-1.53,3.09-7.16,3.17-10.89,2.19a.78.78,0,0,1-.37-1.28c2.05-2.25,7.37-8,9.22-9.3Z" transform="translate(-1.14 -93)"/><path class="cls-15" d="M396.11,310.28s-5.48,3.72-5.48,8v56.53h32.09V321.94s-.65-11.76-12.14-11.76S396.11,310.28,396.11,310.28Z" transform="translate(-1.14 -93)"/><path class="cls-12" d="M407.74,297.66V311a8.16,8.16,0,0,1-6.22,3c-4,0-4-2.88-4-2.88V302.6l5.93-1.54Z" transform="translate(-1.14 -93)"/><path class="cls-12" d="M397,305.14a4.94,4.94,0,0,1-3-.78c-3.56-5.66.5-20.94.5-20.94l12.9,2.31.41,10.24a8.6,8.6,0,0,1-3.22,7.06h0A13.8,13.8,0,0,1,397,305.14Z" transform="translate(-1.14 -93)"/><path class="cls-11" d="M401.36,286a27.65,27.65,0,0,1-8.79,0c-4.51-.8-1.62-5.76-1.62-5.76s3.33,1.52,9.26.64c4-.59,5.07-1.37,7.64,0,3.48,1.86,2.64,8.16,2.64,8.16l-1.92,13.32h-.72s-.18-7.92-.18-10.62c-.75-1.23-1.57-1.23-2.2-.92a2,2,0,0,0-1.07,1.83v13.84s-8.81,3.8-11,3.11-.74-10.94-.74-10.94a4.11,4.11,0,0,1,4.58,1.12c2,2.22,4.4-.09,4.4-.09Z" transform="translate(-1.14 -93)"/><path class="cls-12" d="M372,319.82l.31-1.69c.69-3.73,4.26-8.38,7.85-9.6h3.73l-1.15,8-5.27,3.32Z" transform="translate(-1.14 -93)"/><path class="cls-12" d="M406.59,290.47a2.25,2.25,0,0,0-2.12,2.12,1.93,1.93,0,0,0,1.46,2.41,2.23,2.23,0,0,0,2.12-2.11A2,2,0,0,0,406.59,290.47Z" transform="translate(-1.14 -93)"/><path class="cls-12" d="M381.17,315.62l-7.26,4.2s4.55-.05,4.63,0l7.69-6.43s-.56-1.13-2.3-.18A8.76,8.76,0,0,0,381.17,315.62Z" transform="translate(-1.14 -93)"/><path class="cls-15" d="M419.31,313.72s18.14,20.16,18.14,32.24-14.73,33.38-14.73,33.38l-7.27-2.13S422,350.86,422,343.85s-13.48-17.29-13.48-17.29" transform="translate(-1.14 -93)"/><path class="cls-16" d="M386,302.42s1.5,7.81-3.32,14.08a2.08,2.08,0,0,1-1.36.75,5.27,5.27,0,0,1-2.51-.41,2.31,2.31,0,0,1-1.52-1.09,1,1,0,0,1,.11-1.05c1-1.46,4-6.47,2.62-10.9A7.87,7.87,0,0,1,386,302.42Z" transform="translate(-1.14 -93)"/><path class="cls-17" d="M378.17,316.57a1.58,1.58,0,0,1-.85-.82,1,1,0,0,1,.11-1.05c1-1.46,4-6.47,2.62-10.9a6.65,6.65,0,0,1,2.85-1.31C383.06,307.36,382,310.61,378.17,316.57Z" transform="translate(-1.14 -93)"/><path class="cls-16" d="M381.72,308.86c-.23,1.12-.77,1.95-1.21,1.86s-.61-1.07-.38-2.19.77-1.95,1.21-1.86S382,307.74,381.72,308.86Z" transform="translate(-1.14 -93)"/><polygon class="cls-16" points="380.3 213.71 379.83 213.6 379.87 213.83 380.18 213.95 380.3 213.71"/><polygon class="cls-18" points="379.48 217.72 378.92 217.62 379.56 217.52 379.48 217.72"/><path class="cls-19" d="M381.35,308.78c-.23,1.12-.77,2-1.21,1.86s-.61-1.07-.38-2.18.77-1.95,1.21-1.86S381.58,307.67,381.35,308.78Z" transform="translate(-1.14 -93)"/><path class="cls-19" d="M388,295.84h.86a2.93,2.93,0,0,1,3,2.85V301a2.93,2.93,0,0,1-3,2.85H388Z" transform="translate(-1.14 -93)"/><ellipse class="cls-20" cx="363.73" cy="205.08" rx="3.17" ry="11.18"/><polygon class="cls-6" points="367.04 200.96 364.53 202.59 364.53 206.21 367.12 208.55 368.01 203.85 367.04 200.96"/><path class="cls-21" d="M368,298.08c0-5.19-1-9.54-2.36-10.8h0a51.09,51.09,0,0,0,22.81,8.65v7.89s-16.65-.94-22.81,5.08h0C367,307.62,368,303.27,368,298.08Z" transform="translate(-1.14 -93)"/><path class="cls-19" d="M365.33,297.39c0,1,.15,1.82.34,1.82s.34-.82.34-1.82-.15-1.81-.34-1.81S365.33,296.39,365.33,297.39Z" transform="translate(-1.14 -93)"/><path class="cls-12" d="M376,314a8.41,8.41,0,0,0,4.06.67c2.11,0,3.06-2.6,3.42-4,.13-.5.24-1.2-.38-1.52l-3.39-.47Z" transform="translate(-1.14 -93)"/><path class="cls-20" d="M124.91,494.42s3.1,2.87,10.17,4.67c1.55.4,3.23-.13,3.23,2.43h-8.58l-7.13-1.23v1.23h-3.85s-1.07-6.3,1.18-7.1Z" transform="translate(-1.14 -93)"/><path class="cls-12" d="M124.48,489.89l.43,4.53h0a4.36,4.36,0,0,1-4.72.15l-.26-.15-.8-4.53Z" transform="translate(-1.14 -93)"/><path class="cls-20" d="M87.46,494.42s-3.1,2.87-10.17,4.67c-1.55.4-3.23-.13-3.23,2.43h8.57l7.14-1.23v1.23h3.85s1.07-6.3-1.18-7.1Z" transform="translate(-1.14 -93)"/><path class="cls-12" d="M87.89,489.89l-.43,4.53h0a4.36,4.36,0,0,0,4.72.15l.26-.15.8-4.53Z" transform="translate(-1.14 -93)"/><path class="cls-22" d="M122.08,367.52c4.62,22.41,5.33,46.52,5.43,66.75a536.34,536.34,0,0,1-2.5,56.42h-6.67l-13.92-93.18s-1.51,13.86-3.57,37.36c-1.61,18.44-2.37,34-6.7,55.82H87.46s-4-64.89-4-120.77C99.14,369.92,114,367.52,122.08,367.52Z" transform="translate(-1.14 -93)"/><path class="cls-12" d="M151.89,270.65,156,266.5a1.46,1.46,0,0,0,.36-1.39l-.3-1.17a1.46,1.46,0,0,0-.68-.89l-4.95-2.92a1.47,1.47,0,0,0-1.8.25l-.49.52a1.44,1.44,0,0,0-.41,1v7.23Z" transform="translate(-1.14 -93)"/><path class="cls-23" d="M152.82,270.66s-7.65,29.19-12.43,40-21.18,29.14-21.18,29.14L108.6,317.85s15.42-9.49,22.59-18.7,15.93-31,15.93-31Z" transform="translate(-1.14 -93)"/><path class="cls-12" d="M57,266.88l-3.1-4.94a1.46,1.46,0,0,1-.06-1.43l.56-1.08a1.43,1.43,0,0,1,.85-.73l5.45-1.78a1.47,1.47,0,0,1,1.71.63l.37.61a1.42,1.42,0,0,1,.18,1.08l-1.56,7.06Z" transform="translate(-1.14 -93)"/><path class="cls-23" d="M110.26,313.79c12.42,6.57,11.76,54.54,11.76,54.54L82.79,371.5l6.27-39.92S68.28,314,63.78,299.83s-7.69-33.75-7.69-33.75l6,0s10.24,25.36,15.61,32.42S99.5,314.65,99.5,314.65Z" transform="translate(-1.14 -93)"/><path class="cls-24" d="M102.39,313.84l.9-6.78,7.71.1,1.34,7.83a2.09,2.09,0,0,1-.14.17A21.83,21.83,0,0,0,102.39,313.84Z" transform="translate(-1.14 -93)"/><path class="cls-12" d="M97.84,294.51l3,10.24a1.65,1.65,0,0,1,1.93,1.68,2.08,2.08,0,0,1,.36.73,12.24,12.24,0,0,0,9.75-.08c6.26-2.84-.76-14.56-.76-14.56Z" transform="translate(-1.14 -93)"/><path class="cls-20" d="M96.42,303.09a6.55,6.55,0,0,0-2.35-2.47c-4.49-2.32-1.73-5.46-.74-6.51s.28-3.45,1.65-5.18c2.09-2.63,5.08-1.14,6.65-1.85s2.07-3.14,4.75-2.56,2.87,2.54,3.83,3.14,1.85-1.92,4.79,0c4.48,3-2.11,6.28-2.11,6.28a13,13,0,0,1-9,1.73,1.71,1.71,0,0,0-1.84,1c-.81,1.94,1.26,10.59,1.26,10.59l-2-1S97.48,306.52,96.42,303.09Z" transform="translate(-1.14 -93)"/><path class="cls-12" d="M100.56,303a1.64,1.64,0,1,0,.37-2.29A1.64,1.64,0,0,0,100.56,303Z" transform="translate(-1.14 -93)"/><polygon class="cls-23" points="110.78 219.18 111.29 222.77 99.27 221.58 101.35 217.4 110.78 219.18"/><path class="cls-25" d="M602,446.76c-98.91-40.12-109.95-122.71-174.6-135.65C358,297.2,277.94,388.45,208.5,402.34c-25.42,5.09-51.76,8.83-77.41,4.78-42.1-6.65-78.9-35.75-91.81-72.6-6-17.07-6.66-36.94,4.56-51.69,7.39-9.72,19.08-16.1,31.12-20.64,15.35-5.8,32.39-9.1,48.7-6.15s31.65,13,36.71,27.37c1.41,4,2,8.37.62,12.37-2.27,6.59-9.28,10.84-16.17,13.81-21.68,9.38-48.47,11.13-69.31.31S42.65,274,52.44,254.18c10.64-21.57,40.39-29.3,66.51-29.33,45.08,0,90.19,15,134.47,7.37,35.54-6.13,67.49-27.52,84.33-56.49,3.27-5.61,6-11.67,6.19-18,.26-10.83-7.15-20.68-15.94-28-23.69-19.82-57.4-26.35-89.59-28.4-46.77-3-96,2.5-135.13,25.91" transform="translate(-1.14 -93)"/></svg>